<?xml version="1.0" standalone="no"?>
<!DOCTYPE svg PUBLIC "-//W3C//DTD SVG 20010904//EN"
 "http://www.w3.org/TR/2001/REC-SVG-20010904/DTD/svg10.dtd">
<svg version="1.0" xmlns="http://www.w3.org/2000/svg"
 width="260.000000pt" height="260.000000pt" viewBox="0 0 260.000000 260.000000"
 preserveAspectRatio="xMidYMid meet">
<metadata>
Created by potrace 1.11, written by Peter Selinger 2001-2013
</metadata>
<g transform="translate(0.000000,260.000000) scale(0.100000,-0.100000)"
fill="#000000" stroke="none">
<path d="M1132 2590 c-549 -78 -984 -480 -1103 -1020 -31 -138 -33 -389 -5
-520 55 -253 163 -462 333 -641 188 -197 409 -322 673 -380 138 -31 389 -33
520 -5 253 55 462 163 641 333 197 188 322 409 380 673 31 138 33 389 5 520
-55 253 -163 462 -333 641 -184 193 -399 317 -653 375 -118 28 -348 40 -458
24z m-86 -555 l39 -45 106 8 c59 5 155 5 215 1 l109 -6 39 44 40 45 63 -6
c122 -13 315 -88 419 -164 35 -26 48 -47 89 -143 124 -293 190 -567 202 -834
l5 -130 -53 -54 c-112 -114 -286 -195 -441 -207 l-73 -5 -79 101 c-72 92 -82
101 -105 95 -84 -22 -191 -34 -301 -35 -109 0 -173 7 -331 36 -36 6 -37 6
-119 -96 l-83 -103 -70 7 c-39 4 -111 20 -161 37 -131 44 -221 102 -295 193
l-33 41 5 125 c13 265 81 544 203 830 54 127 68 141 204 210 116 58 246 97
331 99 32 1 42 -5 75 -44z"/>
<path d="M839 1596 c-55 -30 -104 -84 -133 -145 -30 -65 -29 -197 0 -262 30
-64 86 -123 141 -149 68 -32 162 -26 228 15 143 89 182 303 82 451 -48 72
-113 108 -201 111 -59 3 -79 -1 -117 -21z m249 -162 c70 -49 69 -181 -2 -228
-14 -9 -44 -16 -66 -16 -75 0 -131 86 -108 167 16 57 58 93 110 93 24 0 54 -7
66 -16z"/>
<path d="M1542 1594 c-111 -55 -172 -189 -150 -330 16 -102 67 -177 150 -218
133 -66 284 -5 352 143 30 65 29 197 0 262 -69 148 -219 209 -352 143z m108
-171 c88 -79 39 -233 -75 -233 -78 0 -127 75 -110 167 16 87 120 124 185 66z"/>
</g>
</svg>
