<svg xmlns="http://www.w3.org/2000/svg" xmlns:xlink="http://www.w3.org/1999/xlink"><symbol fill="none" viewBox="0 0 128 128" id="8-bit-shades" xmlns="http://www.w3.org/2000/svg" style="transition: var(--svg-custom-transition);"><path fill-rule="evenodd" clip-rule="evenodd" d="M93.614 59.853H34.386v3.18h2.383v3.182h2.382v3.18h2.383v3.18h2.383v3.182h9.871v-3.181h2.383v-3.18h2.383v-3.181h2.042v-3.181h6.808v3.18h2.042v3.181h2.383v3.18h2.383v3.182h9.871v-3.181h2.383v-3.18h2.383v-3.181h2.382v-3.181h2.383v-3.181zm-54.122 3.18h2.383v3.182h-2.383v-3.181zm30.295 0h2.382v3.181h2.383v-3.18h2.383v3.18h2.383v3.18H81.7v3.182h-2.382v-3.181h-2.383v3.18h-2.383v-3.18H72.17v-3.18h-2.382v-3.181zm7.148 3.182v3.18h-2.383v-3.18h2.383zM46.64 63.034h-2.383v3.18h-2.382v3.18h2.383v3.182h2.382v-3.181h2.383v3.18h2.383v-3.18h-2.383v-3.18H46.64v-3.181zm0 6.36v-3.18h-2.383v3.18h2.383z" fill="var(--svg-custom-color, #4F5660)" style="transition: var(--svg-custom-transition);"/></symbol><symbol fill="none" viewBox="0 0 128 128" id="alien" xmlns="http://www.w3.org/2000/svg" style="transition: var(--svg-custom-transition);"><path d="M85.507 96.493s-2.785-3.327-5.106-6.267c10.134-2.862 14.002-9.206 14.002-9.206-3.171 2.089-6.189 3.559-8.896 4.564-3.868 1.625-7.582 2.708-11.218 3.327-7.427 1.392-14.234 1.006-20.037-.077-4.41-.851-8.2-2.09-11.372-3.327-1.78-.696-3.713-1.547-5.647-2.63a3.136 3.136 0 00-.348-.194 3.286 3.286 0 01-.349-.193 1.067 1.067 0 01-.309-.232c-1.392-.774-2.166-1.315-2.166-1.315s3.713 6.189 13.538 9.128a494.172 494.172 0 01-5.183 6.422c-17.097-.542-23.595-11.76-23.595-11.76 0-16.64 4.97-33.174 8.271-40.991 1.09-1.006 3.81-2.533 5.035-3.171 0 0 1.702-.928 4.564-2.243 8.278-3.637 14.854-4.642 17.561-4.874l.174-.03c.39-.066.736-.125 1.142-.125a65.458 65.458 0 0115.627-.155c7.35.851 15.24 3.017 23.286 7.427 1.546.876 5.098 2.983 6.938 4.403 3.278 8.054 7.761 23.957 7.761 39.76 0 0-6.576 11.217-23.673 11.759z" fill="var(--svg-custom-color, #fff)" style="transition: var(--svg-custom-transition);"/><path fill-rule="evenodd" clip-rule="evenodd" d="M40.642 32.078c1.085 3.073 1.543 6.113 1.633 8.035l-3.996.186c-.073-1.565-.466-4.217-1.409-6.89-.952-2.698-2.38-5.18-4.372-6.694l2.42-3.185c2.875 2.185 4.649 5.5 5.724 8.548zm46.716 0c-1.084 3.073-1.543 6.113-1.632 8.035l3.995.186c.073-1.565.466-4.217 1.409-6.89.952-2.698 2.381-5.18 4.372-6.694l-2.42-3.185c-2.875 2.185-4.649 5.5-5.724 8.548z" fill="var(--svg-custom-color, #fff)" style="transition: var(--svg-custom-transition);"/><path d="M40.277 25.123a5.564 5.564 0 11-11.13 0 5.564 5.564 0 0111.13 0zm47.446 0a5.564 5.564 0 1011.13 0 5.564 5.564 0 00-11.13 0z" fill="var(--svg-custom-color, #fff)" style="transition: var(--svg-custom-transition);"/></symbol><symbol fill="none" viewBox="0 0 128 128" id="american-indian" xmlns="http://www.w3.org/2000/svg" style="transition: var(--svg-custom-transition);"><path fill-rule="evenodd" clip-rule="evenodd" d="M48.232 21.402c-2.002-6.518-6.05-10.968-9.155-13.064-4.056 5.328-8.557 18.754 2.16 33.242l6.519-1.271c.462 1.808 3.17-1.083 3.94.869 3.832-3.424 4.492-2.133 6.424-5.54 6.591-11.626 3.522-22.404.366-27.208-3.34 1.93-7.85 6.283-10.254 12.972zm-3.036 16.3l-4.503-18.316L48.89 33.45l7.094-14.065-2.847 17.431c-.304.038.531-.057 0 0-2.483.268-5.663.104-7.94.887z" fill="var(--svg-custom-color, #fff)" style="transition: var(--svg-custom-transition);"/><path d="M64 44.667c-13.469 0-25.59-1.172-34.03-3.041 9.654-5.966 21.73-8.118 21.73-8.118 11.314-1.71 21.115-.712 24.6 0 0 0 10.603 1.776 21.73 8.118-8.44 1.87-20.561 3.041-34.03 3.041z" fill="var(--svg-custom-color, #fff)" style="transition: var(--svg-custom-transition);"/><path fill-rule="evenodd" clip-rule="evenodd" d="M97.245 44.859C88.64 46.608 76.888 47.667 64 47.667c-12.888 0-24.64-1.06-33.245-2.808a81.443 81.443 0 01-2.17-.471c-1.369 2.912-3.54 7.982-5.489 14.498l11.134 2.465-12.561 2.78-.169.697 10.73 2.374-11.79 2.61c-.977 5.225-1.62 10.937-1.62 16.921 0 0 6.499 11.218 23.596 11.76 0 0 2.862-3.482 5.183-6.422-9.825-2.94-13.538-9.128-13.538-9.128s.773.541 2.166 1.315c.077.077.155.155.31.232.116.077.232.135.348.193.116.058.232.116.348.194 1.934 1.083 3.868 1.934 5.647 2.63 3.172 1.238 6.963 2.476 11.372 3.327 5.803 1.083 12.61 1.47 20.037.077 3.636-.619 7.35-1.702 11.218-3.327 2.707-1.005 5.725-2.475 8.896-4.564 0 0-3.868 6.344-14.002 9.206 2.32 2.94 5.106 6.267 5.106 6.267 17.097-.542 23.673-11.76 23.673-11.76 0-5.984-.643-11.696-1.62-16.92l-11.79-2.61 10.73-2.376-.169-.696-12.561-2.78 11.134-2.465c-1.948-6.516-4.12-11.586-5.49-14.498a81.31 81.31 0 01-2.17.471z" fill="var(--svg-custom-color, #fff)" style="transition: var(--svg-custom-transition);"/></symbol><symbol fill="none" viewBox="0 0 128 128" id="angel" xmlns="http://www.w3.org/2000/svg" style="transition: var(--svg-custom-transition);"><path fill-rule="evenodd" clip-rule="evenodd" d="M44.47 30.721c-.626-.433-.795-.715-.838-.811.043-.096.212-.378.839-.811.873-.604 2.276-1.233 4.198-1.795 3.818-1.115 9.215-1.835 15.265-1.835 6.05 0 11.448.72 15.265 1.835 1.923.563 3.325 1.191 4.199 1.795.627.433.796.715.839.81-.043.097-.212.379-.84.812-.742.513-1.867 1.045-3.369 1.538-4.471-.909-9.927-1.488-16.539-1.488-6.16 0-11.35.589-15.658 1.485-1.497-.493-2.619-1.023-3.36-1.535zm19.464-9.48c-6.333 0-12.147.748-16.446 2.005-2.135.624-4.017 1.408-5.412 2.372-1.33.92-2.674 2.334-2.674 4.292 0 1.957 1.344 3.372 2.674 4.292 1.395.964 3.277 1.748 5.412 2.372 4.299 1.257 10.113 2.005 16.446 2.005 6.334 0 12.148-.748 16.447-2.005 2.135-.624 4.016-1.408 5.412-2.372 1.33-.92 2.674-2.335 2.674-4.292 0-1.958-1.344-3.372-2.674-4.292-1.396-.964-3.277-1.748-5.413-2.372-4.298-1.257-10.112-2.005-16.446-2.005zm26.549 14.397c2.411 1.171 4.175 2.41 5.41 3.542.585.407.9.652.9.652s10.52 15.154 12.387 44.899l-.015-.007.015.01s-6.576 11.217-23.673 11.758c0 0-2.785-3.326-5.106-6.266 10.134-2.862 14.002-9.206 14.002-9.206-3.171 2.089-6.189 3.559-8.896 4.564-3.868 1.625-7.582 2.708-11.218 3.327-7.427 1.392-14.234 1.006-20.037-.077-4.41-.851-8.2-2.09-11.372-3.327-1.78-.696-3.713-1.547-5.647-2.63a3.12 3.12 0 00-.348-.194 3.286 3.286 0 01-.349-.193 1.088 1.088 0 01-.309-.232c-1.392-.774-2.166-1.315-2.166-1.315s3.713 6.189 13.538 9.128a485.207 485.207 0 01-5.183 6.421c-16.483-.522-23.115-10.966-23.57-11.716l-.025.01.002-.048a.198.198 0 01-.002-.005l.003-.002c1.82-29.709 12.195-44.899 12.195-44.899s.133-.106.39-.295c1.025-1.049 2.97-2.494 5.969-3.908a12.188 12.188 0 002.303 2.052c1.917 1.325 4.278 2.264 6.626 2.95 4.78 1.398 11.01 2.174 17.627 2.174 6.618 0 12.848-.776 17.628-2.173 2.348-.687 4.709-1.626 6.626-2.95a12.192 12.192 0 002.295-2.044z" fill="var(--svg-custom-color, #fff)" style="transition: var(--svg-custom-transition);"/></symbol><symbol fill="none" viewBox="0 0 128 128" id="angry" xmlns="http://www.w3.org/2000/svg" style="transition: var(--svg-custom-transition);"><path d="M78.061 77.48c4.253 0 7.702-3.948 7.702-8.819 0-2.094-.638-4.019-1.704-5.531-2.267 1.415-8.181 4.503-13.7 5.531 0 4.871 3.449 8.82 7.702 8.82zm-28.122 0c-4.253 0-7.702-3.948-7.702-8.819 0-2.094.638-4.019 1.703-5.531 2.268 1.415 8.182 4.503 13.7 5.531 0 4.871-3.447 8.82-7.701 8.82z" fill="var(--svg-custom-color, #4F5660)" style="transition: var(--svg-custom-transition);"/></symbol><symbol fill="none" viewBox="0 0 128 128" id="angry-brows" xmlns="http://www.w3.org/2000/svg" style="transition: var(--svg-custom-transition);"><path fill="var(--svg-custom-color, #4F5660)" d="M61.587 62.987l-23.015-6.822-.7 2.362 23.014 6.822z" style="transition: var(--svg-custom-transition);"/><path fill="var(--svg-custom-color, #4F5660)" d="M61.587 62.987l-23.015-6.822-.7 2.362 23.014 6.822zm4.826 0l23.015-6.822.7 2.362-23.015 6.822z" style="transition: var(--svg-custom-transition);"/><path fill="var(--svg-custom-color, #4F5660)" d="M66.413 62.987l23.015-6.822.7 2.362-23.015 6.822zm-16.559-2.714c-4.418 0-7.905 3.876-7.905 8.604s3.565 8.604 7.905 8.604c4.419 0 7.906-3.876 7.906-8.604.078-4.728-3.487-8.604-7.906-8.604z" style="transition: var(--svg-custom-transition);"/><path d="M78.145 60.273c-4.418 0-7.906 3.876-7.906 8.604s3.566 8.604 7.906 8.604c4.418 0 7.906-3.876 7.906-8.604s-3.488-8.604-7.906-8.604z" fill="var(--svg-custom-color, #4F5660)" style="transition: var(--svg-custom-transition);"/></symbol><symbol fill="none" viewBox="0 0 128 128" id="annoyed" xmlns="http://www.w3.org/2000/svg" style="transition: var(--svg-custom-transition);"><path d="M49.59 74.48c4.271 0 7.734-3.965 7.734-8.856H41.856c0 4.892 3.463 8.857 7.734 8.857zm28.82 0c4.272 0 7.734-3.965 7.734-8.856H70.676c0 4.892 3.463 8.857 7.734 8.857z" fill="var(--svg-custom-color, #4F5660)" style="transition: var(--svg-custom-transition);"/></symbol><symbol fill="none" viewBox="0 0 128 128" id="base-eyes" xmlns="http://www.w3.org/2000/svg" style="transition: var(--svg-custom-transition);"><path d="M78.145 60.273c-4.418 0-7.905 3.876-7.905 8.604s3.565 8.604 7.905 8.604c4.419 0 7.906-3.876 7.906-8.604s-3.487-8.604-7.906-8.604zm-28.29 0c-4.418 0-7.906 3.876-7.906 8.604s3.565 8.604 7.906 8.604c4.418 0 7.906-3.876 7.906-8.604.077-4.728-3.488-8.604-7.907-8.604z" fill="var(--svg-custom-color, #4F5660)" style="transition: var(--svg-custom-transition);"/></symbol><symbol fill="none" viewBox="0 0 128 128" id="base-shape" xmlns="http://www.w3.org/2000/svg" style="transition: var(--svg-custom-transition);"><path fill-rule="evenodd" clip-rule="evenodd" d="M85.507 96.492s-2.785-3.326-5.106-6.266c10.134-2.862 14.002-9.206 14.002-9.206-3.171 2.089-6.189 3.559-8.896 4.564-3.868 1.625-7.582 2.708-11.218 3.327-7.427 1.392-14.234 1.006-20.037-.077-4.41-.851-8.2-2.09-11.372-3.327-1.78-.696-3.713-1.547-5.647-2.63a3.12 3.12 0 00-.348-.194 3.286 3.286 0 01-.349-.193 1.067 1.067 0 01-.309-.232c-1.392-.774-2.166-1.315-2.166-1.315s3.713 6.189 13.538 9.128a485.207 485.207 0 01-5.183 6.421c-17.097-.541-23.595-11.759-23.595-11.759 0-24.91 11.14-45.102 11.14-45.102C41.1 31.276 51.7 31.508 51.7 31.508l.773.929C38.548 36.459 32.127 42.57 32.127 42.57s1.702-.928 4.564-2.243c8.278-3.637 14.854-4.642 17.561-4.874l.174-.03c.39-.066.736-.125 1.142-.125a65.458 65.458 0 0115.627-.155c7.35.851 15.24 3.017 23.286 7.427 0 0-6.112-5.802-19.263-9.825l1.083-1.238s10.598-.232 21.739 8.123c0 0 11.14 20.192 11.14 45.102 0 0-6.576 11.218-23.673 11.76z" fill="var(--svg-custom-color, #fff)" style="transition: var(--svg-custom-transition);"/></symbol><symbol fill="none" viewBox="0 0 128 128" id="base-upside-down" xmlns="http://www.w3.org/2000/svg" style="transition: var(--svg-custom-transition);"><path fill-rule="evenodd" clip-rule="evenodd" d="M42.493 31.508s2.785 3.326 5.106 6.266c-10.134 2.862-14.002 9.206-14.002 9.206 3.172-2.089 6.189-3.559 8.896-4.564 3.869-1.625 7.582-2.708 11.218-3.327 7.427-1.392 14.235-1.006 20.037.077 4.41.851 8.2 2.09 11.372 3.327 1.78.696 3.713 1.547 5.647 2.63.117.078.233.136.349.194.116.058.232.116.348.193.154.078.232.155.31.232 1.392.774 2.165 1.315 2.165 1.315s-3.713-6.189-13.538-9.128c2.32-2.94 5.183-6.421 5.183-6.421 17.097.541 23.596 11.759 23.596 11.759 0 24.91-11.14 45.102-11.14 45.102-11.14 8.355-21.74 8.123-21.74 8.123l-.773-.928c13.925-4.023 20.346-10.135 20.346-10.135s-1.702.928-4.564 2.243c-8.278 3.636-14.853 4.642-17.561 4.874l-.174.03c-.39.066-.736.125-1.141.125a65.457 65.457 0 01-15.628.155c-7.349-.851-15.24-3.017-23.286-7.427 0 0 6.112 5.802 19.264 9.825L51.7 96.492s-10.6.232-21.74-8.123c0 0-11.14-20.192-11.14-45.102 0 0 6.576-11.218 23.673-11.76z" fill="var(--svg-custom-color, #fff)" style="transition: var(--svg-custom-transition);"/></symbol><symbol fill="none" viewBox="0 0 129 128" id="bunny" xmlns="http://www.w3.org/2000/svg" style="transition: var(--svg-custom-transition);"><path d="M45.41 9.163c16.865-3.38 17.864 23.407 15.986 33.274L48.02 43.965c-7.966-11.333-15.906-32.139-2.61-34.802zm38.945 0C67.489 5.783 66.49 32.57 68.368 42.437l13.376 1.528c7.966-11.333 15.906-32.139 2.61-34.802z" fill="var(--svg-custom-color, #fff)" style="transition: var(--svg-custom-transition);"/><path fill-rule="evenodd" clip-rule="evenodd" d="M65.575 93.807a54.49 54.49 0 009.548-.924v5.987s-2.595.525-4.774.525c-2.18 0-4.775-.525-4.775-.525v-5.063zM53.877 92.7l.495.097.013.003c2.795.522 5.823.888 9.04.984v5.086s-2.595.525-4.774.525c-2.18 0-4.774-.525-4.774-.525V92.7z" fill="var(--svg-custom-color, #fff)" style="transition: var(--svg-custom-transition);"/><path d="M94.98 44.605a63.288 63.288 0 00-14.915-5.893c-11.336-2.92-25.477-1.396-31.13-.27-3.161.718-7.196 1.921-11.744 3.92-2.862 1.314-4.564 2.243-4.564 2.243-1.067.53-3.543 1.85-4.913 2.883-3.298 7.744-8.393 22.432-8.393 39.279 0 0 6.498 11.218 23.595 11.76 0 0 2.862-3.482 5.183-6.422-9.825-2.94-13.538-9.129-13.538-9.129s.773.542 2.166 1.316c.077.077.155.154.31.231.116.078.232.136.348.194.116.058.232.116.348.193 1.934 1.083 3.868 1.934 5.647 2.63 3.172 1.238 6.963 2.476 11.372 3.327 5.803 1.083 12.61 1.47 20.037.078 3.636-.62 7.35-1.702 11.218-3.327 2.707-1.006 5.725-2.476 8.896-4.564 0 0-3.868 6.343-14.002 9.206 2.32 2.94 5.106 6.266 5.106 6.266 17.097-.541 23.673-11.759 23.673-11.759 0-15.996-4.594-30.046-7.881-38.053-.874-.727-4.91-3.043-6.818-4.11z" fill="var(--svg-custom-color, #fff)" style="transition: var(--svg-custom-transition);"/></symbol><symbol fill="none" viewBox="0 0 128 128" id="cap" xmlns="http://www.w3.org/2000/svg" style="transition: var(--svg-custom-transition);"><path fill-rule="evenodd" clip-rule="evenodd" d="M63.909 38.145c-21.277 0-31.678 12.862-34.131 18.68a3.398 3.398 0 01-6.261-2.64c3.381-8.02 16.055-22.835 40.392-22.835 24.33 0 37.159 14.804 40.629 22.802a3.398 3.398 0 01-6.234 2.704c-2.533-5.84-13.11-18.71-34.395-18.71z" fill="var(--svg-custom-color, #fff)" style="transition: var(--svg-custom-transition);"/><path d="M63.909 41.145c-19.928 0-29.325 12.001-31.367 16.845a6.398 6.398 0 01-9.431 2.847c-2.299 7.676-4.29 17.364-4.29 27.896 0 0 6.498 11.218 23.595 11.759 0 0 2.862-3.48 5.183-6.42-9.825-2.94-13.538-9.13-13.538-9.13s.773.542 2.166 1.316c.077.077.155.154.31.232.116.077.232.135.348.193.116.058.232.116.348.194 1.934 1.083 3.868 1.934 5.647 2.63 3.172 1.238 6.963 2.476 11.372 3.327 5.803 1.083 12.61 1.47 20.037.077 3.636-.619 7.35-1.702 11.218-3.327 2.707-1.005 5.725-2.475 8.896-4.564 0 0-3.868 6.344-14.002 9.206 2.32 2.94 5.106 6.266 5.106 6.266 17.097-.541 23.673-11.759 23.673-11.759 0-10.515-1.985-20.19-4.28-27.86a6.397 6.397 0 01-9.349-2.824c-2.118-4.883-11.7-16.904-31.642-16.904z" fill="var(--svg-custom-color, #fff)" style="transition: var(--svg-custom-transition);"/><path fill-rule="evenodd" clip-rule="evenodd" d="M27.09 43.505C29.953 28.616 45.388 17.243 64 17.243c18.626 0 34.07 11.39 36.915 26.295-7.035-7.62-19.157-15.188-37.006-15.188-17.811 0-29.847 7.536-36.818 15.155zm31.053-28.902a6.095 6.095 0 0111.784.009A47.668 47.668 0 0064 14.243c-1.984 0-3.94.123-5.857.36z" fill="var(--svg-custom-color, #fff)" style="transition: var(--svg-custom-transition);"/></symbol><symbol fill="none" viewBox="0 0 128 128" id="cat" xmlns="http://www.w3.org/2000/svg" style="transition: var(--svg-custom-transition);"><path d="M30.61 19.182l-.644 20.462 21.466-8.034L30.61 19.182zm66.795 0l.645 20.462-21.466-8.034 20.821-12.428z" fill="var(--svg-custom-color, #fff)" style="transition: var(--svg-custom-transition);"/><path fill-rule="evenodd" clip-rule="evenodd" d="M80.4 90.226a332.977 332.977 0 005.107 6.266c17.097-.541 23.673-11.759 23.673-11.759 0-1.275-.03-2.538-.085-3.786L96.362 77.04l12.546.868a93.786 93.786 0 00-.625-5.681l-12.669-.722 12.168-2.46c-2.991-17.175-9.742-29.413-9.742-29.413-11.14-8.355-21.74-8.123-21.74-8.123l-1.082 1.238c13.151 4.023 19.263 9.825 19.263 9.825-8.046-4.41-15.937-6.576-23.286-7.427a65.458 65.458 0 00-15.627.155c-.406 0-.752.059-1.142.125l-.14.024-.034.006c-2.707.232-9.283 1.237-17.56 4.873-2.863 1.316-4.565 2.244-4.565 2.244s6.42-6.112 20.346-10.134l-.773-.929s-10.6-.232-21.74 8.123c0 0-6.751 12.238-9.742 29.413l12.168 2.46-12.669.722a93.702 93.702 0 00-.624 5.68l12.545-.867-12.733 3.908a85.404 85.404 0 00-.084 3.786s6.498 11.218 23.595 11.76c0 0 2.862-3.482 5.183-6.422-9.825-2.94-13.538-9.128-13.538-9.128s.773.541 2.166 1.315c.077.077.155.154.31.232.116.077.232.135.348.193.116.058.232.116.348.194 1.934 1.083 3.868 1.934 5.647 2.63 3.172 1.238 6.963 2.476 11.372 3.327 5.803 1.083 12.61 1.47 20.037.077 3.636-.619 7.35-1.702 11.218-3.327 2.707-1.005 5.725-2.475 8.896-4.564 0 0-3.868 6.344-14.002 9.206z" fill="var(--svg-custom-color, #fff)" style="transition: var(--svg-custom-transition);"/></symbol><symbol fill="none" viewBox="0 0 128 128" id="cat-eyes" xmlns="http://www.w3.org/2000/svg" style="transition: var(--svg-custom-transition);"><path fill-rule="evenodd" clip-rule="evenodd" d="M40.39 68.877c0-5.66 4.175-10.3 9.464-10.3 5.29 0 9.558 4.64 9.465 10.3 0 5.66-4.175 10.3-9.465 10.3-5.196 0-9.464-4.64-9.464-10.3zm10.465-6c-1.88 1.8-4.512 6.72 0 12 4.512-5.28 1.88-10.2 0-12zm17.825 6c0-5.66 4.175-10.3 9.464-10.3 5.29 0 9.557 4.64 9.465 10.3 0 5.66-4.176 10.3-9.465 10.3-5.196 0-9.465-4.64-9.465-10.3zm8.137-6c-1.88 1.8-4.512 6.72 0 12 4.511-5.28 1.88-10.2 0-12z" fill="var(--svg-custom-color, #4F5660)" style="transition: var(--svg-custom-transition);"/></symbol><symbol fill="none" viewBox="0 0 128 128" id="chubby" xmlns="http://www.w3.org/2000/svg" style="transition: var(--svg-custom-transition);"><path fill-rule="evenodd" clip-rule="evenodd" d="M37.742 70.099c5.93 1.664 10.58 4.91 14.4 9.299 4.762-1.594 8.238-6.592 8.238-12.511 0-7.203-5.147-13.042-11.495-13.042-6.348 0-11.495 5.839-11.495 13.042 0 1.108.122 2.184.352 3.212zm15.781 1.528c2.316 0 4.193-2.122 4.193-4.74 0-2.618-1.877-4.74-4.193-4.74s-4.193 2.122-4.193 4.74c0 2.618 1.877 4.74 4.193 4.74zm36.736-1.528c-5.93 1.664-10.58 4.91-14.4 9.299-4.763-1.594-8.238-6.592-8.238-12.511 0-7.203 5.146-13.042 11.494-13.042 6.349 0 11.495 5.839 11.495 13.042a14.74 14.74 0 01-.351 3.212zm-15.782 1.528c-2.316 0-4.193-2.122-4.193-4.74 0-2.618 1.877-4.74 4.193-4.74s4.193 2.122 4.193 4.74c0 2.618-1.877 4.74-4.193 4.74z" fill="var(--svg-custom-color, #4F5660)" style="transition: var(--svg-custom-transition);"/></symbol><symbol fill="none" viewBox="0 0 128 129" id="chubby-shape" xmlns="http://www.w3.org/2000/svg" style="transition: var(--svg-custom-transition);"><path fill-rule="evenodd" clip-rule="evenodd" d="M55.568 33.265A65.284 65.284 0 0164 32.717c2.96.001 5.793.202 8.432.548.406 0 .752.06 1.142.126l.174.029c2.707.232 9.283 1.238 17.56 4.874 2.863 1.315 4.565 2.243 4.565 2.243s-6.42-6.111-20.346-10.134l.773-.928s10.6-.233 21.74 8.123c0 0 16.89 24.862 11.139 45.102 0 0-3.56 23.39-23.632 4.062C76.63 89.96 70.407 91.489 64 91.386c-6.407.103-12.631-1.426-21.547-4.624C22.381 106.09 18.821 82.7 18.821 82.7c-5.75-20.24 11.14-45.102 11.14-45.102C41.1 29.242 51.7 29.475 51.7 29.475l.773.928c-13.925 4.023-20.346 10.134-20.346 10.134s1.702-.928 4.564-2.243c8.278-3.636 14.854-4.642 17.561-4.874l.174-.03c.39-.066.736-.125 1.142-.125z" fill="var(--svg-custom-color, #fff)" style="transition: var(--svg-custom-transition);"/></symbol><symbol fill="none" viewBox="0 0 128 128" id="crazy-eyes" xmlns="http://www.w3.org/2000/svg" style="transition: var(--svg-custom-transition);"><path fill-rule="evenodd" clip-rule="evenodd" d="M39 66c0-6.595 4.852-12 11-12 6.146 0 11.106 5.405 10.998 12 0 3.064-1.048 5.872-2.786 8H41.824C40.07 71.872 39 69.064 39 66zm31.24 2.877c0-4.728 3.487-8.604 7.905-8.604 4.419 0 7.906 3.876 7.906 8.604 0 1.914-.571 3.689-1.545 5.123H71.808a9.048 9.048 0 01-1.569-5.123z" fill="var(--svg-custom-color, #4F5660)" style="transition: var(--svg-custom-transition);"/></symbol><symbol fill="none" viewBox="0 0 129 129" id="crown" xmlns="http://www.w3.org/2000/svg" style="transition: var(--svg-custom-transition);"><path d="M63.526 31.523a2.112 2.112 0 012.987 0l4.297 4.296a2.112 2.112 0 010 2.987l-4.297 4.297a2.112 2.112 0 01-2.987 0l-4.296-4.297a2.112 2.112 0 010-2.987l4.296-4.297z" fill="var(--svg-custom-color, #fff)" style="transition: var(--svg-custom-transition);"/><path d="M27.105 38.738l-.002 8.049c4.48-3.268 15.451-9.129 28.527-10.87a5.257 5.257 0 011.36-2.338l4.296-4.297a5.263 5.263 0 013.734-1.546h.05c1.35 0 2.702.515 3.733 1.546l4.297 4.297a5.256 5.256 0 011.36 2.337c13.075 1.742 24.047 7.603 28.526 10.87l-.002-8.048-28.525-9.456-9.44-4.248-9.39 4.248-28.525 9.456z" fill="var(--svg-custom-color, #fff)" style="transition: var(--svg-custom-transition);"/><path d="M33.58 47.247c6.524-3.296 12.996-6.436 22.386-7.64.25.52.592 1.007 1.024 1.439l4.296 4.297a5.28 5.28 0 007.467 0l4.297-4.297c.392-.393.71-.831.953-1.3 12.167 1.74 15.022 3.595 21.75 7.04 1.59.815 5.183 3.143 6.229 4.104 3.185 7.285 6.724 19.705 7.821 37.147l-3.001 1.584-12.7-6.463-62.09-.513-9.643 7.695-3.172-2.303c1.064-17.442 5.132-29.862 8.31-37.147a75.212 75.212 0 016.074-3.643z" fill="var(--svg-custom-color, #fff)" style="transition: var(--svg-custom-transition);"/><path d="M86.06 99.78c17.144-.542 23.737-11.76 23.737-11.76l-12.302-7.98-65.109-1.49-13.19 9.47s6.516 11.218 23.66 11.76c0 0 2.87-3.482 5.196-6.422-9.85-2.94-13.574-9.128-13.574-9.128s.776.541 2.172 1.315c.077.077.155.154.31.232.116.077.233.135.35.193.115.058.232.116.348.194 1.94 1.083 3.878 1.934 5.663 2.63 3.18 1.238 6.98 2.476 11.402 3.327 5.818 1.083 12.644 1.47 20.09.077 3.646-.619 7.37-1.702 11.248-3.327 2.715-1.005 5.74-2.475 8.92-4.564 0 0-3.878 6.344-14.04 9.206 2.327 2.94 5.12 6.266 5.12 6.266zM65 11.568l14.29 19.1-7.343-1.474L65 26.301l-6.434 2.893-7.855 1.473L65 11.567zM27 27.715l.107 11.09L39 36.28l-12-8.565z" fill="var(--svg-custom-color, #fff)" style="transition: var(--svg-custom-transition);"/><path d="M43.831 18.653l-8.292 17.41 19.774-4.803-11.482-12.607zm59.156 9.062V38.87l-12-2.59 12-8.564z" fill="var(--svg-custom-color, #fff)" style="transition: var(--svg-custom-transition);"/><path d="M86.155 18.653l8.293 17.41-19.774-4.803 11.481-12.607z" fill="var(--svg-custom-color, #fff)" style="transition: var(--svg-custom-transition);"/></symbol><symbol fill="none" viewBox="0 0 128 128" id="cute" xmlns="http://www.w3.org/2000/svg" style="transition: var(--svg-custom-transition);"><path fill-rule="evenodd" clip-rule="evenodd" d="M48.885 79.929c6.348 0 11.495-5.84 11.495-13.042 0-7.203-5.147-13.042-11.495-13.042-6.348 0-11.495 5.839-11.495 13.042 0 7.203 5.147 13.042 11.495 13.042zm4.638-7.295c2.808 0 5.084-2.573 5.084-5.747s-2.276-5.748-5.084-5.748-5.084 2.574-5.084 5.748c0 3.174 2.276 5.747 5.084 5.747zm25.592 7.295c-6.348 0-11.494-5.84-11.494-13.042 0-7.203 5.146-13.042 11.494-13.042 6.349 0 11.495 5.839 11.495 13.042 0 7.203-5.147 13.042-11.495 13.042zm-4.604-7.295c-2.808 0-5.085-2.573-5.085-5.747s2.277-5.748 5.085-5.748 5.084 2.574 5.084 5.748c0 3.174-2.276 5.747-5.084 5.747z" fill="var(--svg-custom-color, #4F5660)" style="transition: var(--svg-custom-transition);"/></symbol><symbol fill="none" viewBox="0 0 128 128" id="cute-downwards" xmlns="http://www.w3.org/2000/svg" style="transition: var(--svg-custom-transition);"><path fill-rule="evenodd" clip-rule="evenodd" d="M48.885 79.929c6.348 0 11.495-5.84 11.495-13.042 0-7.203-5.147-13.042-11.495-13.042-6.349 0-11.495 5.839-11.495 13.042 0 7.203 5.146 13.042 11.495 13.042zm2.083-2.695c2.808 0 5.084-2.574 5.084-5.748 0-3.174-2.276-5.747-5.084-5.747s-5.085 2.573-5.085 5.747 2.277 5.748 5.085 5.748zm28.147 2.695c-6.348 0-11.495-5.84-11.495-13.042 0-7.203 5.147-13.042 11.495-13.042 6.348 0 11.495 5.839 11.495 13.042 0 7.203-5.147 13.042-11.495 13.042zm-2.083-2.695c-2.808 0-5.084-2.574-5.084-5.748 0-3.174 2.276-5.747 5.084-5.747s5.084 2.573 5.084 5.747-2.276 5.748-5.084 5.748z" fill="var(--svg-custom-color, #4F5660)" style="transition: var(--svg-custom-transition);"/></symbol><symbol fill="none" viewBox="0 0 128 128" id="dead" xmlns="http://www.w3.org/2000/svg" style="transition: var(--svg-custom-transition);"><path fill="var(--svg-custom-color, #4F5660)" d="M54.343 61.565l-11.82 11.82 2.803 2.805 11.821-11.821z" style="transition: var(--svg-custom-transition);"/><path fill="var(--svg-custom-color, #4F5660)" d="M54.343 61.565l-11.82 11.82 2.803 2.805 11.821-11.821zm28.331 0l-11.82 11.82 2.803 2.805 11.821-11.82z" style="transition: var(--svg-custom-transition);"/><path fill="var(--svg-custom-color, #4F5660)" d="M82.674 61.565l-11.82 11.82 2.803 2.805 11.821-11.82zm-25.527 11.82l-11.82-11.82-2.805 2.804 11.82 11.82z" style="transition: var(--svg-custom-transition);"/><path fill="var(--svg-custom-color, #4F5660)" d="M57.147 73.385l-11.82-11.82-2.805 2.804 11.82 11.82zm28.331 0l-11.82-11.82-2.805 2.804 11.82 11.82z" style="transition: var(--svg-custom-transition);"/><path fill="var(--svg-custom-color, #4F5660)" d="M85.478 73.385l-11.82-11.82-2.805 2.804 11.82 11.82z" style="transition: var(--svg-custom-transition);"/></symbol><symbol fill="none" viewBox="0 0 128 128" id="devil" xmlns="http://www.w3.org/2000/svg" style="transition: var(--svg-custom-transition);"><path d="M34.702 36.637c-2.442-5.145-.963-11.002 3.28-13.387-.176 1.8.15 3.777 1.045 5.662.982 2.068 2.481 3.677 4.17 4.668.686-.209 1.402-.41 2.149-.602a36.973 36.973 0 014.525-.972c3.89-.683 8.434-1.112 13.686-1.112 5.3 0 9.855.373 13.752.99 2.023.228 3.98.66 5.821 1.21.54.143 1.063.29 1.568.442 1.66-.995 3.13-2.586 4.097-4.624.894-1.885 1.221-3.861 1.045-5.662 4.243 2.385 5.722 8.242 3.28 13.387l-.008.016a28.843 28.843 0 014.928 2.978s11.14 20.192 11.14 45.102c0 0-6.576 11.218-23.673 11.76 0 0-2.785-3.327-5.106-6.267 10.134-2.862 14.002-9.206 14.002-9.206-3.171 2.089-6.189 3.559-8.896 4.564-3.868 1.625-7.582 2.708-11.218 3.327-7.427 1.392-14.234 1.006-20.037-.077-4.41-.851-8.2-2.09-11.372-3.327-1.78-.696-3.713-1.547-5.647-2.63a3.12 3.12 0 00-.348-.194 3.286 3.286 0 01-.349-.193 1.067 1.067 0 01-.309-.232c-1.392-.774-2.166-1.315-2.166-1.315s3.713 6.189 13.538 9.128a485.207 485.207 0 01-5.183 6.421c-17.097-.541-23.595-11.759-23.595-11.759 0-8.735 1.37-16.89 3.148-23.797 3.295-12.791 7.992-21.305 7.992-21.305a28.974 28.974 0 014.78-2.911 10.528 10.528 0 01-.039-.083z" fill="var(--svg-custom-color, #fff)" style="transition: var(--svg-custom-transition);"/></symbol><symbol fill="none" viewBox="0 0 128 128" id="evil-eyes" xmlns="http://www.w3.org/2000/svg" style="transition: var(--svg-custom-transition);"><path fill-rule="evenodd" clip-rule="evenodd" d="M45.357 59.801c-2.975 1.744-4.967 5.166-4.967 9.076 0 2.319.716 4.467 1.92 6.194.627.137 1.258.287 1.89.453a44.102 44.102 0 018.522 3.177c3.855-1.32 6.597-5.237 6.597-9.824.003-.193.001-.384-.005-.575a29.665 29.665 0 01-5.972-2.379c-.06 2.388-.734 5.066-2.487 7.817-2.548-3.999-2.818-7.844-2.231-10.869a24.958 24.958 0 01-3.267-3.07zm37.286 0c2.975 1.744 4.967 5.166 4.967 9.076a10.82 10.82 0 01-1.92 6.194c-.627.137-1.258.287-1.89.453a44.1 44.1 0 00-8.523 3.177c-3.854-1.32-6.596-5.237-6.596-9.824-.004-.193-.002-.384.005-.575a29.664 29.664 0 005.972-2.379c.06 2.388.734 5.066 2.487 7.817 2.548-3.999 2.817-7.844 2.23-10.869a24.952 24.952 0 003.268-3.07z" fill="var(--svg-custom-color, #4F5660)" style="transition: var(--svg-custom-transition);"/></symbol><symbol fill="none" viewBox="0 0 129 128" id="face-mask" xmlns="http://www.w3.org/2000/svg" style="transition: var(--svg-custom-transition);"><path fill-rule="evenodd" clip-rule="evenodd" d="M109.655 71.023l-2.096 1.673c-2.403 1.918-6.154 3.954-10.294 6.201-.926.503-1.872 1.016-2.826 1.541-2.609 1.435-5.226 2.675-7.65 3.529-2.46.866-4.525 1.263-6.094 1.191-2.87-.13-4.79-.521-6.168-.961-1.37-.438-2.31-.953-3.319-1.512l-.075-.042c-1.502-.832-3.282-1.818-6.133-1.818-2.85 0-4.631.986-6.133 1.818l-.075.042c-1.01.559-1.948 1.074-3.319 1.512-1.378.44-3.297.83-6.168.961-1.569.072-3.634-.325-6.094-1.191-2.424-.854-5.041-2.094-7.65-3.529-.953-.524-1.898-1.037-2.823-1.54h-.002c-4.141-2.248-7.892-4.284-10.295-6.202l-1.974-1.576c2.288-20.087 10.56-35.08 10.56-35.08 11.14-8.355 21.739-8.123 21.739-8.123l.773.929C39.614 32.868 33.193 38.98 33.193 38.98s1.702-.928 4.565-2.243c8.277-3.637 14.853-4.642 17.56-4.874l.174-.03c.39-.066.737-.125 1.142-.125a65.458 65.458 0 0115.627-.155c7.35.851 15.24 3.017 23.286 7.427 0 0-6.111-5.802-19.263-9.825l1.083-1.238s10.599-.232 21.739 8.123c0 0 8.245 14.945 10.549 34.983z" fill="var(--svg-custom-color, #fff)" style="transition: var(--svg-custom-transition);"/><path fill-rule="evenodd" clip-rule="evenodd" d="M20.57 75.04c3.757 3 10.635 7.431 17.342 10.3-.373 2.153-.61 4.965-.662 7.807-.05 2.771.073 5.721.472 8.263a82.79 82.79 0 01-4-2.102c-.606-.344-1.289-.66-2.017-.996-5.047-2.333-11.135-7.82-11.135-23.272zm19.68 18.161c.045-2.523.242-4.904.519-6.736 3.159 1.13 6.17 1.804 8.672 1.69 6.172-.28 8.746-1.706 10.804-2.846 1.473-.815 2.681-1.484 4.755-1.484s3.282.669 4.755 1.484c2.059 1.14 4.632 2.566 10.804 2.846 2.502.114 5.514-.56 8.673-1.69.276 1.832.473 4.213.519 6.736.066 3.648-.19 7.325-.866 9.823-7.736 3.546-17.949 7.351-23.885 7.351s-16.15-3.805-23.885-7.351c-.675-2.498-.932-6.175-.866-9.823zm52.028 8.209a82.742 82.742 0 004-2.102c.606-.344 1.29-.66 2.017-.996 5.047-2.333 11.135-5.839 11.135-23.272-3.757 3-10.635 7.431-17.342 10.3.373 2.153.611 4.965.663 7.807.05 2.771-.074 5.72-.473 8.263zm-9.047-5.164H46.77v-2h36.46v2zM50.773 102.9h28.454v-2H50.773v2z" fill="var(--svg-custom-color, #fff)" style="transition: var(--svg-custom-transition);"/></symbol><symbol fill="none" viewBox="0 0 128 128" id="female-lashes" xmlns="http://www.w3.org/2000/svg" style="transition: var(--svg-custom-transition);"><path d="M36.627 60.567c2.174 2.823 7.084 3.718 10.25 3.224l-.454 3.709c-8.32-.362-9.646-5.426-9.797-6.933z" fill="var(--svg-custom-color, #4F5660)" style="transition: var(--svg-custom-transition);"/><path fill-rule="evenodd" clip-rule="evenodd" d="M44.906 62.155c1.348-1.176 3.063-1.882 4.948-1.882 4.418 0 7.983 3.876 7.906 8.604 0 4.728-3.488 8.604-7.906 8.604-4.34 0-7.906-3.876-7.906-8.604 0-1.886.555-3.637 1.503-5.06 3.488.296 6.98-.653 7.543-1.288-1.776.227-4.012.338-6.088-.374z" fill="var(--svg-custom-color, #4F5660)" style="transition: var(--svg-custom-transition);"/><path d="M91.374 60.567c-2.174 2.823-7.084 3.718-10.25 3.224l.453 3.709c8.32-.362 9.646-5.426 9.797-6.933z" fill="var(--svg-custom-color, #4F5660)" style="transition: var(--svg-custom-transition);"/><path fill-rule="evenodd" clip-rule="evenodd" d="M83.094 62.155c-1.347-1.176-3.063-1.882-4.948-1.882-4.418 0-7.983 3.876-7.906 8.604 0 4.728 3.488 8.604 7.906 8.604 4.34 0 7.906-3.876 7.906-8.604 0-1.886-.555-3.637-1.503-5.06-3.488.296-6.98-.653-7.543-1.288 1.776.227 4.013.338 6.088-.374z" fill="var(--svg-custom-color, #4F5660)" style="transition: var(--svg-custom-transition);"/></symbol><symbol fill="none" viewBox="0 0 128 128" id="glasses-1" xmlns="http://www.w3.org/2000/svg" style="transition: var(--svg-custom-transition);"><ellipse cx="50.337" cy="68.494" rx="4.872" ry="5.579" fill="var(--svg-custom-color, #4F5660)" style="transition: var(--svg-custom-transition);"/><ellipse rx="4.872" ry="5.579" transform="matrix(-1 0 0 1 77.663 68.494)" fill="var(--svg-custom-color, #4F5660)" style="transition: var(--svg-custom-transition);"/><path fill-rule="evenodd" clip-rule="evenodd" d="M49.288 76.949a8.455 8.455 0 100-16.91 8.455 8.455 0 000 16.91zm0 3.146c6.408 0 11.602-5.194 11.602-11.601 0-6.407-5.194-11.602-11.602-11.602-6.407 0-11.601 5.195-11.601 11.602s5.194 11.601 11.601 11.601zm29.424-3.146a8.455 8.455 0 110-16.91 8.455 8.455 0 010 16.91zm0 3.146c-6.408 0-11.602-5.194-11.602-11.601 0-6.407 5.194-11.602 11.602-11.602 6.407 0 11.601 5.195 11.601 11.602s-5.194 11.601-11.601 11.601z" fill="var(--svg-custom-color, #4F5660)" style="transition: var(--svg-custom-transition);"/><path fill-rule="evenodd" clip-rule="evenodd" d="M63.419 64.616c-1.538.112-2.826.496-3.484.781l-1.25-2.887c.985-.427 2.618-.895 4.505-1.032 1.893-.138 4.144.05 6.285 1.05l-1.33 2.851c-1.517-.708-3.194-.875-4.726-.763z" fill="var(--svg-custom-color, #4F5660)" style="transition: var(--svg-custom-transition);"/></symbol><symbol fill="none" viewBox="0 0 128 128" id="glasses-2" xmlns="http://www.w3.org/2000/svg" style="transition: var(--svg-custom-transition);"><ellipse cx="49.223" cy="68.743" rx="5.2" ry="5.955" fill="var(--svg-custom-color, #4F5660)" style="transition: var(--svg-custom-transition);"/><path fill-rule="evenodd" clip-rule="evenodd" d="M63.352 64.737c-1.12.08-2.05.362-2.501.557l-1.335-3.082c.801-.347 2.1-.717 3.592-.825 1.499-.11 3.303.038 5.032.844l-1.42 3.044c-1.063-.495-2.254-.62-3.368-.538z" fill="var(--svg-custom-color, #4F5660)" style="transition: var(--svg-custom-transition);"/><path fill-rule="evenodd" clip-rule="evenodd" d="M39.658 61.472v9.868h19.275v-9.868H39.658zm-1.12-3.358a2.24 2.24 0 00-2.239 2.239v12.106a2.24 2.24 0 002.24 2.24h21.513a2.24 2.24 0 002.24-2.24V60.353a2.24 2.24 0 00-2.24-2.24H38.538z" fill="var(--svg-custom-color, #4F5660)" style="transition: var(--svg-custom-transition);"/><ellipse rx="5.2" ry="5.955" transform="matrix(-1 0 0 1 78.777 68.743)" fill="var(--svg-custom-color, #4F5660)" style="transition: var(--svg-custom-transition);"/><path fill-rule="evenodd" clip-rule="evenodd" d="M88.342 61.472v9.868H69.067v-9.868h19.275zm1.12-3.358a2.24 2.24 0 012.239 2.239v12.106a2.24 2.24 0 01-2.24 2.24H67.949a2.24 2.24 0 01-2.24-2.24V60.353a2.24 2.24 0 012.24-2.24h21.514z" fill="var(--svg-custom-color, #4F5660)" style="transition: var(--svg-custom-transition);"/></symbol><symbol fill="none" viewBox="0 0 128 128" id="hair-1" xmlns="http://www.w3.org/2000/svg" style="transition: var(--svg-custom-transition);"><path d="M34.138 28.863c1.265-3.989 6.072-8.111 11.678-6.582 5.606 1.529 9.456 1.81 21.134-3.078-.445 2.582-3.097 5.578-6.05 7.707 6.222-.811 14.772-.911 20.733 1.45 9.004 3.568 19.285 5.141 20.771 4.434-2.548 1.91-5.653 8.386-15.817 6.687-4.817-.805-5.803 2.887-16.138 1.698-14.768-1.698-21.872-9.555-32.065-3.185-8.154 5.097-6.228-3.964-4.246-9.13z" fill="var(--svg-custom-color, #fff)" style="transition: var(--svg-custom-transition);"/><path d="M30.49 40.736c-2.192 3.595-10.232 18.379-11.794 43.99l2.078 1.81 13.753-7.87 60.823.78 12.548 6.31 1.405-1.03c-1.569-24.957-9.25-39.633-11.67-43.693-2.869 1.552-6.598 2.403-11.568 1.572-1.197-.2-1.775-.01-3.318.5h-.001c-.348.114-.744.245-1.208.39-2.535.799-5.812 1.48-11.451.832-5.705-.657-10.54-2.242-14.455-3.527-1.378-.452-2.642-.866-3.79-1.19-2.308-.65-4.223-.985-6.044-.882-1.764.1-3.608.624-5.735 1.953-2.114 1.32-4.497 2.37-6.766 1.852-1.303-.298-2.198-.983-2.808-1.797z" fill="var(--svg-custom-color, #fff)" style="transition: var(--svg-custom-transition);"/><path d="M85.56 96.463c17.144-.541 23.737-11.759 23.737-11.759l-12.302-7.98-65.109-1.49-13.19 9.47s6.516 11.218 23.66 11.76c0 0 2.87-3.482 5.196-6.422-9.85-2.94-13.574-9.129-13.574-9.129s.776.542 2.172 1.316c.077.077.155.154.31.232.116.077.233.135.35.193.115.058.232.116.348.193 1.94 1.084 3.878 1.934 5.663 2.63 3.18 1.239 6.98 2.476 11.402 3.327 5.818 1.083 12.644 1.47 20.09.078 3.646-.62 7.37-1.702 11.248-3.327 2.715-1.006 5.74-2.476 8.92-4.564 0 0-3.878 6.344-14.04 9.206 2.327 2.94 5.12 6.266 5.12 6.266z" fill="var(--svg-custom-color, #fff)" style="transition: var(--svg-custom-transition);"/></symbol><symbol fill="none" viewBox="0 0 128 128" id="hair-2" xmlns="http://www.w3.org/2000/svg" style="transition: var(--svg-custom-transition);"><path d="M64.016 17.352c-9.435-.368-30.806 2.904-40.804 18.931-12.498 20.035-16.246 29.157-9.398 30.97 2.083.552 10.133 2.041 14.545-.459l6.8-28.305h11.406l4.363-6.493 3.88 6.493h38.065l6.8 28.306c4.412 2.5 11.1 1.01 13.183.458 7.592-2.01 4.463-10.935-8.036-30.97-9.998-16.027-31.369-19.3-40.804-18.931z" fill="var(--svg-custom-color, #fff)" style="transition: var(--svg-custom-transition);"/><path d="M87.262 17.325l2.451 7.448 4.412 3.629 6.312-3.629-7.047-.764-6.128-6.684zM37.646 41.644l-6.22 25.888a3.155 3.155 0 01-1.512 2.008c-3.105 1.759-6.86 1.722-9.65 1.739-.648 3.967-.775 8.884-1.062 13.587l2.096 1.574 11.829-7.367h61.322l12.867 7.367 2.131-1.574c-.296-4.704-.739-9.619-1.394-13.587h-.044c-2.889.06-6.58.137-9.891-1.74a3.155 3.155 0 01-1.512-2.007l-6.22-25.888H53.2l-2.113-3.853-2.318 3.853H37.646z" fill="var(--svg-custom-color, #fff)" style="transition: var(--svg-custom-transition);"/><path d="M85.804 96.563c17.075-.54 23.643-11.713 23.643-11.713L97.193 76.9 32.34 75.417 19.202 84.85s6.49 11.173 23.566 11.713c0 0 2.858-3.468 5.176-6.396-9.812-2.928-13.521-9.093-13.521-9.093s.773.54 2.163 1.31c.078.077.155.154.31.231.115.077.231.135.347.193.116.058.232.115.348.192 1.931 1.08 3.863 1.927 5.64 2.62 3.168 1.233 6.954 2.466 11.358 3.314 5.795 1.079 12.594 1.464 20.012.077 3.631-.616 7.34-1.695 11.203-3.313 2.704-1.002 5.718-2.466 8.885-4.547 0 0-3.863 6.319-13.985 9.17 2.318 2.928 5.1 6.242 5.1 6.242z" fill="var(--svg-custom-color, #fff)" style="transition: var(--svg-custom-transition);"/></symbol><symbol fill="none" viewBox="0 0 128 128" id="hanging-ears" xmlns="http://www.w3.org/2000/svg" style="transition: var(--svg-custom-transition);"><path fill-rule="evenodd" clip-rule="evenodd" d="M53.521 88.834c3.208.598 6.722.984 10.479.974 3.757.01 7.271-.376 10.479-.974 4.41-.851 8.2-2.09 11.372-3.327 1.78-.696 3.713-1.547 5.647-2.63.116-.078.232-.136.348-.194.116-.058.233-.116.349-.193.154-.078.232-.155.309-.232 1.392-.774 2.166-1.315 2.166-1.315s0 13.138 7.992 13.085c7.991-.053 7.248-9.295 7.248-9.295 0-9.27-1.542-17.886-3.48-25.052-3.268-12.09-7.66-20.05-7.66-20.05-11.14-8.355-21.739-8.123-21.739-8.123l-.773.929C90.183 36.459 96.604 42.57 96.604 42.57s-1.702-.928-4.564-2.243c-8.278-3.637-14.854-4.642-17.561-4.874a60.44 60.44 0 01-.174-.03c-.39-.066-.736-.125-1.142-.125A65.38 65.38 0 0064 34.754a65.38 65.38 0 00-9.163.545c-.406 0-.752.059-1.142.125l-.174.03c-2.707.232-9.283 1.237-17.56 4.873-2.863 1.316-4.565 2.244-4.565 2.244s6.42-6.112 20.346-10.134l-.773-.929s-10.6-.232-21.74 8.123c0 0-4.39 7.96-7.66 20.05-1.937 7.166-3.48 15.782-3.48 25.052 0 0-.742 9.242 7.25 9.295 7.99.053 7.99-13.085 7.99-13.085s.774.541 2.167 1.315c.077.077.155.154.31.232.115.077.232.135.348.193.116.058.232.116.348.194 1.934 1.083 3.868 1.934 5.647 2.63 3.172 1.238 6.963 2.476 11.372 3.327z" fill="var(--svg-custom-color, #fff)" style="transition: var(--svg-custom-transition);"/></symbol><symbol fill="none" viewBox="0 0 129 128" id="hannibal" xmlns="http://www.w3.org/2000/svg" style="transition: var(--svg-custom-transition);"><path fill-rule="evenodd" clip-rule="evenodd" d="M109.155 71.056l-2.096 1.673c-2.403 1.918-6.154 3.954-10.294 6.202-.926.503-1.872 1.016-2.826 1.54-2.609 1.435-5.226 2.676-7.65 3.53-2.46.865-4.525 1.262-6.094 1.191-2.87-.13-4.79-.521-6.168-.961-1.37-.438-2.31-.953-3.319-1.512l-.075-.042c-1.502-.832-3.282-1.819-6.133-1.819-2.85 0-4.631.987-6.133 1.819l-.075.042c-1.01.559-1.948 1.074-3.319 1.512-1.378.44-3.297.83-6.168.961-1.569.071-3.634-.325-6.094-1.192-2.424-.853-5.041-2.094-7.65-3.528a575.072 575.072 0 00-2.823-1.54l-.002-.001c-4.141-2.248-7.892-4.284-10.295-6.202l-1.974-1.576c2.288-20.086 10.56-35.08 10.56-35.08 11.14-8.354 21.739-8.122 21.739-8.122l.773.928c-13.925 4.023-20.346 10.135-20.346 10.135s1.702-.929 4.565-2.244c8.277-3.636 14.853-4.642 17.56-4.874l.174-.029c.39-.066.737-.125 1.142-.125a65.458 65.458 0 0115.627-.155c7.35.85 15.24 3.017 23.286 7.427 0 0-6.111-5.803-19.263-9.825l1.083-1.238s10.599-.232 21.739 8.123c0 0 8.245 14.945 10.549 34.982z" fill="var(--svg-custom-color, #fff)" style="transition: var(--svg-custom-transition);"/><path fill-rule="evenodd" clip-rule="evenodd" d="M48.941 88.189c-8.469.385-22.776-8.25-28.871-13.115 0 15.452 6.088 20.939 11.135 23.272.728.336 1.411.652 2.017.996 6.722 3.808 23.08 11.067 31.278 11.067 8.199 0 24.556-7.259 31.278-11.067.606-.344 1.29-.66 2.017-.996 5.047-2.333 11.135-5.839 11.135-23.272-6.095 4.865-20.402 13.5-28.871 13.115-6.172-.28-8.745-1.706-10.804-2.846-1.472-.815-2.681-1.485-4.755-1.485s-3.282.67-4.755 1.485c-2.058 1.14-4.632 2.565-10.804 2.846zm28.646 10.346a4.636 4.636 0 01-4.166 4.611v-9.223a4.636 4.636 0 014.166 4.612zM66.163 93.9h4.258v9.27h-4.258V93.9zm-7.258 9.27h4.258V93.9h-4.258v9.27zm-3-9.268a4.635 4.635 0 000 9.265v-9.265z" fill="var(--svg-custom-color, #fff)" style="transition: var(--svg-custom-transition);"/></symbol><symbol fill="none" viewBox="0 0 128 128" id="happy" xmlns="http://www.w3.org/2000/svg" style="transition: var(--svg-custom-transition);"><path d="M49.637 60.279c-4.257 0-7.708 3.952-7.708 8.827 0 .885.114 1.74.326 2.547 2.362-2.653 8.623-6.368 14.765 0a10.02 10.02 0 00.326-2.547c0-4.875-3.451-8.827-7.709-8.827zm28.725 0c4.258 0 7.709 3.952 7.709 8.827 0 .885-.114 1.74-.326 2.547-2.363-2.653-8.623-6.368-14.765 0a10.02 10.02 0 01-.326-2.547c0-4.875 3.451-8.827 7.708-8.827z" fill="var(--svg-custom-color, #4F5660)" style="transition: var(--svg-custom-transition);"/></symbol><symbol fill="none" viewBox="0 0 129 129" id="headphones" xmlns="http://www.w3.org/2000/svg" style="transition: var(--svg-custom-transition);"><path d="M26.226 60.225c-3.77 15.176-4.295 15.46-9.132 14.259-5.867-1.457-8.894-9.6-6.762-18.186 2.133-8.587 8.617-14.366 14.484-12.91 5.082 1.263 5.178 1.66 1.41 16.837zm75.156 0c3.769 15.176 4.295 15.46 9.132 14.259 5.867-1.457 8.894-9.6 6.762-18.186-2.133-8.587-8.618-14.366-14.484-12.91-5.082 1.263-5.179 1.66-1.41 16.837z" fill="var(--svg-custom-color, #fff)" style="transition: var(--svg-custom-transition);"/><path fill-rule="evenodd" clip-rule="evenodd" d="M86.007 96.526S83.222 93.2 80.9 90.26c10.134-2.863 14.002-9.206 14.002-9.206-3.172 2.088-6.189 3.558-8.897 4.564-3.868 1.625-7.581 2.708-11.217 3.327-7.427 1.392-14.235 1.005-20.037-.078-4.41-.85-8.2-2.089-11.372-3.326-1.78-.697-3.713-1.548-5.648-2.63-.115-.078-.232-.136-.348-.194a3.126 3.126 0 01-.348-.193 1.091 1.091 0 01-.31-.233c-1.392-.773-2.165-1.315-2.165-1.315s3.713 6.19 13.538 9.129a485.207 485.207 0 01-5.183 6.421c-17.097-.541-23.596-11.759-23.596-11.759 0-2.467.1-4.889.278-7.248a6.15 6.15 0 00.744-.04c1.694-.204 2.95-1.138 3.884-2.545.829-1.248 1.488-2.985 2.15-5.15.677-2.217 1.432-5.144 2.373-8.932.938-3.78 1.654-6.71 2.11-8.97.443-2.2.7-4.036.57-5.52-.147-1.693-.823-3.12-2.257-4.095a6.11 6.11 0 00-.737-.425c.616-1.413.998-2.177.998-2.177 5.546-3.416 18.839-11.023 34.57-11.023 13.846 0 28.927 7.607 34.536 11.023 0 0 .387.7 1.016 2.002a6.618 6.618 0 00-1.12.6c-1.434.975-2.11 2.402-2.257 4.096-.13 1.483.128 3.32.571 5.52.455 2.259 1.171 5.189 2.11 8.969.94 3.788 1.696 6.715 2.374 8.933.661 2.164 1.32 3.901 2.149 5.15.933 1.406 2.19 2.34 3.884 2.543.697.084 1.415.029 2.097-.082.203 2.398.316 4.86.316 7.371 0 0-6.575 11.218-23.672 11.76zM52.973 33.2c-13.925 3.43-20.346 9.405-20.346 9.405s1.702-.792 4.564-1.913c8.278-3.1 14.854-3.958 17.561-4.155l.174-.025c.39-.057.737-.107 1.142-.107a76.706 76.706 0 0115.627-.132c7.35.725 15.24 2.572 23.286 6.332 0 0-6.112-5.711-19.263-9.141-3.489-.946-12.921-2.322-22.745-.264z" fill="var(--svg-custom-color, #fff)" style="transition: var(--svg-custom-transition);"/></symbol><symbol fill="none" viewBox="0 0 128 128" id="heart-eyes" xmlns="http://www.w3.org/2000/svg" style="transition: var(--svg-custom-transition);"><path d="M57.328 62.674a4.777 4.777 0 00-3.553-1.547 4.469 4.469 0 00-2.792.964 5.71 5.71 0 00-1.128 1.178 5.71 5.71 0 00-1.128-1.178 4.468 4.468 0 00-2.791-.964 4.78 4.78 0 00-3.554 1.547c-.908.986-1.409 2.332-1.409 3.792 0 1.502.56 2.877 1.762 4.328 1.075 1.297 2.62 2.614 4.41 4.14.611.52 1.304 1.11 2.023 1.74a1.042 1.042 0 001.373 0c.72-.63 1.413-1.22 2.024-1.741 1.79-1.525 3.335-2.842 4.41-4.14 1.202-1.45 1.762-2.825 1.762-4.327 0-1.46-.5-2.806-1.41-3.792zm28.29 0a4.777 4.777 0 00-3.553-1.547 4.468 4.468 0 00-2.791.964 5.707 5.707 0 00-1.129 1.178 5.708 5.708 0 00-1.128-1.178 4.468 4.468 0 00-2.791-.964c-1.372 0-2.634.55-3.553 1.547-.91.986-1.41 2.332-1.41 3.792 0 1.502.56 2.877 1.762 4.328 1.075 1.297 2.62 2.614 4.41 4.14.611.52 1.304 1.11 2.023 1.74a1.042 1.042 0 001.374 0c.719-.63 1.412-1.22 2.023-1.741 1.79-1.525 3.335-2.842 4.41-4.14 1.202-1.45 1.762-2.825 1.762-4.327 0-1.46-.5-2.806-1.41-3.792z" fill="var(--svg-custom-color, #4F5660)" style="transition: var(--svg-custom-transition);"/></symbol><symbol fill="none" viewBox="0 0 128 128" id="knit-cap" xmlns="http://www.w3.org/2000/svg" style="transition: var(--svg-custom-transition);"><path d="M24.562 41.039c-1.275.325-3.505 2.301-3.187 3.623.116.479.241 1.062.379 1.702.625 2.903 1.502 6.977 2.808 7.776.458.28 1.91-.326 4.32-1.333 5.973-2.495 17.832-7.448 35.03-7.448 17.197 0 29.057 4.953 35.03 7.448 2.41 1.007 3.862 1.614 4.321 1.333 1.305-.8 2.182-4.873 2.807-7.776.138-.64.264-1.223.379-1.701.225-.936-1.912-3.299-3.186-3.624-16.059-6.913-32.981-7.387-39.351-7.387-6.37 0-23.292.474-39.35 7.387z" fill="var(--svg-custom-color, #fff)" style="transition: var(--svg-custom-transition);"/><path fill-rule="evenodd" clip-rule="evenodd" d="M28.908 35.967C32.83 28.82 43.15 19.245 63.912 19.028c20.762.217 31.082 9.793 35.003 16.939-14.832-5.113-29.247-5.483-35.003-5.483s-20.171.37-35.004 5.483z" fill="var(--svg-custom-color, #fff)" style="transition: var(--svg-custom-transition);"/><path d="M24.166 57.316a4.314 4.314 0 001.362.014 8.315 8.315 0 001.47-.37c.831-.28 1.884-.72 3.004-1.187l.101-.042c5.865-2.45 17.252-7.203 33.809-7.203s27.945 4.753 33.81 7.203l.1.042c1.12.468 2.173.907 3.004 1.186a8.29 8.29 0 001.471.37c.253.036.833.184 1.499.044 2.421 7.298 4.722 17.133 5.507 29.624l-4.638 1.583-10.028-7.636H34.47l-12.788 8.372-2.986-2.32c.76-12.477 3.06-22.385 5.47-29.68zM62.7 11.297c-.983.093-1.917.291-2.777.576l.34 3.493-3.14-2.068c-1.207.897-2.038 2.03-2.328 3.286a63.45 63.45 0 019.084-.723h.066c3.327.034 6.411.3 9.266.752-.283-1.266-1.117-2.409-2.33-3.312L67.996 15.2l.317-3.246a12.32 12.32 0 00-2.347-.577l-1.847 3.371-1.42-3.451z" fill="var(--svg-custom-color, #fff)" style="transition: var(--svg-custom-transition);"/><path d="M85.56 98.722c17.143-.542 23.736-11.76 23.736-11.76l-12.302-7.98-65.108-1.489-13.19 9.47s6.516 11.217 23.659 11.759c0 0 2.87-3.481 5.197-6.421-9.852-2.94-13.575-9.129-13.575-9.129s.776.542 2.172 1.315c.078.078.155.155.31.232.116.078.233.136.35.194.116.058.232.116.348.193 1.94 1.083 3.879 1.934 5.663 2.63 3.18 1.238 6.981 2.476 11.402 3.327 5.818 1.083 12.644 1.47 20.09.077 3.646-.618 7.37-1.702 11.248-3.326 2.715-1.006 5.74-2.476 8.92-4.565 0 0-3.878 6.344-14.04 9.207 2.328 2.94 5.12 6.266 5.12 6.266z" fill="var(--svg-custom-color, #fff)" style="transition: var(--svg-custom-transition);"/></symbol><symbol fill="none" viewBox="0 0 128 128" id="line-eyes" xmlns="http://www.w3.org/2000/svg" style="transition: var(--svg-custom-transition);"><path fill-rule="evenodd" clip-rule="evenodd" d="M88.859 69.515L71.044 74.83l-1.2-4.025 17.814-5.314 1.2 4.024zm-49.718 0l17.815 5.315 1.2-4.025-17.814-5.314-1.2 4.024z" fill="var(--svg-custom-color, #4F5660)" style="transition: var(--svg-custom-transition);"/></symbol><symbol fill="none" viewBox="0 0 128 128" id="line-eyes-happy" xmlns="http://www.w3.org/2000/svg" style="transition: var(--svg-custom-transition);"><path fill-rule="evenodd" clip-rule="evenodd" d="M49.855 62.428l9.164 9.163-2.633 2.633-6.531-6.532-6.532 6.532-2.632-2.633 9.164-9.163zm28.311 0l9.163 9.163-2.632 2.633-6.531-6.532-6.532 6.532-2.632-2.633 9.164-9.163z" fill="var(--svg-custom-color, #4F5660)" style="transition: var(--svg-custom-transition);"/></symbol><symbol fill="none" viewBox="0 0 128 128" id="mohawk" xmlns="http://www.w3.org/2000/svg" style="transition: var(--svg-custom-transition);"><path d="M76.565 29.995v11.657h-25.13V29.817a36.78 36.78 0 012.817-.363l.174-.03c.39-.066.736-.125 1.142-.125a65.458 65.458 0 0115.627-.155c1.76.204 3.553.484 5.37.851z" fill="var(--svg-custom-color, #fff)" style="transition: var(--svg-custom-transition);"/><path d="M79.565 36.678v7.974h-31.13v-8.244c-3.161.718-7.196 1.922-11.744 3.92-2.862 1.315-4.564 2.243-4.564 2.243-1.067.531-3.543 1.851-4.913 2.883-3.298 7.744-8.393 22.433-8.393 39.28 0 0 6.498 11.217 23.595 11.758 0 0 2.862-3.48 5.183-6.42-9.825-2.94-13.538-9.13-13.538-9.13s.773.542 2.166 1.316c.077.077.155.154.31.232.116.077.232.135.348.193.116.058.232.116.348.194 1.934 1.083 3.868 1.934 5.647 2.63 3.172 1.238 6.963 2.476 11.372 3.327 5.803 1.083 12.61 1.47 20.037.077 3.636-.619 7.35-1.702 11.218-3.327 2.707-1.005 5.725-2.475 8.896-4.564 0 0-3.868 6.344-14.002 9.206 2.32 2.94 5.106 6.266 5.106 6.266 17.097-.541 23.673-11.759 23.673-11.759 0-15.995-4.594-30.045-7.881-38.053-.874-.727-4.91-3.042-6.818-4.109-5.066-2.776-10.07-4.663-14.916-5.893z" fill="var(--svg-custom-color, #fff)" style="transition: var(--svg-custom-transition);"/></symbol><symbol fill="none" viewBox="0 0 128 128" id="mono-brow" xmlns="http://www.w3.org/2000/svg" style="transition: var(--svg-custom-transition);"><path d="M77.817 60.273c-4.418 0-7.906 3.876-7.906 8.604s3.566 8.604 7.906 8.604c4.418 0 7.906-3.876 7.906-8.604s-3.488-8.604-7.906-8.604zm-28.291 0c-4.418 0-7.905 3.876-7.905 8.604s3.565 8.604 7.905 8.604c4.419 0 7.906-3.876 7.906-8.604.078-4.728-3.487-8.604-7.906-8.604z" fill="var(--svg-custom-color, #4F5660)" style="transition: var(--svg-custom-transition);"/><path fill-rule="evenodd" clip-rule="evenodd" d="M90.946 62.903H37.054v-3h53.892v3z" fill="var(--svg-custom-color, #4F5660)" style="transition: var(--svg-custom-transition);"/></symbol><symbol fill="none" viewBox="0 0 129 128" id="monocle" xmlns="http://www.w3.org/2000/svg" style="transition: var(--svg-custom-transition);"><path fill-rule="evenodd" clip-rule="evenodd" d="M50.627 79.007c6.062 0 10.976-4.915 10.976-10.977s-4.914-10.976-10.977-10.976c-6.062 0-10.976 4.914-10.976 10.976 0 6.062 4.914 10.977 10.977 10.977zm0 4.085c8.318 0 15.061-6.744 15.061-15.062s-6.743-15.06-15.062-15.06c-8.318 0-15.061 6.743-15.061 15.061s6.743 15.062 15.062 15.062z" fill="var(--svg-custom-color, #4F5660)" style="transition: var(--svg-custom-transition);"/><circle cx="32.684" cy="68.03" r="1.981" fill="var(--svg-custom-color, #4F5660)" style="transition: var(--svg-custom-transition);"/><circle cx="32.684" cy="73.439" r="1.981" fill="var(--svg-custom-color, #4F5660)" style="transition: var(--svg-custom-transition);"/><circle cx="32.684" cy="78.848" r="1.981" fill="var(--svg-custom-color, #4F5660)" style="transition: var(--svg-custom-transition);"/><circle cx="32.684" cy="84.248" r="1.981" fill="var(--svg-custom-color, #4F5660)" style="transition: var(--svg-custom-transition);"/><circle cx="32.684" cy="89.648" r="1.981" fill="var(--svg-custom-color, #4F5660)" style="transition: var(--svg-custom-transition);"/><circle cx="32.684" cy="95.049" r="1.981" fill="var(--svg-custom-color, #4F5660)" style="transition: var(--svg-custom-transition);"/><path d="M50.526 59.34c-4.418 0-7.905 3.875-7.905 8.603s3.565 8.604 7.905 8.604c4.419 0 7.906-3.876 7.906-8.604.078-4.728-3.487-8.603-7.906-8.603zm28.291 0c-4.417 0-7.905 3.875-7.905 8.603s3.565 8.604 7.905 8.604c4.419 0 7.906-3.876 7.906-8.604s-3.487-8.603-7.906-8.603z" fill="var(--svg-custom-color, #4F5660)" style="transition: var(--svg-custom-transition);"/></symbol><symbol fill="none" viewBox="0 0 128 128" id="mouse" xmlns="http://www.w3.org/2000/svg" style="transition: var(--svg-custom-transition);"><path fill-rule="evenodd" clip-rule="evenodd" d="M52.45 32.408l.023.029-.013.003c-13.916 4.023-20.333 10.131-20.333 10.131s1.702-.928 4.564-2.243c8.278-3.637 14.854-4.642 17.561-4.874l.174-.03c.39-.066.736-.125 1.142-.125a65.458 65.458 0 0115.627-.155c7.35.851 15.24 3.017 23.286 7.427 0 0-6.112-5.802-19.263-9.825l.368-.42c2.25-6.539 8.455-11.237 15.757-11.237 9.202 0 16.661 7.46 16.661 16.66a16.62 16.62 0 01-5.392 12.273c-2.413-6.49-4.566-10.39-4.566-10.39-10.564-7.924-20.64-8.125-21.655-8.124 1.051 0 11.108.218 21.648 8.123 0 0 11.141 20.192 11.141 45.102 0 0-6.576 11.218-23.673 11.76 0 0-2.785-3.327-5.106-6.267 10.134-2.862 14.002-9.206 14.002-9.206-3.171 2.089-6.189 3.559-8.896 4.564-3.868 1.625-7.582 2.708-11.218 3.327-7.427 1.392-14.234 1.006-20.037-.077-4.41-.851-8.2-2.09-11.372-3.327-1.78-.696-3.713-1.547-5.647-2.63a3.12 3.12 0 00-.348-.194 3.286 3.286 0 01-.349-.193 1.067 1.067 0 01-.309-.232c-1.392-.774-2.166-1.315-2.166-1.315s3.713 6.189 13.538 9.128a494.172 494.172 0 01-5.183 6.422c-17.097-.542-23.595-11.76-23.595-11.76 0-13.96 3.498-26.439 6.574-34.712a16.617 16.617 0 01-5.392-12.271c0-9.202 7.46-16.66 16.66-16.66 7.334 0 13.56 4.737 15.787 11.318zm0 0l-.75-.9.75.9z" fill="var(--svg-custom-color, #fff)" style="transition: var(--svg-custom-transition);"/></symbol><symbol fill="none" viewBox="0 0 128 128" id="mustache" xmlns="http://www.w3.org/2000/svg" style="transition: var(--svg-custom-transition);"><path fill-rule="evenodd" clip-rule="evenodd" d="M45.453 102.879c-4.808 0-16.139-7.542-26.757-19.681l17.027-8.788 59.729 1.046 13.851 7.742c-10.618 12.139-21.039 19.681-26.757 19.681-2.66 0-5.223-.92-7.964-1.905-3.152-1.133-6.54-2.35-10.582-2.35-3.895 0-7.65 1.28-11.041 2.437-2.791.951-5.335 1.818-7.506 1.818zm44.912-8.146c-2.476 1.656-6.358 2.496-11.537 2.496-8.688 0-12.637-3.92-14.431-5.701a32.233 32.233 0 00-.397-.39c-.119.114-.25.245-.397.39-1.794 1.78-5.743 5.701-14.431 5.701-5.18 0-9.061-.84-11.537-2.496-3.317-2.22-2.052-6.698-1.922-7.159l.01-.036c.077-.34.596-.582 1.178-.555.583.028 1.025.32 1.005.662 0 .02-.005.058-.012.112-.079.597-.408 3.093 2.788 3.137h.036c1.56 0 3.216-1.534 4.817-3.018 2.405-2.227 7.91-5.304 12.414-5.304 3.616 0 4.505 1.548 5.209 2.773.262.457.5.869.842 1.14.343-.271.58-.683.842-1.14.704-1.225 1.593-2.773 5.209-2.773 4.505 0 10.009 3.077 12.414 5.305 1.6 1.483 3.257 3.017 4.817 3.017h.036c3.193-.044 2.867-2.536 2.788-3.142a1.327 1.327 0 01-.013-.116c-.02-.342.423-.63 1.006-.657.578-.028 1.1.22 1.178.559l.01.036c.13.462 1.395 4.94-1.922 7.159z" fill="var(--svg-custom-color, #fff)" style="transition: var(--svg-custom-transition);"/><path d="M18.707 83.188c0-24.98 11.16-45.268 11.16-45.268 11.17-8.379 21.798-8.146 21.798-8.146l.776.931C38.478 34.74 32.039 40.867 32.039 40.867s1.706-.93 4.577-2.25c8.3-3.645 14.894-4.654 17.61-4.886l.173-.03c.391-.066.739-.126 1.145-.126a65.638 65.638 0 0115.67-.155c7.37.854 15.282 3.026 23.35 7.447 0 0-6.128-5.818-19.316-9.851l1.086-1.242s10.628-.233 21.798 8.146c0 0 11.166 20.3 11.166 45.279l-15.521-5.544H38.93l-20.223 5.532z" fill="var(--svg-custom-color, #fff)" style="transition: var(--svg-custom-transition);"/></symbol><symbol fill="none" viewBox="0 0 129 128" id="mustache-top-hat" xmlns="http://www.w3.org/2000/svg" style="transition: var(--svg-custom-transition);"><path fill-rule="evenodd" clip-rule="evenodd" d="M45.953 104.879c-4.808 0-16.139-7.542-26.757-19.681l17.027-8.788 59.729 1.046 13.851 7.742c-10.618 12.139-21.039 19.681-26.757 19.681-2.66 0-5.223-.92-7.964-1.905-3.152-1.132-6.54-2.349-10.582-2.349-3.895 0-7.65 1.28-11.041 2.436-2.791.951-5.335 1.818-7.506 1.818zm44.912-8.146c-2.476 1.656-6.358 2.496-11.537 2.496-8.688 0-12.637-3.92-14.431-5.701a32.233 32.233 0 00-.397-.39c-.119.114-.25.245-.397.39-1.794 1.78-5.743 5.701-14.431 5.701-5.18 0-9.061-.84-11.537-2.496-3.317-2.22-2.052-6.698-1.922-7.159l.01-.036c.077-.34.596-.582 1.178-.555.583.028 1.025.32 1.005.662 0 .02-.005.058-.012.112-.079.597-.408 3.093 2.788 3.137h.036c1.56 0 3.216-1.534 4.817-3.018 2.405-2.227 7.91-5.304 12.414-5.304 3.616 0 4.505 1.548 5.209 2.773.262.457.5.869.842 1.14.343-.271.58-.683.842-1.14.704-1.225 1.593-2.773 5.209-2.773 4.505 0 10.009 3.077 12.414 5.305 1.6 1.483 3.257 3.017 4.817 3.017h.036c3.193-.044 2.867-2.536 2.788-3.142a1.327 1.327 0 01-.013-.116c-.02-.342.423-.63 1.006-.657.578-.028 1.1.22 1.178.559l.01.036c.13.462 1.395 4.94-1.922 7.159zM44.172 30.15c.043.096.212.378.84.81.874.604 2.279 1.232 4.204 1.793 3.822 1.115 9.226 1.834 15.284 1.834s11.463-.719 15.285-1.834c1.925-.561 3.329-1.189 4.204-1.792.628-.433.797-.715.84-.81-.043-.096-.212-.378-.84-.81-.875-.604-2.28-1.232-4.204-1.794-3.822-1.114-9.227-1.833-15.285-1.833s-11.462.719-15.284 1.833c-1.925.562-3.33 1.19-4.204 1.793-.628.433-.797.715-.84.81zm3.86-6.658c4.305-1.255 10.126-2.002 16.468-2.002 6.342 0 12.164.747 16.468 2.002 2.137.624 4.021 1.407 5.419 2.37 1.332.92 2.677 2.333 2.677 4.288 0 1.956-1.345 3.37-2.677 4.288-1.398.964-3.282 1.747-5.42 2.37-4.303 1.256-10.125 2.003-16.467 2.003-6.342 0-12.163-.747-16.467-2.003-2.138-.623-4.022-1.406-5.42-2.37-1.331-.919-2.677-2.332-2.677-4.288 0-1.955 1.346-3.369 2.678-4.287 1.397-.964 3.281-1.747 5.419-2.37z" fill="var(--svg-custom-color, #fff)" style="transition: var(--svg-custom-transition);"/><path d="M31.723 40.181c.96-1.06 2.974-2.61 6.205-4.127.78.904 1.633 1.583 2.313 2.05 1.925 1.324 4.296 2.263 6.654 2.948 4.8 1.396 11.056 2.172 17.702 2.172 6.646 0 12.902-.776 17.702-2.172 2.359-.685 4.73-1.624 6.654-2.948a12.217 12.217 0 002.305-2.04c2.843 1.373 4.789 2.84 6.034 4.117l-1.03 6.53H33.415l-1.693-6.53z" fill="var(--svg-custom-color, #fff)" style="transition: var(--svg-custom-transition);"/><ellipse cx="64.5" cy="14.291" rx="16.996" ry="5.689" fill="var(--svg-custom-color, #fff)" style="transition: var(--svg-custom-transition);"/><path d="M64.5 31.358c10.752 0 19.468-2.547 19.468-5.689H45.032c0 3.142 8.716 5.69 19.468 5.69z" fill="var(--svg-custom-color, #fff)" style="transition: var(--svg-custom-transition);"/><path fill="var(--svg-custom-color, #fff)" d="M47.504 14.133h33.992v11.936H47.504zm18.404 30.873c14.327 0 21.13-4.815 29.455-.61-1.826-1.617-3.62-3.124-5.687-4.503l2.524-2.846c3.22 1.747 5.202 3.284 5.202 3.284s10.533 15.14 12.401 44.856l-1.889 1.26-12.551-6.27-60.973-.99-11.814 8.844-3.38-2.844C21.01 55.47 31.543 40.33 31.543 40.33s1.931-1.534 5.177-3.284l2.319 3.05c-1.986 1.343-3.762 2.797-5.457 4.3 8.324-4.206 18 .609 32.327.609z" style="transition: var(--svg-custom-transition);"/></symbol><symbol fill="none" viewBox="0 0 129 128" id="ninja-band" xmlns="http://www.w3.org/2000/svg" style="transition: var(--svg-custom-transition);"><path d="M103.667 51.163c-9.764-3.51-23.615-5.787-39.179-5.787-15.564 0-29.415 2.277-39.18 5.787-.468.169-.925.34-1.37.511.468-1.732 2.166-6.794 5.217-13.181 10.095-2.622 22.301-4.117 35.333-4.117 13.122 0 25.408 1.516 35.543 4.172 3.053 6.438 4.626 11.44 5.031 13.136a59.29 59.29 0 00-1.395-.521z" fill="var(--svg-custom-color, #fff)" style="transition: var(--svg-custom-transition);"/><path fill-rule="evenodd" clip-rule="evenodd" d="M64.5 29.595l-8.237-7.431-6.708 7.431-7.648-4.967-3.891 6.337-10.063-3.118.928 1.748 2.32 5.308c9.786-2.265 21.212-3.527 33.287-3.527 12.084 0 23.517 1.263 33.31 3.531l2.321-5.312.928-1.748-10.063 3.118-3.89-6.337-7.649 4.967-6.709-7.431-8.236 7.431zm-40.235 25.17l.756-.293c.421-.163.856-.325 1.303-.486 9.36-3.365 22.852-5.61 38.164-5.61 15.311 0 28.804 2.245 38.164 5.61.455.164.897.329 1.326.495l.761.295c2.56 7.97 4.941 18.476 4.941 29.991 0 0-6.576 11.218-23.673 11.76 0 0-2.785-3.328-5.106-6.267 10.134-2.863 14.002-9.206 14.002-9.206-3.171 2.088-6.189 3.558-8.896 4.564-3.868 1.625-7.582 2.708-11.218 3.327-7.427 1.392-14.234 1.005-20.037-.078-4.41-.85-8.2-2.089-11.372-3.326-1.78-.697-3.713-1.548-5.647-2.63a3.12 3.12 0 00-.348-.194 3.13 3.13 0 01-.349-.194 1.07 1.07 0 01-.309-.231c-1.392-.774-2.166-1.316-2.166-1.316s3.713 6.19 13.538 9.129a485.207 485.207 0 01-5.183 6.421c-17.097-.541-23.595-11.759-23.595-11.759 0-11.52 2.382-22.031 4.944-30.002zm-2.698-1.411l-.159.493c-2.165 6.737-4.218 15.282-4.873 24.755L9.92 72.916l8.624-8.867-10.747 3.845-3.079-10.7 16.849-3.84z" fill="var(--svg-custom-color, #fff)" style="transition: var(--svg-custom-transition);"/></symbol><symbol fill="none" viewBox="0 0 128 128" id="ribbon" xmlns="http://www.w3.org/2000/svg" style="transition: var(--svg-custom-transition);"><ellipse cx="89.01" cy="37.108" rx="8.077" ry="6.953" transform="rotate(15 89.01 37.108)" fill="var(--svg-custom-color, #fff)" style="transition: var(--svg-custom-transition);"/><path d="M71.121 24.118a2 2 0 013.26-.977l10.677 9.49a2 2 0 01.603 2.012l-.759 2.83a2 2 0 01-1.664 1.465l-13.714 1.85a2 2 0 01-2.2-2.5l3.797-14.17zm39.875 10.685c.385-1.437-.878-2.777-2.335-2.477l-13.99 2.88a2 2 0 00-1.529 1.442l-.758 2.83a2 2 0 00.71 2.1l10.951 8.46a2 2 0 003.155-1.066l3.796-14.17z" fill="var(--svg-custom-color, #fff)" style="transition: var(--svg-custom-transition);"/><path d="M64.427 37.511c-.924 3.449 1.96 6.727 5.498 6.25l10.058-1.357c1.542 2.058 3.848 3.62 6.45 4.317 2.604.698 5.382.498 7.746-.513l8.032 6.204a5.03 5.03 0 001.374.756c2.793 8.167 5.595 19.472 5.595 31.964 0 0-6.576 11.217-23.673 11.759 0 0-2.785-3.327-5.106-6.267 10.134-2.862 14.002-9.206 14.002-9.206-3.171 2.089-6.189 3.559-8.896 4.564-3.868 1.625-7.582 2.708-11.218 3.327-7.427 1.393-14.234 1.006-20.037-.077-4.41-.851-8.2-2.09-11.372-3.327-1.78-.696-3.713-1.547-5.647-2.63-.116-.078-.232-.136-.348-.194a3.286 3.286 0 01-.349-.193 1.067 1.067 0 01-.309-.232c-1.392-.774-2.166-1.315-2.166-1.315s3.713 6.189 13.538 9.129a494.172 494.172 0 01-5.183 6.42c-17.097-.541-23.595-11.758-23.595-11.758 0-24.911 11.14-45.103 11.14-45.103C41.1 31.674 51.7 31.906 51.7 31.906l.773.929c-13.925 4.023-20.346 10.134-20.346 10.134s1.702-.928 4.564-2.243c8.278-3.636 14.854-4.642 17.561-4.874l.174-.03c.39-.066.736-.125 1.142-.125a65.398 65.398 0 019.49-.54l-.631 2.354z" fill="var(--svg-custom-color, #fff)" style="transition: var(--svg-custom-transition);"/></symbol><symbol fill="none" viewBox="0 0 128 128" id="sad" xmlns="http://www.w3.org/2000/svg" style="transition: var(--svg-custom-transition);"><path d="M78.343 77.48c-4.251 0-7.698-3.946-7.698-8.815 0-2.094.638-4.017 1.702-5.53 2.267 1.416 8.179 4.502 13.695 5.53 0 4.869-3.447 8.816-7.699 8.816zm-28.686 0c4.251 0 7.698-3.946 7.698-8.815 0-2.094-.637-4.017-1.702-5.53-2.267 1.416-8.179 4.502-13.694 5.53 0 4.869 3.446 8.816 7.698 8.816z" fill="var(--svg-custom-color, #4F5660)" style="transition: var(--svg-custom-transition);"/></symbol><symbol fill="none" viewBox="0 0 129 128" id="samurai" xmlns="http://www.w3.org/2000/svg" style="transition: var(--svg-custom-transition);"><path fill-rule="evenodd" clip-rule="evenodd" d="M21.982 59.886c-3.31 14.408-3.11 15.044-3.11 24.15.434 1.75 4.47 5.507 6.159 7.424.303.344.244.636-.433 2.547-7.695-1.475-11.258-4.219-14.019-5.909l11.403-28.212zm84.999 0c3.31 14.408 3.197 15.044 3.197 24.15-.434 1.75-4.471 5.507-6.159 7.424-.304.344-.244.636.432 2.547 7.696-1.475 11.258-4.219 14.019-5.909l-11.489-28.212zm-41.992-16.16a8.216 8.216 0 01-.082.01c-4.833-.01-13.863-.482-17.232-7.928-3.898-8.614-10.653-16.207-13.4-17.376 0 0 3.353-2.172 7.807-2.7 4.455-.529 8.28.492 8.28.492.019.225.04.465.06.719.415 4.913 1.264 14.977 6.162 17.68 2.276 1.257 4.207 1.232 6.913 1.197.472-.006.967-.013 1.492-.013v7.92zm0 0l.081.01c4.834-.01 13.864-.482 17.233-7.928 3.897-8.614 10.653-16.207 13.4-17.376 0 0-3.353-2.172-7.808-2.7-4.454-.529-8.279.492-8.279.492-.02.225-.04.465-.06.719-.415 4.913-1.264 14.977-6.162 17.68-2.277 1.257-4.207 1.232-6.913 1.197-.472-.006-.967-.013-1.492-.013v7.92z" fill="var(--svg-custom-color, #fff)" style="transition: var(--svg-custom-transition);"/><path d="M30.522 43.406s7.128-1.633 16.907-2.762c2.109 2.374 4.804 3.798 7.441 4.642 3.726 1.192 7.563 1.306 10.031 1.312h.176c2.468-.005 6.305-.12 10.03-1.312 2.616-.837 5.29-2.244 7.39-4.584 9.495 1.126 15.981 2.704 15.981 2.704 2.934 6.339 9.112 21.839 9.112 39.956 0 0-6.271 10.699-22.578 11.215 0 0-2.656-3.173-4.87-5.976 9.666-2.73 13.356-8.78 13.356-8.78-3.026 1.991-5.903 3.393-8.486 4.353-3.689 1.549-7.23 2.582-10.698 3.172-7.084 1.328-13.577.96-19.11-.074-4.206-.811-7.822-1.992-10.847-3.172-1.697-.664-3.541-1.476-5.386-2.509a2.81 2.81 0 00-.332-.184c-.11-.056-.222-.111-.332-.185a1.019 1.019 0 01-.295-.221c-1.328-.738-2.066-1.255-2.066-1.255s3.541 5.903 12.912 8.707c-2.214 2.804-4.944 6.124-4.944 6.124-16.306-.516-22.504-11.215-22.504-11.215 0-18.117 6.178-33.617 9.112-39.956zM75.27 26.34c-3.786-.416-7.404-.523-10.281-.445-2.877-.078-6.495.03-10.281.444.384 1.422.85 2.679 1.409 3.687.617 1.116 1.254 1.764 1.85 2.093 1.534.846 2.737.876 5.493.84h.007c.468-.006.979-.013 1.522-.013s1.054.007 1.521.013h.008c2.756.036 3.96.006 5.493-.84.596-.33 1.233-.977 1.85-2.093.558-1.008 1.025-2.265 1.41-3.687zm-34.408 3.221c-5.422 2.241-9.384 5.71-9.384 10.937 0 0 5.745-1.369 14.112-2.466a15.11 15.11 0 01-.522-1.045c-1.186-2.622-2.663-5.158-4.206-7.426zm43.526 8.471c8.366 1.097 14.112 2.466 14.112 2.466 0-5.227-3.963-8.696-9.384-10.937-1.543 2.268-3.02 4.804-4.206 7.426-.164.362-.338.71-.522 1.045z" fill="var(--svg-custom-color, #fff)" style="transition: var(--svg-custom-transition);"/></symbol><symbol fill="none" viewBox="0 0 129 128" id="scared" xmlns="http://www.w3.org/2000/svg" style="transition: var(--svg-custom-transition);"><path d="M50.526 60.273c-4.418 0-7.905 3.876-7.905 8.604s3.565 8.604 7.905 8.604c4.419 0 7.906-3.876 7.906-8.604.078-4.728-3.487-8.604-7.906-8.604z" fill="var(--svg-custom-color, #4F5660)" style="transition: var(--svg-custom-transition);"/><path fill-rule="evenodd" clip-rule="evenodd" d="M45.275 56.73c-4.524 1.862-7.683 6.619-7.683 12.147 0 5.536 3.238 10.297 7.749 12.155-2.944-3.077-4.786-7.396-4.786-12.155 0-4.755 1.799-9.071 4.72-12.148z" fill="var(--svg-custom-color, #4F5660)" style="transition: var(--svg-custom-transition);"/><path d="M78.819 60.273c4.418 0 7.906 3.876 7.906 8.604s-3.566 8.604-7.906 8.604c-4.418 0-7.906-3.876-7.906-8.604-.078-4.728 3.488-8.604 7.906-8.604z" fill="var(--svg-custom-color, #4F5660)" style="transition: var(--svg-custom-transition);"/><path fill-rule="evenodd" clip-rule="evenodd" d="M84.07 56.73c4.524 1.862 7.683 6.619 7.683 12.147 0 5.536-3.238 10.297-7.749 12.155 2.944-3.077 4.786-7.396 4.786-12.155 0-4.755-1.799-9.071-4.72-12.148z" fill="var(--svg-custom-color, #4F5660)" style="transition: var(--svg-custom-transition);"/></symbol><symbol fill="none" viewBox="0 0 129 128" id="scarred-laugh" xmlns="http://www.w3.org/2000/svg" style="transition: var(--svg-custom-transition);"><path fill-rule="evenodd" clip-rule="evenodd" d="M56.068 35.299a65.302 65.302 0 018.432-.549c2.96.002 5.793.203 8.432.549.406 0 .752.059 1.142.125l.078.014.096.016c2.707.232 9.283 1.237 17.56 4.873 2.863 1.316 4.565 2.244 4.565 2.244s-6.42-6.112-20.346-10.134l.773-.929s10.6-.232 21.74 8.123c0 0 11.139 20.192 11.139 45.102 0 0-6.498 11.218-23.595 11.76 0 0-2.862-3.482-5.183-6.422 4.519-1.173 8.077-2.76 10.873-4.578l4.11 3.932-1.961-5.49a21.736 21.736 0 003.862-4.013l4.444 1.709-3.154-3.7a19.785 19.785 0 001.724-4.038l3.684.09-3.172-2.176c.222-1.164.33-2.264.366-3.262l2.895-.633-2.902-1.163c-.091-2.053-.439-3.357-.439-3.357s.303 1.264.1 3.361l-2.945.645 2.686 1.076a19.03 19.03 0 01-.885 3.012l-3.704-.09 2.875 1.972a24.88 24.88 0 01-2.065 3.408l-4.21-1.618 2.86 3.355a34.88 34.88 0 01-3.385 3.49l-3.92-3.75 1.81 5.069a47.09 47.09 0 01-4.828 2.185c-3.172 1.238-6.963 2.476-11.372 3.327-2.999.56-6.266.933-9.748.971a56.488 56.488 0 01-9.748-.971c-4.41-.851-8.2-2.09-11.372-3.327a47.07 47.07 0 01-4.829-2.185l1.811-5.069-3.92 3.75a34.88 34.88 0 01-3.386-3.49l2.86-3.356-4.21 1.619a24.88 24.88 0 01-2.064-3.408l2.875-1.971-3.704.09a18.989 18.989 0 01-.885-3.013l2.686-1.076-2.945-.645c-.203-2.097.1-3.36.1-3.36s-.348 1.303-.44 3.356l-2.9 1.163 2.894.633c.036.998.144 2.098.366 3.262l-3.172 2.175 3.684-.089a19.769 19.769 0 001.724 4.038l-3.154 3.7 4.444-1.709a21.736 21.736 0 003.862 4.013l-1.962 5.49 4.111-3.932c2.796 1.819 6.354 3.405 10.873 4.578a485.207 485.207 0 01-5.183 6.421c-17.097-.541-23.595-11.759-23.595-11.759 0-24.91 11.14-45.102 11.14-45.102C41.6 31.276 52.2 31.508 52.2 31.508l.773.929C39.048 36.459 32.627 42.57 32.627 42.57s1.702-.928 4.564-2.243c8.278-3.637 14.854-4.642 17.561-4.874l.036-.006.138-.024c.39-.066.736-.125 1.142-.125z" fill="var(--svg-custom-color, #fff)" style="transition: var(--svg-custom-transition);"/></symbol><symbol fill="none" viewBox="0 0 128 128" id="sceptical" xmlns="http://www.w3.org/2000/svg" style="transition: var(--svg-custom-transition);"><path fill-rule="evenodd" clip-rule="evenodd" d="M72.204 58.875c-1.418 1.145-2.333 2.518-2.726 3.38l-2.339-.944c.534-1.174 1.673-2.856 3.41-4.257 1.752-1.415 4.162-2.58 7.193-2.58 3.026 0 5.49 1.16 7.312 2.561 1.808 1.39 3.042 3.06 3.643 4.224l-2.288 1.05c-.451-.874-1.461-2.26-2.964-3.415-1.49-1.146-3.405-2.022-5.703-2.022-2.293 0-4.136.872-5.538 2.003zM60.56 63.314c-8.957 3.476-17.086 1.478-20.174-.05l1.216-2.46c2.5 1.238 9.825 3.11 17.964-.048l.993 2.558z" fill="var(--svg-custom-color, #4F5660)" style="transition: var(--svg-custom-transition);"/><path d="M41.62 68.877c0 4.728 3.566 8.604 7.907 8.604 4.418 0 7.905-3.876 7.905-8.604.037-2.227-.735-4.265-2.024-5.798-1.446-1.721-3.181.798-5.518.798-2.495 0-5.057-2.367-6.498-.44-1.11 1.486-1.771 3.382-1.771 5.44zm36.197-8.604c-4.417 0-7.905 3.876-7.905 8.604s3.565 8.604 7.905 8.604c4.419 0 7.906-3.876 7.906-8.604s-3.487-8.603-7.906-8.603z" fill="var(--svg-custom-color, #4F5660)" style="transition: var(--svg-custom-transition);"/></symbol><symbol fill="none" viewBox="0 0 129 128" id="single-eye" xmlns="http://www.w3.org/2000/svg" style="transition: var(--svg-custom-transition);"><path fill-rule="evenodd" clip-rule="evenodd" d="M64.5 80.67c6.612 0 11.972-6.08 11.972-13.583 0-7.502-5.36-13.584-11.972-13.584-6.612 0-11.972 6.082-11.972 13.584s5.36 13.584 11.972 13.584zm-.23-13.813c2.925 0 5.296-2.68 5.296-5.986 0-3.306-2.371-5.986-5.296-5.986-2.924 0-5.295 2.68-5.295 5.986 0 3.306 2.37 5.986 5.295 5.986z" fill="var(--svg-custom-color, #4F5660)" style="transition: var(--svg-custom-transition);"/></symbol><symbol fill="none" viewBox="0 0 128 128" id="spider-eyes" xmlns="http://www.w3.org/2000/svg" style="transition: var(--svg-custom-transition);"><path d="M73.625 60.273c-4.418 0-7.906 3.876-7.906 8.604s3.565 8.604 7.906 8.604c4.418 0 7.906-3.876 7.906-8.604s-3.488-8.604-7.906-8.604zm-19.251 0c-4.418 0-7.906 3.876-7.906 8.604s3.566 8.604 7.906 8.604c4.418 0 7.906-3.876 7.906-8.604.078-4.728-3.488-8.604-7.906-8.604zm-17.061.731c-3.195 0-5.717 2.803-5.717 6.222 0 3.42 2.578 6.222 5.717 6.222 3.195 0 5.718-2.802 5.718-6.222.056-3.419-2.523-6.222-5.718-6.222zm53.372 0c-3.195 0-5.717 2.803-5.717 6.222 0 3.42 2.578 6.222 5.717 6.222 3.195 0 5.718-2.802 5.718-6.222.056-3.419-2.523-6.222-5.718-6.222z" fill="var(--svg-custom-color, #4F5660)" style="transition: var(--svg-custom-transition);"/></symbol><symbol fill="none" viewBox="0 0 128 128" id="squinting" xmlns="http://www.w3.org/2000/svg" style="transition: var(--svg-custom-transition);"><path d="M85.925 62.624l1.11 4.146-14.183 3.8-1.963-3.914 15.036-4.032z" fill="var(--svg-custom-color, #4F5660)" style="transition: var(--svg-custom-transition);"/><path d="M85.925 75.13l1.11-4.145-15.593-4.179-1.021 4.17 15.504 4.154z" fill="var(--svg-custom-color, #4F5660)" style="transition: var(--svg-custom-transition);"/><path fill-rule="evenodd" clip-rule="evenodd" d="M79.17 68.877l-8.29-2.221-1.522.407-.486 1.814.486 1.814 1.521.408 8.291-2.222z" fill="var(--svg-custom-color, #4F5660)" style="transition: var(--svg-custom-transition);"/><path fill-rule="evenodd" clip-rule="evenodd" d="M79.17 68.877l-8.29-2.221-1.522.407-.486 1.814.486 1.814 1.521.408 8.291-2.222z" fill="var(--svg-custom-color, #4F5660)" style="transition: var(--svg-custom-transition);"/><path d="M42.075 62.624l-1.11 4.146 14.183 3.8 1.963-3.914-15.036-4.032z" fill="var(--svg-custom-color, #4F5660)" style="transition: var(--svg-custom-transition);"/><path d="M42.075 75.13l-1.11-4.145 15.592-4.179 1.022 4.17-15.504 4.154z" fill="var(--svg-custom-color, #4F5660)" style="transition: var(--svg-custom-transition);"/><path fill-rule="evenodd" clip-rule="evenodd" d="M48.83 68.877l8.29-2.221 1.522.407.486 1.814-.486 1.814-1.522.408-8.29-2.222z" fill="var(--svg-custom-color, #4F5660)" style="transition: var(--svg-custom-transition);"/><path fill-rule="evenodd" clip-rule="evenodd" d="M48.83 68.877l8.29-2.221 1.522.407.486 1.814-.486 1.814-1.522.408-8.29-2.222z" fill="var(--svg-custom-color, #4F5660)" style="transition: var(--svg-custom-transition);"/></symbol><symbol fill="none" viewBox="0 0 128 128" id="star-eyes" xmlns="http://www.w3.org/2000/svg" style="transition: var(--svg-custom-transition);"><path d="M48.99 59.39a1 1 0 011.73 0l2.504 4.313a1 1 0 00.655.476l4.877 1.049a1 1 0 01.535 1.645l-3.33 3.715a1 1 0 00-.25.77l.51 4.962a1 1 0 01-1.4 1.017l-4.561-2.019a1 1 0 00-.81 0l-4.562 2.019a1 1 0 01-1.4-1.017l.51-4.962a1 1 0 00-.25-.77l-3.329-3.715a1 1 0 01.535-1.645l4.877-1.05a1 1 0 00.654-.475l2.505-4.314zm28.29 0a1 1 0 011.73 0l2.504 4.313a1 1 0 00.655.476l4.877 1.049a1 1 0 01.534 1.645l-3.329 3.715a1 1 0 00-.25.77l.51 4.962a1 1 0 01-1.4 1.017l-4.562-2.019a1 1 0 00-.809 0l-4.562 2.019a1 1 0 01-1.399-1.017l.51-4.962a1 1 0 00-.25-.77l-3.33-3.715a1 1 0 01.535-1.645l4.877-1.05a1 1 0 00.654-.475l2.505-4.314z" fill="var(--svg-custom-color, #4F5660)" style="transition: var(--svg-custom-transition);"/></symbol><symbol fill="none" viewBox="0 0 128 128" id="sunglasses" xmlns="http://www.w3.org/2000/svg" style="transition: var(--svg-custom-transition);"><path fill-rule="evenodd" clip-rule="evenodd" d="M63.43 64.75c-.834.073-1.525.325-1.845.491l-1.488-2.87c.687-.356 1.787-.73 3.052-.84 1.279-.112 2.828.04 4.304.864l-1.577 2.822c-.766-.428-1.625-.538-2.446-.466z" fill="var(--svg-custom-color, #4F5660)" style="transition: var(--svg-custom-transition);"/><path fill-rule="evenodd" clip-rule="evenodd" d="M42.493 58.553a5 5 0 00-5.215 4.996v6.962a5 5 0 005.849 4.927l15.847-2.73a4 4 0 003.32-3.942V62.28a3 3 0 00-2.87-2.997l-16.931-.73zm9.074 2.304a1.616 1.616 0 00-.167 3.228l6.923.357a1.616 1.616 0 10.166-3.228l-6.922-.357zm33.94-2.304a5 5 0 015.216 4.996v6.962a5 5 0 01-5.85 4.927l-15.847-2.73a4 4 0 01-3.32-3.942V62.28a3 3 0 012.87-2.997l16.931-.73zm-6.91 2.143a1.616 1.616 0 10.154 3.229l6.924-.331a1.616 1.616 0 00-.154-3.229l-6.924.331z" fill="var(--svg-custom-color, #4F5660)" style="transition: var(--svg-custom-transition);"/></symbol><symbol fill="none" viewBox="0 0 129 128" id="swirly-eyes" xmlns="http://www.w3.org/2000/svg" style="transition: var(--svg-custom-transition);"><path fill-rule="evenodd" clip-rule="evenodd" d="M92.392 69.376C92.21 63.6 86.624 58.5 80.885 58.682h-.047c-5.01 0-10.514 3.586-10.514 10.21 0 5.421 4.041 8.362 8.194 8.232 4.2-.146 7.31-3.137 7.182-7.174-.08-2.511-2.39-4.679-4.815-4.602-1.294.04-2.246.497-2.865 1.159-.62.662-1.02 1.652-.978 2.974.022.669.753 1.38 1.654 1.38.169 0 .45-.084.672-.277.184-.16.31-.377.299-.716a1.5 1.5 0 012.998-.095c.086 2.735-2.291 4.088-3.969 4.088-2.13 0-4.569-1.633-4.652-4.285-.063-1.998.548-3.796 1.785-5.118 1.237-1.323 2.984-2.046 4.962-2.109 4.118-.13 7.777 3.376 7.908 7.506.186 5.923-4.468 10.074-10.08 10.267h-.004c-5.662.179-11.291-3.935-11.291-11.23 0-8.692 7.286-13.198 13.49-13.21 7.34-.217 14.34 6.129 14.577 13.6a1.5 1.5 0 01-2.999.094zm-55.784 0c.183-5.776 5.768-10.875 11.507-10.694h.047c5.01 0 10.514 3.586 10.514 10.21 0 5.421-4.041 8.362-8.194 8.232-4.2-.146-7.31-3.137-7.182-7.174.08-2.511 2.39-4.679 4.815-4.602 1.294.04 2.246.497 2.865 1.159.62.662 1.02 1.652.978 2.974-.021.669-.753 1.38-1.654 1.38a1.12 1.12 0 01-.671-.277c-.184-.16-.31-.377-.3-.716a1.5 1.5 0 10-2.998-.095c-.086 2.735 2.291 4.088 3.97 4.088 2.13 0 4.568-1.633 4.651-4.285.063-1.998-.548-3.796-1.785-5.118-1.236-1.323-2.984-2.046-4.962-2.109-4.118-.13-7.777 3.376-7.907 7.506-.187 5.923 4.467 10.074 10.08 10.267h.004c5.662.179 11.29-3.935 11.29-11.23 0-8.692-7.286-13.198-13.49-13.21-7.34-.217-14.34 6.129-14.576 13.6a1.5 1.5 0 102.998.094z" fill="var(--svg-custom-color, #010202)" style="transition: var(--svg-custom-transition);"/></symbol><symbol fill="none" viewBox="0 0 128 128" id="thick" xmlns="http://www.w3.org/2000/svg" style="transition: var(--svg-custom-transition);"><path d="M85.507 96.492s-2.785-3.326-5.106-6.266l-1.686-2.291a47.304 47.304 0 01-4.426.976c-7.427 1.392-14.234 1.006-20.037-.077a61.775 61.775 0 01-4.79-1.126L47.6 90.072a485.207 485.207 0 01-5.183 6.421c-17.097-.541-23.595-11.759-23.595-11.759 0-24.91 11.14-45.102 11.14-45.102C41.1 31.276 51.7 31.508 51.7 31.508l.773.929 2.367 2.92c.236-.034.47-.058.728-.058a65.458 65.458 0 0115.627-.155c.587.068 1.178.145 1.772.23l2.25-2.628 1.084-1.238s10.598-.232 21.739 8.123c0 0 11.14 20.192 11.14 45.102 0 0-6.576 11.218-23.673 11.76z" fill="var(--svg-custom-color, #fff)" style="transition: var(--svg-custom-transition);"/></symbol><symbol fill="none" viewBox="0 0 128 128" id="thick-upside-down" xmlns="http://www.w3.org/2000/svg" style="transition: var(--svg-custom-transition);"><path d="M42.493 31.508s2.785 3.326 5.106 6.266l1.686 2.291a47.305 47.305 0 014.426-.976c7.427-1.392 14.235-1.006 20.037.077 1.687.326 3.284.708 4.79 1.126l1.863-2.363c2.32-2.94 5.183-6.421 5.183-6.421 17.097.541 23.596 11.759 23.596 11.759 0 24.91-11.14 45.102-11.14 45.102-11.14 8.355-21.74 8.123-21.74 8.123l-.773-.928-2.367-2.921a4.99 4.99 0 01-.727.058 65.457 65.457 0 01-15.628.155 65.696 65.696 0 01-1.771-.23l-2.251 2.628-1.083 1.238s-10.6.232-21.74-8.123c0 0-11.14-20.192-11.14-45.102 0 0 6.576-11.218 23.673-11.76z" fill="var(--svg-custom-color, #fff)" style="transition: var(--svg-custom-transition);"/></symbol><symbol fill="none" viewBox="0 0 128 128" id="third-eye" xmlns="http://www.w3.org/2000/svg" style="transition: var(--svg-custom-transition);"><path d="M49.855 62.593c-4.418 0-7.906 3.876-7.906 8.604s3.565 8.603 7.906 8.603c4.418 0 7.906-3.875 7.906-8.603.077-4.728-3.488-8.604-7.907-8.604zm28.29 0c-4.417 0-7.905 3.876-7.905 8.604s3.565 8.603 7.906 8.603c4.418 0 7.906-3.875 7.906-8.603s-3.489-8.604-7.907-8.604zM64 50.383c-4.419 0-7.907 3.875-7.907 8.603S59.66 67.59 64 67.59c4.419 0 7.906-3.876 7.906-8.604.078-4.728-3.487-8.603-7.906-8.603z" fill="var(--svg-custom-color, #4F5660)" style="transition: var(--svg-custom-transition);"/></symbol><symbol fill="none" viewBox="0 0 128 128" id="top-hat" xmlns="http://www.w3.org/2000/svg" style="transition: var(--svg-custom-transition);"><path d="M65.408 47.604c14.327 0 21.13-4.815 29.455-.61-1.826-1.618-3.62-3.124-5.687-4.503l2.524-2.846c3.22 1.747 5.202 3.284 5.202 3.284s10.533 15.139 12.401 44.856l-1.889 1.26-12.551-6.27-60.973-.99-11.814 8.844-3.38-2.844c1.813-29.717 12.346-44.856 12.346-44.856s1.931-1.534 5.177-3.284l2.319 3.05c-1.986 1.343-3.762 2.797-5.457 4.3 8.324-4.206 18 .609 32.327.609z" fill="var(--svg-custom-color, #fff)" style="transition: var(--svg-custom-transition);"/><path fill-rule="evenodd" clip-rule="evenodd" d="M43.672 33.457c.043.096.212.378.84.81.874.604 2.279 1.232 4.204 1.793 3.822 1.115 9.226 1.834 15.284 1.834s11.463-.719 15.285-1.834c1.925-.561 3.329-1.189 4.204-1.792.628-.433.797-.715.84-.81-.043-.096-.212-.378-.84-.81-.875-.604-2.28-1.232-4.204-1.794-3.822-1.114-9.227-1.833-15.285-1.833s-11.462.719-15.284 1.834c-1.925.56-3.33 1.189-4.204 1.792-.628.433-.797.715-.84.81zm3.86-6.658c4.305-1.255 10.126-2.002 16.468-2.002 6.342 0 12.164.747 16.468 2.002 2.137.624 4.021 1.407 5.419 2.37 1.332.92 2.677 2.333 2.677 4.288 0 1.956-1.345 3.37-2.677 4.288-1.398.964-3.282 1.747-5.42 2.37-4.303 1.256-10.125 2.003-16.467 2.003-6.342 0-12.163-.747-16.467-2.003-2.138-.623-4.022-1.406-5.42-2.37-1.331-.918-2.677-2.332-2.677-4.288 0-1.955 1.346-3.369 2.678-4.287 1.397-.964 3.281-1.747 5.419-2.37z" fill="var(--svg-custom-color, #fff)" style="transition: var(--svg-custom-transition);"/><path d="M31.223 42.857c.957-1.06 2.966-2.611 6.186-4.127a12.19 12.19 0 002.307 2.05c1.92 1.324 4.283 2.262 6.634 2.948C51.136 45.124 57.374 45.9 64 45.9c6.626 0 12.864-.776 17.65-2.172 2.351-.686 4.715-1.624 6.634-2.948a12.195 12.195 0 002.299-2.041c2.834 1.373 4.774 2.84 6.015 4.118l-1.027 6.53H32.91l-1.688-6.53z" fill="var(--svg-custom-color, #fff)" style="transition: var(--svg-custom-transition);"/><ellipse cx="64" cy="17.598" rx="16.996" ry="5.689" fill="var(--svg-custom-color, #fff)" style="transition: var(--svg-custom-transition);"/><path d="M64 34.666c10.752 0 19.468-2.548 19.468-5.69H44.532c0 3.142 8.716 5.69 19.468 5.69z" fill="var(--svg-custom-color, #fff)" style="transition: var(--svg-custom-transition);"/><path fill="var(--svg-custom-color, #fff)" d="M47.004 17.44h33.992v11.936H47.004zm38.556 82.1c17.144-.542 23.737-11.76 23.737-11.76L96.995 79.8l-65.109-1.489-13.19 9.47s6.516 11.217 23.66 11.759c0 0 2.87-3.481 5.196-6.421-9.85-2.94-13.574-9.129-13.574-9.129s.776.542 2.172 1.315c.077.078.155.155.31.232.116.078.233.136.35.194.115.058.232.116.348.193 1.94 1.083 3.878 1.934 5.663 2.63 3.18 1.238 6.98 2.476 11.402 3.327 5.818 1.083 12.644 1.47 20.09.077 3.646-.618 7.37-1.701 11.248-3.326 2.715-1.006 5.74-2.476 8.92-4.565 0 0-3.878 6.344-14.04 9.207 2.327 2.94 5.12 6.266 5.12 6.266z" style="transition: var(--svg-custom-transition);"/></symbol><symbol fill="none" viewBox="0 0 128 129" id="tounge-shape" xmlns="http://www.w3.org/2000/svg" style="transition: var(--svg-custom-transition);"><path fill-rule="evenodd" clip-rule="evenodd" d="M18.82 84.7s6.505 7.526 23.596 11.759c2.283.854 5.836 1.823 10.234 2.504a11.634 11.634 0 01-.261-2.458v-5.267c-2.903-.719-5.257-1.616-6.866-2.431l1.355-2.676c5.126 2.595 19.348 6.344 34.192-.04l1.186 2.756a45.982 45.982 0 01-6.645 2.275v5.383c0 .842-.09 1.663-.26 2.454a62.856 62.856 0 0010.156-2.5c18.175-4.755 23.673-11.76 23.673-11.76 0-24.91-11.14-45.101-11.14-45.101-11.14-8.356-21.74-8.123-21.74-8.123l-1.082 1.237c13.151 4.023 19.263 9.825 19.263 9.825-8.046-4.41-15.937-6.575-23.286-7.426a65.458 65.458 0 00-15.627.154c-.405 0-.752.06-1.142.126l-.174.029c-2.707.232-9.283 1.238-17.56 4.874-2.863 1.315-4.565 2.243-4.565 2.243s6.42-6.111 20.346-10.134l-.773-.928s-10.6-.233-21.74 8.123c0 0-11.14 20.191-11.14 45.102zm43.68 8.084v4.599a1.5 1.5 0 103 0v-4.61a47.143 47.143 0 007.111-.79v4.522a8.612 8.612 0 01-17.222 0v-4.442a48.3 48.3 0 007.111.72z" fill="var(--svg-custom-color, #fff)" style="transition: var(--svg-custom-transition);"/></symbol><symbol fill="none" viewBox="0 0 128 129" id="triangle-hair" xmlns="http://www.w3.org/2000/svg" style="transition: var(--svg-custom-transition);"><path fill-rule="evenodd" clip-rule="evenodd" d="M101.434 46.94l-8.407-16.7-9.077 8.26-10.245-11.26L64.03 38.5 53.35 27.24 43.003 38.5l-8.005-8.26-7.725 15.309a5.576 5.576 0 00-.18.16c-3.302 7.816-8.272 24.35-8.272 40.99 0 0 6.498 11.218 23.595 11.76 0 0 2.862-3.481 5.183-6.421-9.825-2.94-13.538-9.129-13.538-9.129s.773.541 2.166 1.315c.077.078.155.155.31.232.116.078.232.136.348.194.116.058.232.116.348.193 1.934 1.083 3.868 1.934 5.647 2.63 3.172 1.238 6.963 2.476 11.372 3.327 5.803 1.083 12.61 1.47 20.037.077 3.636-.619 7.35-1.702 11.218-3.326 2.707-1.006 5.725-2.476 8.896-4.565 0 0-3.868 6.344-14.002 9.206 2.32 2.94 5.106 6.267 5.106 6.267 17.097-.542 23.673-11.76 23.673-11.76 0-15.801-4.483-31.704-7.761-39.758h.015z" fill="var(--svg-custom-color, #fff)" style="transition: var(--svg-custom-transition);"/></symbol><symbol fill="none" viewBox="0 0 129 129" id="vampire" xmlns="http://www.w3.org/2000/svg" style="transition: var(--svg-custom-transition);"><path fill-rule="evenodd" clip-rule="evenodd" d="M86.007 96.526S83.222 93.2 80.9 90.26c2.921-.825 5.322-1.94 7.26-3.108l3.538 6.87 2.943-12.584c.177-.246.261-.384.261-.384-3.171 2.088-6.189 3.558-8.896 4.564-3.868 1.625-7.582 2.708-11.218 3.327-7.427 1.392-14.234 1.005-20.037-.078-4.41-.85-8.2-2.089-11.372-3.326-1.78-.697-3.713-1.548-5.647-2.63a3.12 3.12 0 00-.348-.194 3.286 3.286 0 01-.349-.193 1.07 1.07 0 01-.309-.233c-1.392-.773-2.166-1.315-2.166-1.315s.058.097.178.27l-.003-.001 2.988 12.777 3.56-6.911c1.836 1.114 4.09 2.179 6.815 2.994a485.207 485.207 0 01-5.183 6.421C25.818 95.985 19.32 84.767 19.32 84.767c0-24.91 11.14-45.102 11.14-45.102C41.6 31.31 52.2 31.542 52.2 31.542l.773.928c-13.925 4.023-20.346 10.135-20.346 10.135s1.702-.929 4.564-2.244c8.278-3.636 14.854-4.642 17.561-4.874l.174-.029c.39-.066.736-.125 1.142-.125a65.458 65.458 0 0115.627-.155c7.35.85 15.24 3.017 23.286 7.427 0 0-6.112-5.802-19.263-9.825l1.083-1.238s10.598-.232 21.739 8.123c0 0 11.14 20.191 11.14 45.102 0 0-6.576 11.218-23.673 11.76z" fill="var(--svg-custom-color, #fff)" style="transition: var(--svg-custom-transition);"/></symbol><symbol fill="none" viewBox="0 0 129 129" id="vampire-ears" xmlns="http://www.w3.org/2000/svg" style="transition: var(--svg-custom-transition);"><path fill-rule="evenodd" clip-rule="evenodd" d="M86.007 96.526S83.222 93.2 80.9 90.26c2.921-.825 5.322-1.94 7.26-3.108l3.538 6.87 2.943-12.584c.177-.246.261-.384.261-.384-3.171 2.088-6.189 3.558-8.896 4.564-3.868 1.625-7.582 2.708-11.218 3.327-7.427 1.392-14.234 1.005-20.037-.078-4.41-.85-8.2-2.089-11.372-3.326-1.78-.697-3.713-1.548-5.647-2.63a3.12 3.12 0 00-.348-.194 3.286 3.286 0 01-.349-.193 1.07 1.07 0 01-.309-.233c-1.392-.773-2.166-1.315-2.166-1.315s.058.097.178.27l-.003-.001 2.988 12.777 3.56-6.911c1.836 1.114 4.09 2.179 6.815 2.994a485.207 485.207 0 01-5.183 6.421C25.818 95.985 19.32 84.767 19.32 84.767c0-24.91 11.14-45.102 11.14-45.102C41.6 31.31 52.2 31.542 52.2 31.542l.773.928c-13.925 4.023-20.346 10.135-20.346 10.135s1.702-.929 4.564-2.244c8.278-3.636 14.854-4.642 17.561-4.874l.174-.029c.39-.066.736-.125 1.142-.125a65.458 65.458 0 0115.627-.155c7.35.85 15.24 3.017 23.286 7.427 0 0-6.112-5.802-19.263-9.825l1.083-1.238s10.598-.232 21.739 8.123c0 0 11.14 20.191 11.14 45.102 0 0-6.576 11.218-23.673 11.76zm-65.543-38.7c-1.853-5.55-4.48-12.125-7.496-16.625-4.205-6.277-2.124 5.361-.613 13.818.63 3.516 1.16 6.482 1.099 7.383-.547 8.172 1.02 11.096 3.923 10.349a106.359 106.359 0 013.087-14.925zm-4.16 6.015c-.518.444-.896.134-.789-1.748.04-.698.077-1.346.077-1.786 0-1.121-.216-2.766-.45-4.55-.052-.399-.105-.803-.156-1.211.381-2.01 2.51 2.759 2.612 3.977.101 1.218-.585 4.71-1.295 5.318zm92.232-6.015c1.853-5.55 4.48-12.125 7.496-16.625 4.205-6.277 2.125 5.361.612 13.818-.628 3.516-1.158 6.482-1.098 7.383.547 8.172-1.021 11.096-3.923 10.349a106.361 106.361 0 00-3.087-14.925zm4.161 6.015c.517.444.895.134.788-1.748a36.463 36.463 0 01-.077-1.786c0-1.121.216-2.766.449-4.55.053-.399.106-.803.157-1.211-.381-2.01-2.51 2.759-2.612 3.977-.101 1.218.585 4.71 1.295 5.318z" fill="var(--svg-custom-color, #fff)" style="transition: var(--svg-custom-transition);"/></symbol><symbol fill="none" viewBox="0 0 129 128" id="wink" xmlns="http://www.w3.org/2000/svg" style="transition: var(--svg-custom-transition);"><path d="M86.06 62.624l1.111 4.146-14.183 3.8-1.963-3.914 15.035-4.032z" fill="var(--svg-custom-color, #4F5660)" style="transition: var(--svg-custom-transition);"/><path d="M86.06 75.13l1.111-4.145-15.593-4.179-1.022 4.17L86.06 75.13z" fill="var(--svg-custom-color, #4F5660)" style="transition: var(--svg-custom-transition);"/><path fill-rule="evenodd" clip-rule="evenodd" d="M79.306 68.877l-8.29-2.221-1.522.407-.486 1.814.486 1.814 1.521.408 8.291-2.222z" fill="var(--svg-custom-color, #4F5660)" style="transition: var(--svg-custom-transition);"/><path fill-rule="evenodd" clip-rule="evenodd" d="M79.306 68.877l-8.29-2.221-1.522.407-.486 1.814.486 1.814 1.521.408 8.291-2.222z" fill="var(--svg-custom-color, #4F5660)" style="transition: var(--svg-custom-transition);"/><path d="M49.734 60.273c-4.418 0-7.905 3.876-7.905 8.604s3.565 8.604 7.905 8.604c4.419 0 7.907-3.876 7.907-8.604.077-4.728-3.488-8.603-7.907-8.603z" fill="var(--svg-custom-color, #4F5660)" style="transition: var(--svg-custom-transition);"/></symbol></svg>