<svg xmlns="http://www.w3.org/2000/svg" xmlns:xlink="http://www.w3.org/1999/xlink"><symbol fill="none" viewBox="0 0 128 129" id="8-bit-shades" xmlns="http://www.w3.org/2000/svg" style="transition: var(--svg-custom-transition);"><path fill-rule="evenodd" clip-rule="evenodd" d="M89.47 60.966H38.53V63.7h2.049v2.736h2.049v2.736h2.05v2.735h2.049v2.736h8.49v-2.736h2.05v-2.736h2.049v-2.735h1.756V63.7h5.856v2.736h1.756v2.736h2.05v2.735h2.05v2.736h8.49v-2.736h2.049v-2.735h2.049v-2.736h2.05V63.7h2.049v-2.735zm-20.493 2.736h2.05v2.735h2.049v-2.735h2.05v2.735h2.048v2.736h2.05v2.735h-2.05v-2.735h-2.049v2.735h-2.05v-2.735h-2.049v-2.736h-2.049v-2.735zm6.148 2.735v2.736h-2.05v-2.736h2.05zm-32.204-2.735h2.05v2.735h-2.05v-2.735zm6.148 0h-2.05v2.735H44.97v2.736h2.05v2.735h2.049v-2.735h2.05v2.735h2.049v-2.735h-2.05v-2.736H49.07v-2.735zm0 5.47v-2.735h-2.05v2.736h2.05z" fill="var(--svg-custom-color, #4F5660)" style="transition: var(--svg-custom-transition);"/></symbol><symbol fill="none" viewBox="0 0 128 128" id="alien" xmlns="http://www.w3.org/2000/svg" style="transition: var(--svg-custom-transition);"><path fill-rule="evenodd" clip-rule="evenodd" d="M46.886 30.908c.794 2.251 1.13 4.48 1.196 5.887l-2.928.136c-.053-1.147-.34-3.09-1.032-5.048-.697-1.977-1.744-3.796-3.203-4.905l1.773-2.333c2.106 1.6 3.406 4.03 4.194 6.263zm34.228 0c-.794 2.251-1.13 4.48-1.196 5.887l2.928.136c.053-1.147.34-3.09 1.032-5.048.697-1.977 1.744-3.796 3.203-4.905l-1.773-2.333c-2.106 1.6-3.406 4.03-4.194 6.263z" fill="var(--svg-custom-color, #fff)" style="transition: var(--svg-custom-transition);"/><path d="M46.618 25.812a4.077 4.077 0 11-8.154 0 4.077 4.077 0 018.154 0zm34.764 0a4.077 4.077 0 108.154 0 4.077 4.077 0 00-8.154 0zM90.68 39.75a63.576 63.576 0 00-15.858-4.879 43.574 43.574 0 00-2.031 4.13 59.06 59.06 0 00-17.6 0 43.755 43.755 0 00-2.031-4.13 64.021 64.021 0 00-15.87 4.891C27.252 54.611 24.531 69.091 25.892 83.365a63.924 63.924 0 0019.45 9.764 46.971 46.971 0 004.165-6.717 41.363 41.363 0 01-6.56-3.132 74.83 74.83 0 001.608-1.209 45.688 45.688 0 0038.887 0 22.8 22.8 0 001.609 1.21 41.527 41.527 0 01-6.572 3.137 46.557 46.557 0 004.165 6.711c7-2.11 13.584-5.412 19.462-9.758 1.596-16.554-2.727-30.9-11.427-43.621z" fill="var(--svg-custom-color, #fff)" style="transition: var(--svg-custom-transition);"/><path fill-rule="evenodd" clip-rule="evenodd" d="M37.306 39.757c9.15-4.222 19.262-5.936 26.694-5.936 7.432 0 17.545 1.714 26.694 5.936l.243 1.931L64 40.362l-26.937 1.326.243-1.93z" fill="var(--svg-custom-color, #fff)" style="transition: var(--svg-custom-transition);"/></symbol><symbol fill="none" viewBox="0 0 128 128" id="american-indian" xmlns="http://www.w3.org/2000/svg" style="transition: var(--svg-custom-transition);"><path fill-rule="evenodd" clip-rule="evenodd" d="M49.649 25.03c-1.549-5.045-4.682-8.488-7.084-10.11-3.14 4.123-6.622 14.512 1.672 25.722l5.043-.983c.358 1.399 2.453-.838 3.05.672 2.964-2.649 3.475-1.65 4.97-4.286 5.1-8.997 2.726-17.337.283-21.054C55 16.485 51.508 19.853 49.65 25.03zm-2.35 12.612L43.816 23.47l6.343 10.883 5.489-10.883-2.203 13.487c-.235.03.411-.044 0 0-1.921.207-4.382.08-6.144.686z" fill="var(--svg-custom-color, #fff)" style="transition: var(--svg-custom-transition);"/><path fill-rule="evenodd" clip-rule="evenodd" d="M90.726 40.817l-.03-.044-.002-.016-.013-.006v-.001a59.507 59.507 0 00-3.388-1.434 63.578 63.578 0 00-8.445-2.63C73.473 35.393 68.29 34.822 64 34.822c-4.296 0-9.488.573-14.871 1.871a64.018 64.018 0 00-11.84 4.07 9.06 9.06 0 01-.034.051c6.863 1.253 16.289 2.04 26.745 2.04 10.447 0 19.864-.785 26.726-2.036zM35.667 43.26c-3.526 5.66-6.01 11.27-7.632 16.834l10.195 2.257-11.382 2.52a61.37 61.37 0 00-.236 1.203l9.618 2.129-10.27 2.273c-.52 4.655-.506 9.282-.067 13.889a63.922 63.922 0 0019.45 9.764 46.971 46.971 0 004.165-6.717 41.363 41.363 0 01-6.56-3.132 74.83 74.83 0 001.608-1.209 45.688 45.688 0 0038.887 0c.526.43 1.064.84 1.609 1.21a41.527 41.527 0 01-6.572 3.137 46.557 46.557 0 004.165 6.711c7-2.11 13.584-5.412 19.462-9.758.464-4.814.428-9.441-.071-13.896L91.77 68.203l9.613-2.128a59.791 59.791 0 00-.235-1.206L89.77 62.351l10.196-2.257c-1.719-5.919-4.3-11.517-7.64-16.833-7.154 1.413-17.2 2.291-28.326 2.291-11.128 0-21.177-.879-28.333-2.292z" fill="var(--svg-custom-color, #fff)" style="transition: var(--svg-custom-transition);"/></symbol><symbol fill="none" viewBox="0 0 128 128" id="angel" xmlns="http://www.w3.org/2000/svg" style="transition: var(--svg-custom-transition);"><path d="M46.853 36.282c6.185-1.716 12.248-2.461 17.147-2.461 5.019 0 11.26.781 17.601 2.59l-13.733 2.965H64l-4.866-.203-12.28-2.89z" fill="var(--svg-custom-color, #fff)" style="transition: var(--svg-custom-transition);"/><path fill-rule="evenodd" clip-rule="evenodd" d="M47.17 31.928c-.832.59-.914.98-.914 1.092 0 .112.082.502.914 1.091.796.564 2.038 1.128 3.7 1.626 3.304.99 7.953 1.622 13.147 1.622s9.843-.633 13.147-1.622c1.661-.498 2.904-1.062 3.7-1.626.832-.59.914-.979.914-1.091 0-.113-.082-.502-.915-1.092-.795-.563-2.038-1.128-3.699-1.625-3.304-.99-7.953-1.623-13.147-1.623s-9.843.633-13.147 1.623c-1.662.497-2.904 1.062-3.7 1.625zm2.896-4.308c3.63-1.087 8.563-1.74 13.95-1.74 5.389 0 10.321.653 13.952 1.74 1.806.541 3.37 1.213 4.513 2.023 1.107.784 2.097 1.905 2.097 3.377 0 1.472-.99 2.592-2.097 3.376-1.143.81-2.707 1.482-4.513 2.023-3.631 1.088-8.563 1.74-13.951 1.74s-10.32-.652-13.95-1.74c-1.807-.541-3.371-1.213-4.515-2.023-1.106-.784-2.096-1.904-2.096-3.376s.99-2.593 2.096-3.377c1.144-.81 2.708-1.482 4.514-2.023z" fill="var(--svg-custom-color, #fff)" style="transition: var(--svg-custom-transition);"/><path fill-rule="evenodd" clip-rule="evenodd" d="M42.443 37.67c.464.48.947.871 1.376 1.174 1.516 1.074 3.424 1.861 5.386 2.449 3.98 1.192 9.216 1.866 14.812 1.866s10.831-.674 14.812-1.866c1.962-.588 3.87-1.375 5.386-2.449a9.725 9.725 0 001.368-1.166 63.594 63.594 0 015.097 2.072l.001.001.013.006.002.016c8.69 12.715 13.006 27.054 11.411 43.598a63.633 63.633 0 01-19.462 9.758 46.557 46.557 0 01-4.165-6.71 41.527 41.527 0 006.572-3.139 22.8 22.8 0 01-1.609-1.209 45.688 45.688 0 01-38.887 0c-.52.4-1.058.81-1.608 1.21a41.363 41.363 0 006.56 3.131 46.971 46.971 0 01-4.166 6.717 63.924 63.924 0 01-19.45-9.764C24.533 69.09 27.254 54.61 37.29 39.762a63.727 63.727 0 015.154-2.092z" fill="var(--svg-custom-color, #fff)" style="transition: var(--svg-custom-transition);"/></symbol><symbol fill="none" viewBox="0 0 129 129" id="angry" xmlns="http://www.w3.org/2000/svg" style="transition: var(--svg-custom-transition);"><path fill-rule="evenodd" clip-rule="evenodd" d="M46.445 62.593c-.919 1.327-1.459 2.993-1.459 4.795 0 4.297 3.18 7.79 7.028 7.79 3.689 0 6.59-3.091 6.978-7.034-5.145-1.236-9.519-3.204-12.547-5.552zm37.021 0c.918 1.327 1.458 2.993 1.458 4.795 0 4.297-3.18 7.79-7.028 7.79-3.689 0-6.59-3.091-6.978-7.034 5.145-1.236 9.52-3.204 12.548-5.552z" fill="var(--svg-custom-color, #4F5660)" style="transition: var(--svg-custom-transition);"/></symbol><symbol fill="none" viewBox="0 0 128 129" id="angry-brows" xmlns="http://www.w3.org/2000/svg" style="transition: var(--svg-custom-transition);"><path d="M44.015 67.388c0 4.297 3.18 7.789 7.028 7.789 3.922 0 6.954-3.492 7.021-7.789.068-4.296-3.087-7.82-7.033-7.82-3.947 0-7.016 3.524-7.016 7.82zm25.932 0c0 4.297 3.167 7.789 7.021 7.789 3.922 0 6.948-3.492 7.016-7.789.067-4.296-3.063-7.82-7.016-7.82-3.952 0-7.021 3.524-7.021 7.82z" fill="var(--svg-custom-color, #4F5660)" style="transition: var(--svg-custom-transition);"/><path fill="var(--svg-custom-color, #4F5660)" d="M61.87 61.536l-20.31-6.02-.617 2.086 20.31 6.02z" style="transition: var(--svg-custom-transition);"/><path fill="var(--svg-custom-color, #4F5660)" d="M61.87 61.536l-20.31-6.02-.617 2.086 20.31 6.02zm4.26 0l20.31-6.02.618 2.085-20.31 6.02z" style="transition: var(--svg-custom-transition);"/><path fill="var(--svg-custom-color, #4F5660)" d="M66.13 61.536l20.31-6.02.618 2.085-20.31 6.02z" style="transition: var(--svg-custom-transition);"/></symbol><symbol fill="none" viewBox="0 0 128 129" id="annoyed" xmlns="http://www.w3.org/2000/svg" style="transition: var(--svg-custom-transition);"><path fill-rule="evenodd" clip-rule="evenodd" d="M44.015 66.373v.015c0 4.297 3.18 7.79 7.028 7.79 3.922 0 6.954-3.493 7.021-7.79v-.015H44.016zm25.932 0v.015c0 4.297 3.18 7.79 7.028 7.79 3.922 0 6.954-3.493 7.021-7.79v-.015h-14.05z" fill="var(--svg-custom-color, #4F5660)" style="transition: var(--svg-custom-transition);"/></symbol><symbol fill="none" viewBox="0 0 128 128" id="base-eyes" xmlns="http://www.w3.org/2000/svg" style="transition: var(--svg-custom-transition);"><path d="M44.015 66.888c0 4.297 3.18 7.79 7.028 7.79 3.922 0 6.954-3.493 7.021-7.79.068-4.296-3.087-7.82-7.033-7.82-3.947 0-7.016 3.524-7.016 7.82zm25.932 0c0 4.297 3.167 7.79 7.021 7.79 3.922 0 6.948-3.493 7.016-7.79.067-4.296-3.063-7.82-7.016-7.82-3.952 0-7.021 3.524-7.021 7.82z" fill="var(--svg-custom-color, #4F5660)" style="transition: var(--svg-custom-transition);"/></symbol><symbol fill="none" viewBox="0 0 128 128" id="base-shape" xmlns="http://www.w3.org/2000/svg" style="transition: var(--svg-custom-transition);"><path d="M90.68 39.75a63.576 63.576 0 00-15.858-4.879 43.574 43.574 0 00-2.031 4.13 59.06 59.06 0 00-17.6 0 43.755 43.755 0 00-2.031-4.13 64.021 64.021 0 00-15.87 4.891C27.252 54.611 24.531 69.091 25.892 83.365a63.924 63.924 0 0019.45 9.764 46.971 46.971 0 004.165-6.717 41.363 41.363 0 01-6.56-3.132 74.83 74.83 0 001.608-1.209 45.688 45.688 0 0038.887 0 22.8 22.8 0 001.609 1.21 41.527 41.527 0 01-6.572 3.137 46.557 46.557 0 004.165 6.711c7-2.11 13.584-5.412 19.462-9.758 1.596-16.554-2.727-30.9-11.427-43.621z" fill="var(--svg-custom-color, #fff)" style="transition: var(--svg-custom-transition);"/></symbol><symbol fill="none" viewBox="0 0 128 128" id="base-upside-down" xmlns="http://www.w3.org/2000/svg" style="transition: var(--svg-custom-transition);"><path d="M37.32 88.25a63.576 63.576 0 0015.858 4.879 43.574 43.574 0 002.031-4.13 59.06 59.06 0 0017.6 0 43.755 43.755 0 002.031 4.13 64.021 64.021 0 0015.87-4.891c10.037-14.849 12.758-29.329 11.397-43.603a63.92 63.92 0 00-19.45-9.764 46.971 46.971 0 00-4.165 6.717 41.36 41.36 0 016.56 3.132c-.55.399-1.088.81-1.608 1.209a45.688 45.688 0 00-38.887 0 22.77 22.77 0 00-1.609-1.21 41.527 41.527 0 016.572-3.137 46.557 46.557 0 00-4.165-6.711 63.633 63.633 0 00-19.462 9.758c-1.596 16.554 2.727 30.9 11.427 43.621z" fill="var(--svg-custom-color, #fff)" style="transition: var(--svg-custom-transition);"/></symbol><symbol fill="none" viewBox="0 0 128 128" id="bunny" xmlns="http://www.w3.org/2000/svg" style="transition: var(--svg-custom-transition);"><path fill-rule="evenodd" clip-rule="evenodd" d="M72.793 40.996c9.79 1.372 18.57 4.475 20.759 5.286 6.759 11.576 9.964 24.472 8.555 39.089a63.633 63.633 0 01-19.462 9.758 46.557 46.557 0 01-4.165-6.71 41.527 41.527 0 006.572-3.139 22.8 22.8 0 01-1.609-1.209 45.688 45.688 0 01-38.887 0c-.52.4-1.058.81-1.608 1.21a41.363 41.363 0 006.56 3.131 46.977 46.977 0 01-4.166 6.717 63.924 63.924 0 01-19.45-9.764c-1.221-12.823.85-25.81 8.558-39.083 2.191-.812 10.96-3.91 20.74-5.284l.001.002.25-.037c2.12-.29 4.285-.499 6.44-.584a59.069 59.069 0 014.422.007c1.99.086 3.99.275 5.953.536l.535.078c0-.001 0-.003.002-.004z" fill="var(--svg-custom-color, #fff)" style="transition: var(--svg-custom-transition);"/><path d="M46.931 13.394c14.784-2.962 15.66 20.517 14.013 29.167L49.22 43.9c-6.982-9.934-13.942-28.171-2.288-30.506zm34.138 0C66.285 10.432 65.409 33.91 67.056 42.56L78.78 43.9c6.981-9.934 13.942-28.171 2.288-30.506z" fill="var(--svg-custom-color, #fff)" style="transition: var(--svg-custom-transition);"/><path fill-rule="evenodd" clip-rule="evenodd" d="M64.922 90.874a46.75 46.75 0 008.192-.792v5.136s-2.226.45-4.096.45-4.096-.45-4.096-.45v-4.344zm-10.036-.95l.426.084.01.002c2.398.447 4.996.762 7.756.844v4.364s-2.226.45-4.096.45-4.096-.45-4.096-.45v-5.294z" fill="var(--svg-custom-color, #fff)" style="transition: var(--svg-custom-transition);"/></symbol><symbol fill="none" viewBox="0 0 128 128" id="cap" xmlns="http://www.w3.org/2000/svg" style="transition: var(--svg-custom-transition);"><path fill-rule="evenodd" clip-rule="evenodd" d="M63.893 39.383c-18.22 0-27.126 11.013-29.227 15.995a2.91 2.91 0 11-5.362-2.261c2.896-6.868 13.749-19.553 34.589-19.553 20.834 0 31.82 12.676 34.791 19.526a2.91 2.91 0 01-5.338 2.315c-2.169-5-11.227-16.023-29.453-16.023z" fill="var(--svg-custom-color, #fff)" style="transition: var(--svg-custom-transition);"/><path fill-rule="evenodd" clip-rule="evenodd" d="M63.893 42.575c-17.123 0-25.211 10.314-26.978 14.503a5.35 5.35 0 01-8.536 1.876c-2.676 8.563-3.286 17.023-2.486 25.41a63.924 63.924 0 0019.45 9.765 46.977 46.977 0 004.165-6.717 41.372 41.372 0 01-6.56-3.132 74.83 74.83 0 001.608-1.209 45.69 45.69 0 0038.887 0 22.8 22.8 0 001.609 1.21 41.536 41.536 0 01-6.572 3.137 46.557 46.557 0 004.165 6.711c7-2.11 13.584-5.412 19.462-9.758.878-9.109-.036-17.55-2.485-25.418a5.35 5.35 0 01-8.516-1.825c-1.832-4.223-10.079-14.553-27.213-14.553z" fill="var(--svg-custom-color, #fff)" style="transition: var(--svg-custom-transition);"/><path fill-rule="evenodd" clip-rule="evenodd" d="M32.365 43.386c2.45-12.749 15.668-22.488 31.606-22.488 15.95 0 29.175 9.754 31.611 22.517-6.024-6.525-16.404-13.006-31.69-13.006-15.251 0-25.558 6.454-31.527 12.977zm26.59-24.749a5.22 5.22 0 0110.092.008 40.834 40.834 0 00-10.092-.008z" fill="var(--svg-custom-color, #fff)" style="transition: var(--svg-custom-transition);"/></symbol><symbol fill="none" viewBox="0 0 128 128" id="cat" xmlns="http://www.w3.org/2000/svg" style="transition: var(--svg-custom-transition);"><path fill-rule="evenodd" clip-rule="evenodd" d="M35.706 24.525l-2.299 21.6.01-.002c-4.731 8.713-7.07 17.305-7.683 25.811l12.443 2.515-12.595.718a68.633 68.633 0 00.11 5.63l11.737-.813-11.383 3.494a63.925 63.925 0 0019.296 9.651 46.971 46.971 0 004.166-6.717 41.363 41.363 0 01-6.56-3.132 74.83 74.83 0 001.608-1.209 45.688 45.688 0 0038.887 0c.526.43 1.064.84 1.609 1.21a41.527 41.527 0 01-6.572 3.137 46.557 46.557 0 004.165 6.711 63.628 63.628 0 0019.314-9.65l-11.388-3.495 11.738.812c.114-1.906.15-3.782.108-5.63l-12.594-.717 12.44-2.514c-.677-9.304-3.345-17.866-7.672-25.81h.002l-2.3-21.6-18.218 12.489a33.03 33.03 0 014.605 1.506 41.401 41.401 0 016.56 3.132c-.55.399-1.089.81-1.609 1.209a45.69 45.69 0 00-38.887 0 22.98 22.98 0 00-1.608-1.21 41.521 41.521 0 016.572-3.137c1.105-.448 2.61-.936 4.41-1.368L35.705 24.525z" fill="var(--svg-custom-color, #fff)" style="transition: var(--svg-custom-transition);"/></symbol><symbol fill="none" viewBox="0 0 128 129" id="cat-eyes" xmlns="http://www.w3.org/2000/svg" style="transition: var(--svg-custom-transition);"><path fill-rule="evenodd" clip-rule="evenodd" d="M43.932 67.373c0-4.811 3.549-8.755 8.044-8.755 4.496 0 8.124 3.944 8.045 8.755 0 4.811-3.549 8.755-8.044 8.755-4.417 0-8.045-3.944-8.045-8.755zm8.895-5.1c-1.598 1.53-3.835 5.712 0 10.2 3.835-4.488 1.598-8.67 0-10.2zm15.15 5.1c0-4.811 3.55-8.755 8.045-8.755 4.496 0 8.124 3.944 8.045 8.755 0 4.811-3.55 8.755-8.045 8.755-4.417 0-8.045-3.944-8.045-8.755zm6.917-5.1c-1.598 1.53-3.835 5.712 0 10.2 3.835-4.488 1.598-8.67 0-10.2z" fill="var(--svg-custom-color, #4F5660)" style="transition: var(--svg-custom-transition);"/></symbol><symbol fill="none" viewBox="0 0 128 129" id="chubby" xmlns="http://www.w3.org/2000/svg" style="transition: var(--svg-custom-transition);"><path fill-rule="evenodd" clip-rule="evenodd" d="M41.855 69.683c5 1.404 8.923 4.141 12.145 7.843 4.016-1.344 6.947-5.56 6.947-10.551 0-6.074-4.34-10.999-9.694-10.999-5.354 0-9.694 4.925-9.694 10.999 0 .935.103 1.842.296 2.708zm13.31 1.29c1.952 0 3.535-1.79 3.535-3.998s-1.583-3.997-3.536-3.997c-1.952 0-3.536 1.79-3.536 3.997 0 2.208 1.584 3.997 3.536 3.997zm30.98-1.29c-5 1.404-8.923 4.141-12.145 7.843-4.016-1.344-6.947-5.56-6.947-10.551 0-6.074 4.34-10.999 9.694-10.999 5.354 0 9.694 4.925 9.694 10.999 0 .935-.103 1.842-.296 2.708zm-13.31 1.29c-1.952 0-3.535-1.79-3.535-3.998s1.583-3.997 3.535-3.997c1.953 0 3.537 1.79 3.537 3.997 0 2.208-1.584 3.997-3.537 3.997z" fill="var(--svg-custom-color, #4F5660)" style="transition: var(--svg-custom-transition);"/></symbol><symbol fill="none" viewBox="0 0 128 128" id="chubby-shape" xmlns="http://www.w3.org/2000/svg" style="transition: var(--svg-custom-transition);"><path fill-rule="evenodd" clip-rule="evenodd" d="M55.243 39a58.358 58.358 0 0117.514 0c.174-.41.23-.75.28-1.051.122-.738.208-1.26 1.898-2.076 4.162-2.009 12.166-1.003 15.618 3.888 9.976 14.85 13.327 29.422 11.329 43.605-1.231 8.73-15.864 10.395-19.367 8.353-3.002-1.75-5.74-5.351-5.74-5.351-4.343 1.354-8.205 2.048-12.775 2.048s-8.432-.694-12.774-2.048c0 0-2.74 3.601-5.74 5.351-3.504 2.043-18.137.376-19.368-8.353-1.998-14.183 1.353-28.755 11.33-43.605 3.451-4.891 11.455-5.897 15.617-3.888 1.69.816 1.776 1.338 1.898 2.076.05.302.106.64.28 1.05z" fill="var(--svg-custom-color, #fff)" style="transition: var(--svg-custom-transition);"/></symbol><symbol fill="none" viewBox="0 0 129 129" id="crazy-eyes" xmlns="http://www.w3.org/2000/svg" style="transition: var(--svg-custom-transition);"><path fill-rule="evenodd" clip-rule="evenodd" d="M42.539 71.51a12.062 12.062 0 01-1.639-6.115c0-6.218 4.442-11.318 10.155-11.318 5.712 0 10.278 5.1 10.18 11.318-.035 2.252-.633 4.352-1.652 6.114H42.54zm28.505 0a8.36 8.36 0 01-1.069-4.122c0-4.296 3.07-7.819 7.022-7.819 3.953 0 7.083 3.523 7.015 7.82a8.74 8.74 0 01-1.08 4.12H71.043z" fill="var(--svg-custom-color, #4F5660)" style="transition: var(--svg-custom-transition);"/></symbol><symbol fill="none" viewBox="0 0 128 128" id="crown" xmlns="http://www.w3.org/2000/svg" style="transition: var(--svg-custom-transition);"><path d="M62.732 35.053a1.82 1.82 0 012.574 0l3.704 3.704c.71.71.71 1.864 0 2.575l-3.704 3.703a1.82 1.82 0 01-2.574 0l-3.704-3.703a1.82 1.82 0 010-2.575l3.704-3.704z" fill="var(--svg-custom-color, #fff)" style="transition: var(--svg-custom-transition);"/><path d="M31.338 41.273l-.002 6.938c3.86-2.817 13.318-7.869 24.59-9.37a4.53 4.53 0 011.171-2.015l3.704-3.703a4.536 4.536 0 013.218-1.333h.043a4.54 4.54 0 013.22 1.333l3.703 3.703c.58.58.97 1.277 1.171 2.015 11.272 1.501 20.729 6.553 24.59 9.37l-.002-6.938-24.588-8.15-8.137-3.663-8.094 3.663-24.587 8.15z" fill="var(--svg-custom-color, #fff)" style="transition: var(--svg-custom-transition);"/><path d="M64.002 17.853l12.317 16.463-6.33-1.27-5.987-2.493-5.546 2.493-6.771 1.27 12.317-16.463zM31.247 31.772l.092 9.559 10.252-2.177-10.344-7.382z" fill="var(--svg-custom-color, #fff)" style="transition: var(--svg-custom-transition);"/><path d="M45.755 23.96l-7.148 15.007 17.045-4.14-9.897-10.867zm50.991 7.812v9.614l-10.344-2.232 10.344-7.382z" fill="var(--svg-custom-color, #fff)" style="transition: var(--svg-custom-transition);"/><path d="M82.237 23.96l7.148 15.007-17.044-4.14 9.896-10.867z" fill="var(--svg-custom-color, #fff)" style="transition: var(--svg-custom-transition);"/><path fill-rule="evenodd" clip-rule="evenodd" d="M31.636 51.63l1.433-1.045c3.484-2.541 12.3-7.278 22.826-8.773a4.74 4.74 0 001.055 1.598l3.703 3.704a4.76 4.76 0 006.732 0l3.703-3.704a4.743 4.743 0 001.058-1.604c10.544 1.488 19.379 6.234 22.867 8.78l1.321.963c4.83 10.193 6.972 21.384 5.773 33.822a63.633 63.633 0 01-19.462 9.758 46.557 46.557 0 01-4.165-6.71 41.527 41.527 0 006.572-3.139 22.77 22.77 0 01-1.609-1.209 45.688 45.688 0 01-38.887 0c-.52.4-1.058.81-1.608 1.21a41.363 41.363 0 006.56 3.131 46.971 46.971 0 01-4.166 6.717 63.922 63.922 0 01-19.45-9.764c-1.057-11.095.352-22.314 5.744-33.735z" fill="var(--svg-custom-color, #fff)" style="transition: var(--svg-custom-transition);"/></symbol><symbol fill="none" viewBox="0 0 128 129" id="cute" xmlns="http://www.w3.org/2000/svg" style="transition: var(--svg-custom-transition);"><path fill-rule="evenodd" clip-rule="evenodd" d="M51.04 78.127c5.235 0 9.478-4.815 9.478-10.754 0-5.94-4.243-10.754-9.478-10.754-5.234 0-9.478 4.815-9.478 10.754 0 5.94 4.244 10.754 9.478 10.754zm3.825-6.015c2.315 0 4.192-2.122 4.192-4.739s-1.877-4.739-4.192-4.739c-2.316 0-4.193 2.122-4.193 4.739s1.877 4.739 4.193 4.739zm22.101 6.015c-5.235 0-9.478-4.815-9.478-10.754 0-5.94 4.243-10.754 9.478-10.754 5.234 0 9.478 4.815 9.478 10.754 0 5.94-4.244 10.754-9.478 10.754zm-3.797-6.015c-2.315 0-4.192-2.122-4.192-4.739s1.877-4.739 4.192-4.739c2.316 0 4.192 2.122 4.192 4.739s-1.877 4.739-4.192 4.739z" fill="var(--svg-custom-color, #4F5660)" style="transition: var(--svg-custom-transition);"/></symbol><symbol fill="none" viewBox="0 0 128 129" id="cute-downwards" xmlns="http://www.w3.org/2000/svg" style="transition: var(--svg-custom-transition);"><path fill-rule="evenodd" clip-rule="evenodd" d="M51.151 78.405c5.37 0 9.723-4.94 9.723-11.032 0-6.093-4.353-11.031-9.723-11.031-5.37 0-9.722 4.939-9.722 11.031 0 6.093 4.353 11.032 9.722 11.032zm1.981-2.354c2.376 0 4.3-2.176 4.3-4.861 0-2.685-1.924-4.862-4.3-4.862-2.374 0-4.3 2.177-4.3 4.862s1.925 4.861 4.3 4.861zm23.589 2.354c-5.37 0-9.723-4.94-9.723-11.032 0-6.093 4.353-11.031 9.723-11.031 5.37 0 9.723 4.939 9.723 11.031 0 6.093-4.353 11.032-9.723 11.032zM74.74 76.05c-2.375 0-4.3-2.176-4.3-4.861 0-2.685 1.925-4.862 4.3-4.862s4.3 2.177 4.3 4.862-1.925 4.861-4.3 4.861z" fill="var(--svg-custom-color, #4F5660)" style="transition: var(--svg-custom-transition);"/></symbol><symbol fill="none" viewBox="0 0 128 129" id="dead" xmlns="http://www.w3.org/2000/svg" style="transition: var(--svg-custom-transition);"><path fill="var(--svg-custom-color, #4F5660)" d="M55.548 60.06l-11.82 11.821 2.804 2.804 11.82-11.82z" style="transition: var(--svg-custom-transition);"/><path fill="var(--svg-custom-color, #4F5660)" d="M55.548 60.06l-11.82 11.821 2.804 2.804 11.82-11.82zm25.926 0l-11.82 11.821 2.804 2.805 11.82-11.821z" style="transition: var(--svg-custom-transition);"/><path fill="var(--svg-custom-color, #4F5660)" d="M81.474 60.06l-11.82 11.821 2.804 2.805 11.82-11.821zM58.353 71.88L46.532 60.06l-2.804 2.805 11.82 11.82z" style="transition: var(--svg-custom-transition);"/><path fill="var(--svg-custom-color, #4F5660)" d="M58.353 71.88L46.532 60.06l-2.804 2.805 11.82 11.82zm25.925.001l-11.82-11.82-2.805 2.804 11.821 11.82z" style="transition: var(--svg-custom-transition);"/><path fill="var(--svg-custom-color, #4F5660)" d="M84.278 71.881l-11.82-11.82-2.805 2.804 11.821 11.82z" style="transition: var(--svg-custom-transition);"/></symbol><symbol fill="none" viewBox="0 0 128 128" id="devil" xmlns="http://www.w3.org/2000/svg" style="transition: var(--svg-custom-transition);"><path d="M90.68 39.75a63.576 63.576 0 00-15.858-4.879 43.574 43.574 0 00-2.031 4.13 59.06 59.06 0 00-17.6 0 43.755 43.755 0 00-2.031-4.13 64.021 64.021 0 00-15.87 4.891C27.252 54.611 24.531 69.091 25.892 83.365a63.924 63.924 0 0019.45 9.764 46.971 46.971 0 004.165-6.717 41.363 41.363 0 01-6.56-3.132 74.83 74.83 0 001.608-1.209 45.688 45.688 0 0038.887 0 22.8 22.8 0 001.609 1.21 41.527 41.527 0 01-6.572 3.137 46.557 46.557 0 004.165 6.711c7-2.11 13.584-5.412 19.462-9.758 1.596-16.554-2.727-30.9-11.427-43.621z" fill="var(--svg-custom-color, #fff)" style="transition: var(--svg-custom-transition);"/><path fill-rule="evenodd" clip-rule="evenodd" d="M55.073 39.2c-.305.023-.614.035-.926.035-6.574 0-11.905-5.32-11.922-11.89A8.988 8.988 0 1055.073 39.2zm17.854 0c.305.023.614.035.926.035 6.574 0 11.905-5.32 11.922-11.89A8.988 8.988 0 1172.927 39.2z" fill="var(--svg-custom-color, #fff)" style="transition: var(--svg-custom-transition);"/><path fill-rule="evenodd" clip-rule="evenodd" d="M37.306 39.757c9.15-4.222 19.262-5.936 26.694-5.936 7.432 0 17.545 1.714 26.694 5.936l.243 1.931L64 40.362l-26.937 1.326.243-1.93z" fill="var(--svg-custom-color, #fff)" style="transition: var(--svg-custom-transition);"/></symbol><symbol fill="none" viewBox="0 0 128 129" id="evil-eyes" xmlns="http://www.w3.org/2000/svg" style="transition: var(--svg-custom-transition);"><path fill-rule="evenodd" clip-rule="evenodd" d="M48.154 59.635c-2.529 1.482-4.222 4.392-4.222 7.715 0 1.97.608 3.796 1.63 5.264.535.116 1.07.245 1.609.385a37.489 37.489 0 017.245 2.701c3.276-1.122 5.607-4.451 5.607-8.35a9.263 9.263 0 00-.005-.49 25.217 25.217 0 01-5.077-2.022c-.05 2.03-.624 4.306-2.114 6.645-2.166-3.4-2.395-6.668-1.896-9.24a21.222 21.222 0 01-2.777-2.608zm31.694 0c2.53 1.482 4.223 4.391 4.223 7.715a9.2 9.2 0 01-1.632 5.264c-.533.116-1.07.245-1.607.385a37.492 37.492 0 00-7.245 2.701c-3.276-1.123-5.607-4.452-5.607-8.35a9.366 9.366 0 01.005-.49 25.22 25.22 0 005.077-2.022c.05 2.03.624 4.306 2.114 6.645 2.165-3.4 2.394-6.669 1.896-9.24a21.211 21.211 0 002.776-2.608z" fill="var(--svg-custom-color, #4F5660)" style="transition: var(--svg-custom-transition);"/></symbol><symbol fill="none" viewBox="0 0 128 128" id="face-mask" xmlns="http://www.w3.org/2000/svg" style="transition: var(--svg-custom-transition);"><path fill-rule="evenodd" clip-rule="evenodd" d="M74.822 34.44a63.573 63.573 0 0115.858 4.879c6.31 9.227 10.318 19.309 11.434 30.468l-1.423 1.137c-2.481 1.98-6.728 4.796-11.23 7.063-4.625 2.33-8.997 3.81-11.9 3.678-2.472-.113-4.12-.449-5.3-.826-1.173-.374-1.976-.814-2.847-1.297l-.067-.037c-1.299-.72-2.858-1.584-5.348-1.584-2.49 0-4.05.864-5.348 1.584l-.067.037c-.871.483-1.674.923-2.847 1.297-1.18.377-2.828.713-5.3.826-2.903.132-7.275-1.348-11.9-3.678-4.502-2.267-8.749-5.083-11.23-7.063l-1.426-1.138c.997-10.01 4.439-20.144 11.408-30.455a64.019 64.019 0 0115.87-4.891 43.755 43.755 0 012.032 4.13 59.06 59.06 0 0117.6 0 43.574 43.574 0 012.03-4.13zM25.624 73.422a49.674 49.674 0 01-.001-.388 51.887 51.887 0 002.745 2.03 76.65 76.65 0 009.008 5.361c-.55 2.212-.911 5.733-.976 9.314a60.002 60.002 0 00.055 3.974 38.09 38.09 0 00-1.213-.578h-.001a15.54 15.54 0 01-1.095-.559c-2.583-1.448-5.296-3.97-6.949-8.703-.705-2.02-1.217-4.44-1.444-7.353a44.291 44.291 0 01-.129-3.098zM39.1 89.788c.059-3.237.367-6.25.774-8.177 3.852 1.718 7.693 2.887 10.687 2.751 5.331-.242 7.554-1.473 9.332-2.458 1.272-.704 2.316-1.283 4.107-1.283 1.791 0 2.835.579 4.107 1.283 1.778.985 4 2.216 9.332 2.458 2.995.136 6.836-1.034 10.689-2.752.407 1.928.715 4.94.774 8.178a53.72 53.72 0 01-.161 5.428c-.087.045-.174.09-.263.134-6.69 3.404-18.282 8.204-24.478 8.204-.885 0-1.88-.098-2.956-.275-6.55-1.084-16.073-5.132-21.782-8.062a53.712 53.712 0 01-.162-5.43zm52.446 3.924c.345-.175.712-.346 1.094-.523l.118-.054c3.048-1.409 6.535-3.313 8.358-9.476.57-1.93.978-4.278 1.157-7.159.068-1.078.103-2.232.103-3.466l-.019.015a51.961 51.961 0 01-2.716 2.009 76.642 76.642 0 01-9.016 5.366c.55 2.212.912 5.734.976 9.315a60.038 60.038 0 01-.055 3.973zM80.07 90.967H47.93v-2h32.14v2zm-28.61 6.025h25.08v-2H51.46v2z" fill="var(--svg-custom-color, #fff)" style="transition: var(--svg-custom-transition);"/></symbol><symbol fill="none" viewBox="0 0 129 129" id="female-lashes" xmlns="http://www.w3.org/2000/svg" style="transition: var(--svg-custom-transition);"><path d="M39.8 59.17c2.04 2.65 6.648 3.49 9.62 3.027l-.426 3.48c-7.809-.339-9.053-5.092-9.194-6.507z" fill="var(--svg-custom-color, #4F5660)" style="transition: var(--svg-custom-transition);"/><path fill-rule="evenodd" clip-rule="evenodd" d="M48.154 60.81c1.788.437 3.767.487 5.456.215-1.445.766-4.177 1.416-6.958 1.244-1.061 1.375-1.695 3.167-1.695 5.12 0 4.296 3.18 7.788 7.028 7.788 3.922 0 6.954-3.492 7.021-7.789.068-4.296-3.087-7.82-7.034-7.82-1.42 0-2.727.457-3.818 1.242z" fill="var(--svg-custom-color, #4F5660)" style="transition: var(--svg-custom-transition);"/><path d="M90.097 59.17c-2.04 2.65-6.65 3.49-9.621 3.027l.426 3.48c7.809-.339 9.053-5.092 9.195-6.507z" fill="var(--svg-custom-color, #4F5660)" style="transition: var(--svg-custom-transition);"/><path fill-rule="evenodd" clip-rule="evenodd" d="M81.742 60.81a14.248 14.248 0 01-5.456.215c1.445.766 4.178 1.416 6.958 1.244 1.062 1.375 1.695 3.167 1.695 5.12 0 4.296-3.18 7.788-7.027 7.788-3.922 0-6.955-3.492-7.022-7.789-.067-4.296 3.087-7.82 7.034-7.82 1.42 0 2.727.457 3.818 1.242z" fill="var(--svg-custom-color, #4F5660)" style="transition: var(--svg-custom-transition);"/></symbol><symbol fill="none" viewBox="0 0 129 129" id="glasses-1" xmlns="http://www.w3.org/2000/svg" style="transition: var(--svg-custom-transition);"><ellipse cx="52.484" cy="67.623" rx="4.463" ry="5.111" fill="var(--svg-custom-color, #4F5660)" style="transition: var(--svg-custom-transition);"/><ellipse rx="4.463" ry="5.111" transform="matrix(-1 0 0 1 77.517 67.623)" fill="var(--svg-custom-color, #4F5660)" style="transition: var(--svg-custom-transition);"/><path fill-rule="evenodd" clip-rule="evenodd" d="M51.523 75.368a7.746 7.746 0 100-15.49 7.746 7.746 0 000 15.49zm0 2.883c5.87 0 10.628-4.758 10.628-10.628s-4.759-10.628-10.628-10.628c-5.87 0-10.629 4.758-10.629 10.628s4.76 10.627 10.629 10.627zm26.955-2.883a7.746 7.746 0 110-15.49 7.746 7.746 0 010 15.49zm0 2.883c-5.87 0-10.629-4.758-10.629-10.628s4.759-10.628 10.629-10.628c5.87 0 10.628 4.758 10.628 10.628S84.347 78.25 78.478 78.25z" fill="var(--svg-custom-color, #4F5660)" style="transition: var(--svg-custom-transition);"/><path fill-rule="evenodd" clip-rule="evenodd" d="M64.467 64.07c-1.409.103-2.588.455-3.19.716l-1.146-2.645c.902-.391 2.399-.82 4.127-.946 1.734-.126 3.797.047 5.758.962l-1.22 2.612c-1.388-.648-2.925-.8-4.329-.699z" fill="var(--svg-custom-color, #4F5660)" style="transition: var(--svg-custom-transition);"/></symbol><symbol fill="none" viewBox="0 0 128 129" id="glasses-2" xmlns="http://www.w3.org/2000/svg" style="transition: var(--svg-custom-transition);"><ellipse cx="50.844" cy="69.725" rx="4.676" ry="5.354" fill="var(--svg-custom-color, #4F5660)" style="transition: var(--svg-custom-transition);"/><path fill-rule="evenodd" clip-rule="evenodd" d="M63.549 66.122c-1.008.073-1.843.325-2.25.501l-1.2-2.771c.721-.312 1.889-.645 3.23-.742 1.348-.098 2.97.034 4.524.76l-1.277 2.736c-.954-.445-2.026-.557-3.027-.484z" fill="var(--svg-custom-color, #4F5660)" style="transition: var(--svg-custom-transition);"/><path fill-rule="evenodd" clip-rule="evenodd" d="M42.244 63.187v8.872h17.331v-8.872H42.244zm-1.007-3.02a2.013 2.013 0 00-2.013 2.013v10.886c0 1.112.901 2.013 2.013 2.013h19.345a2.013 2.013 0 002.013-2.013V62.18a2.013 2.013 0 00-2.013-2.013H41.237z" fill="var(--svg-custom-color, #4F5660)" style="transition: var(--svg-custom-transition);"/><ellipse rx="4.676" ry="5.354" transform="matrix(-1 0 0 1 77.418 69.725)" fill="var(--svg-custom-color, #4F5660)" style="transition: var(--svg-custom-transition);"/><path fill-rule="evenodd" clip-rule="evenodd" d="M86.019 63.187v8.872H68.688v-8.872h17.331zm1.007-3.02c1.112 0 2.013.901 2.013 2.013v10.886a2.013 2.013 0 01-2.013 2.013H67.68a2.013 2.013 0 01-2.013-2.013V62.18c0-1.112.901-2.013 2.013-2.013h19.345z" fill="var(--svg-custom-color, #4F5660)" style="transition: var(--svg-custom-transition);"/></symbol><symbol fill="none" viewBox="0 0 128 128" id="hair-1" xmlns="http://www.w3.org/2000/svg" style="transition: var(--svg-custom-transition);"><path fill-rule="evenodd" clip-rule="evenodd" d="M35.156 43.092c-8.287 13.686-10.522 27.067-9.263 40.273a63.922 63.922 0 0019.45 9.764 46.971 46.971 0 004.165-6.717 41.363 41.363 0 01-6.56-3.132 74.83 74.83 0 001.608-1.209 45.688 45.688 0 0038.887 0c.526.43 1.064.84 1.609 1.21a41.527 41.527 0 01-6.572 3.137 46.557 46.557 0 004.165 6.711c7-2.11 13.584-5.412 19.462-9.758 1.425-14.775-1.866-27.792-8.776-39.463-2.419 1.166-5.51 1.763-9.552 1.1-1.071-.176-1.601-.004-2.95.432-.302.098-.646.21-1.045.333-2.197.678-5.038 1.26-9.936.706-4.959-.56-9.156-1.91-12.567-3.008-1.203-.388-2.31-.744-3.316-1.022-2.016-.558-3.698-.848-5.302-.758-1.558.087-3.18.54-5.043 1.683-1.845 1.131-3.89 2.005-5.821 1.573-1.29-.289-2.118-1.02-2.643-1.855z" fill="var(--svg-custom-color, #fff)" style="transition: var(--svg-custom-transition);"/><path d="M38.507 33.263c1.103-3.412 5.293-6.938 10.178-5.63 4.886 1.307 8.24 1.548 18.417-2.633-.387 2.209-2.698 4.77-5.273 6.592 5.424-.694 12.874-.78 18.07 1.24C87.745 35.885 96.705 37.23 98 36.625c-2.22 1.635-4.926 7.172-13.784 5.72-4.198-.69-5.058 2.47-14.065 1.452-12.869-1.453-19.06-8.172-27.943-2.724-7.106 4.359-5.428-3.39-3.7-7.81z" fill="var(--svg-custom-color, #fff)" style="transition: var(--svg-custom-transition);"/></symbol><symbol fill="none" viewBox="0 0 128 128" id="hair-2" xmlns="http://www.w3.org/2000/svg" style="transition: var(--svg-custom-transition);"><path d="M63.981 23.32c-8.433-.328-27.533 2.596-36.47 16.922-11.17 17.906-14.52 26.06-8.4 27.68 1.863.493 9.058 1.824 13-.41l6.079-25.3h10.194l3.9-5.802 3.468 5.803h34.021l6.079 25.299c3.942 2.234 9.92.903 11.782.41 6.785-1.796 3.988-9.774-7.182-27.68-8.937-14.326-28.038-17.25-36.47-16.921z" fill="var(--svg-custom-color, #fff)" style="transition: var(--svg-custom-transition);"/><path fill-rule="evenodd" clip-rule="evenodd" d="M40.397 45.013L34.55 69.348l-1.058.6c-2.284 1.294-5.122 1.623-7.543 1.619-.509 4.624-.492 9.221-.056 13.798a63.924 63.924 0 0019.45 9.764 46.977 46.977 0 004.165-6.717 41.363 41.363 0 01-6.56-3.132 74.83 74.83 0 001.608-1.209 45.688 45.688 0 0038.887 0 22.8 22.8 0 001.609 1.21 41.527 41.527 0 01-6.572 3.137 46.557 46.557 0 004.165 6.711c7-2.11 13.584-5.412 19.462-9.758.461-4.783.428-9.382-.062-13.811-2.322.058-5.142-.234-7.574-1.612l-1.058-.6-5.847-24.335H54.163l-2.018-3.377-2.269 3.377h-9.48z" fill="var(--svg-custom-color, #fff)" style="transition: var(--svg-custom-transition);"/><path d="M84.758 23.297l2.19 6.657 3.944 3.243 5.641-3.243-6.298-.683-5.477-5.974z" fill="var(--svg-custom-color, #fff)" style="transition: var(--svg-custom-transition);"/></symbol><symbol fill="none" viewBox="0 0 128 128" id="hanging-ears" xmlns="http://www.w3.org/2000/svg" style="transition: var(--svg-custom-transition);"><path fill-rule="evenodd" clip-rule="evenodd" d="M55.191 39a59.1 59.1 0 018.818-.659 59.1 59.1 0 018.818.66 43.755 43.755 0 012.032-4.13 64.019 64.019 0 0115.87 4.891c10.036 14.849 11.701 29.133 11.701 43.367 0 4.424-1.996 7.686-7.154 7.686-5.386 0-5.753-5.1-6.137-10.446l-.06-.809a130.826 130.826 0 00-5.617 2.511 45.688 45.688 0 01-19.444 4.344H64a45.688 45.688 0 01-19.443-4.344 130.841 130.841 0 00-5.618-2.51l-.059.808c-.384 5.346-.75 10.446-6.137 10.446-5.157 0-7.154-3.262-7.154-7.686 0-14.234 1.665-28.518 11.701-43.367a64.019 64.019 0 0115.87-4.891 43.78 43.78 0 012.032 4.13z" fill="var(--svg-custom-color, #fff)" style="transition: var(--svg-custom-transition);"/></symbol><symbol fill="none" viewBox="0 0 128 128" id="hannibal" xmlns="http://www.w3.org/2000/svg" style="transition: var(--svg-custom-transition);"><path fill-rule="evenodd" clip-rule="evenodd" d="M74.822 34.443a63.572 63.572 0 0115.858 4.879c6.31 9.226 10.318 19.309 11.435 30.468l-1.424 1.137c-2.481 1.98-6.728 4.795-11.23 7.063-4.625 2.33-8.997 3.81-11.9 3.678-2.472-.113-4.12-.45-5.3-.826-1.173-.374-1.976-.815-2.847-1.297l-.067-.037c-1.299-.72-2.858-1.584-5.348-1.584-2.49 0-4.049.864-5.348 1.584l-.067.037c-.871.482-1.674.923-2.847 1.297-1.18.377-2.828.713-5.3.826-2.903.132-7.275-1.349-11.9-3.678-4.502-2.267-8.749-5.083-11.23-7.063l-1.426-1.139c.997-10.01 4.439-20.143 11.408-30.454a64.021 64.021 0 0115.87-4.891 43.745 43.745 0 012.032 4.13 59.054 59.054 0 0117.6 0 43.564 43.564 0 012.031-4.13zM25.624 73.424l-.001-.387a51.884 51.884 0 002.745 2.03c6.046 4.198 15.953 9.582 22.192 9.298 5.331-.242 7.554-1.474 9.332-2.458 1.272-.704 2.316-1.283 4.107-1.283 1.791 0 2.835.579 4.107 1.283 1.778.984 4 2.216 9.332 2.458 6.242.284 16.157-5.106 22.202-9.304a52.015 52.015 0 002.716-2.01l.019-.014c0 1.234-.035 2.387-.103 3.466-.177 2.844-.576 5.169-1.136 7.085-1.816 6.222-5.319 8.135-8.379 9.55l-.117.054c-.585.27-1.134.528-1.625.806-.726.411-1.582.869-2.538 1.355-6.69 3.404-18.282 8.204-24.478 8.204-.885 0-1.88-.098-2.956-.276-7.527-1.245-18.98-6.405-24.06-9.283-.523-.297-1.113-.57-1.742-.86a15.69 15.69 0 01-1.104-.564c-2.604-1.462-5.338-4.017-6.985-8.83-.682-1.992-1.177-4.371-1.4-7.221a44.35 44.35 0 01-.128-3.099zm49.679 19.877a4.004 4.004 0 01-3.599 3.983v-7.966a4.004 4.004 0 013.599 3.983zm-9.868-4.004h3.678v8.007h-3.678v-8.007zm-6.27 8.007h3.679v-8.007h-3.678v8.007zm-2.59-8.005a4.003 4.003 0 000 8.003V89.3z" fill="var(--svg-custom-color, #fff)" style="transition: var(--svg-custom-transition);"/></symbol><symbol fill="none" viewBox="0 0 128 129" id="happy" xmlns="http://www.w3.org/2000/svg" style="transition: var(--svg-custom-transition);"><path fill-rule="evenodd" clip-rule="evenodd" d="M70.19 69.418a8.544 8.544 0 01-.243-2.03c0-4.296 3.069-7.82 7.021-7.82 3.953 0 7.083 3.524 7.016 7.82a9.057 9.057 0 01-.257 2.015c-1.8-1.775-4.167-2.853-6.761-2.853-2.602 0-4.975 1.084-6.776 2.868zm-25.92 0a8.539 8.539 0 01-.243-2.03c0-4.296 3.07-7.82 7.022-7.82 3.953 0 7.083 3.524 7.015 7.82-.01.697-.1 1.372-.257 2.015-1.799-1.775-4.166-2.853-6.76-2.853-2.602 0-4.976 1.084-6.777 2.868z" fill="var(--svg-custom-color, #4F5660)" style="transition: var(--svg-custom-transition);"/></symbol><symbol fill="none" viewBox="0 0 128 128" id="headphones" xmlns="http://www.w3.org/2000/svg" style="transition: var(--svg-custom-transition);"><path fill-rule="evenodd" clip-rule="evenodd" d="M93.51 44.267c-2.257-.835-10.989-3.908-20.717-5.271L72.79 39a60.99 60.99 0 00-.535-.078 67.008 67.008 0 00-5.953-.536 59.069 59.069 0 00-4.422-.007 67.15 67.15 0 00-6.69.621v-.002c-9.723 1.365-18.446 4.435-20.7 5.269.522.723.798 1.587.882 2.548.114 1.312-.113 2.935-.506 4.881-.402 1.998-1.035 4.589-1.865 7.931-.832 3.35-1.5 5.939-2.1 7.9-.584 1.913-1.167 3.45-1.9 4.553-.818 1.233-1.918 2.055-3.396 2.245a69.63 69.63 0 00.287 9.04 63.924 63.924 0 0019.45 9.764 46.977 46.977 0 004.165-6.717 41.372 41.372 0 01-6.56-3.132 74.83 74.83 0 001.608-1.209 45.69 45.69 0 0038.887 0 22.8 22.8 0 001.609 1.21 41.536 41.536 0 01-6.572 3.137 46.557 46.557 0 004.165 6.711c7-2.11 13.584-5.412 19.462-9.758.298-3.091.39-6.105.285-9.046-1.477-.19-2.576-1.012-3.395-2.245-.733-1.104-1.315-2.64-1.9-4.554-.6-1.96-1.267-4.549-2.099-7.899-.83-3.342-1.463-5.933-1.866-7.93-.392-1.947-.62-3.57-.505-4.882.084-.96.36-1.825.883-2.548z" fill="var(--svg-custom-color, #fff)" style="transition: var(--svg-custom-transition);"/><path d="M30.77 59.073c-3.332 13.42-3.797 13.671-8.074 12.609-5.188-1.289-7.865-8.488-5.98-16.081 1.886-7.593 7.62-12.704 12.808-11.416 4.494 1.116 4.58 1.468 1.246 14.888zm66.46 0c3.332 13.42 3.797 13.671 8.074 12.609 5.188-1.289 7.865-8.488 5.98-16.081-1.886-7.593-7.62-12.704-12.808-11.416-4.494 1.116-4.58 1.468-1.246 14.888z" fill="var(--svg-custom-color, #fff)" style="transition: var(--svg-custom-transition);"/><path fill-rule="evenodd" clip-rule="evenodd" d="M63.89 33.285c-21.25 0-30.541 8.7-32.476 12.524l-2.41-1.22c2.54-5.018 12.985-14.004 34.885-14.004 21.909 0 33.043 8.985 35.961 13.928l-2.325 1.373c-2.302-3.9-12.394-12.601-33.636-12.601z" fill="var(--svg-custom-color, #fff)" style="transition: var(--svg-custom-transition);"/></symbol><symbol fill="none" viewBox="0 0 128 129" id="heart-eyes" xmlns="http://www.w3.org/2000/svg" style="transition: var(--svg-custom-transition);"><path d="M57.847 61.16a4.404 4.404 0 00-3.276-1.426c-.946 0-1.811.299-2.574.888a5.268 5.268 0 00-1.04 1.087 5.266 5.266 0 00-1.04-1.087 4.12 4.12 0 00-2.574-.888 4.405 4.405 0 00-3.277 1.426c-.838.909-1.3 2.15-1.3 3.496 0 1.385.517 2.653 1.626 3.99.991 1.197 2.416 2.412 4.066 3.818.564.48 1.202 1.025 1.866 1.604a.96.96 0 001.266 0 178.29 178.29 0 011.866-1.604c1.65-1.406 3.075-2.62 4.066-3.817 1.108-1.338 1.625-2.606 1.625-3.99 0-1.347-.462-2.588-1.3-3.497zm26.087 0a4.404 4.404 0 00-3.277-1.426c-.945 0-1.811.299-2.573.888a5.268 5.268 0 00-1.04 1.087 5.26 5.26 0 00-1.041-1.087 4.12 4.12 0 00-2.574-.888 4.405 4.405 0 00-3.276 1.426c-.838.909-1.3 2.15-1.3 3.496 0 1.385.517 2.653 1.625 3.99.992 1.197 2.416 2.412 4.067 3.818.563.48 1.202 1.025 1.865 1.604a.96.96 0 001.266 0 178.29 178.29 0 011.866-1.604c1.65-1.406 3.075-2.62 4.067-3.817 1.108-1.338 1.624-2.606 1.624-3.99 0-1.347-.461-2.588-1.3-3.497z" fill="var(--svg-custom-color, #4F5660)" style="transition: var(--svg-custom-transition);"/></symbol><symbol fill="none" viewBox="0 0 128 128" id="knit-cap" xmlns="http://www.w3.org/2000/svg" style="transition: var(--svg-custom-transition);"><path fill-rule="evenodd" clip-rule="evenodd" d="M30.002 55.386c.157-.009.283-.025.369-.037a7.521 7.521 0 001.332-.334c.737-.248 1.667-.636 2.645-1.045l.094-.04c3.636-1.518 9.686-4.043 18.045-5.39a72.365 72.365 0 0111.52-.91c14.474 0 24.428 4.156 29.564 6.3l.093.04.217.09c.898.375 1.746.725 2.428.955.376.126.847.267 1.333.334.084.012.209.028.363.037 3.639 9.15 5.153 19.09 4.102 29.985a63.633 63.633 0 01-19.462 9.758 46.557 46.557 0 01-4.165-6.71 41.527 41.527 0 006.572-3.139 22.77 22.77 0 01-1.609-1.209 45.688 45.688 0 01-38.887 0 74.6 74.6 0 01-1.608 1.21 41.363 41.363 0 006.56 3.131 46.971 46.971 0 01-4.166 6.717 63.922 63.922 0 01-19.45-9.764c-.94-9.876.072-19.851 4.11-29.979z" fill="var(--svg-custom-color, #fff)" style="transition: var(--svg-custom-transition);"/><path d="M29.491 40.828c-1.118.285-3.074 2.019-2.795 3.178.101.42.211.931.332 1.493.549 2.546 1.318 6.12 2.463 6.82.402.246 1.675-.286 3.79-1.169 5.24-2.188 15.64-6.532 30.725-6.532 15.084 0 25.487 4.344 30.726 6.532 2.114.883 3.388 1.415 3.79 1.17 1.145-.702 1.914-4.275 2.462-6.821.121-.562.231-1.073.332-1.493.198-.82-1.677-2.893-2.794-3.178-14.086-6.064-28.928-6.48-34.516-6.48-5.587 0-20.43.416-34.515 6.48z" fill="var(--svg-custom-color, #fff)" style="transition: var(--svg-custom-transition);"/><path fill-rule="evenodd" clip-rule="evenodd" d="M33.304 36.379c3.439-6.268 12.491-14.667 30.702-14.857 18.21.19 27.263 8.59 30.703 14.857-13.01-4.484-25.654-4.809-30.703-4.809-5.048 0-17.692.325-30.702 4.809z" fill="var(--svg-custom-color, #fff)" style="transition: var(--svg-custom-transition);"/><path d="M62.943 14.74c-.862.082-1.682.256-2.436.506l.299 3.064-2.755-1.814c-1.058.786-1.788 1.78-2.041 2.882a55.63 55.63 0 017.967-.634h.058c2.918.03 5.623.262 8.127.66-.248-1.111-.98-2.114-2.043-2.906l-2.53 1.666.277-2.847c-.64-.228-1.332-.4-2.058-.506l-1.62 2.957-1.245-3.027z" fill="var(--svg-custom-color, #fff)" style="transition: var(--svg-custom-transition);"/></symbol><symbol fill="none" viewBox="0 0 128 129" id="line-eyes" xmlns="http://www.w3.org/2000/svg" style="transition: var(--svg-custom-transition);"><path fill-rule="evenodd" clip-rule="evenodd" d="M85.805 66.807L70.178 71.47l-1.053-3.53 15.627-4.662 1.053 3.53zm-43.61 0l15.627 4.662 1.053-3.53-15.627-4.662-1.053 3.53z" fill="var(--svg-custom-color, #4F5660)" style="transition: var(--svg-custom-transition);"/></symbol><symbol fill="none" viewBox="0 0 128 129" id="line-eyes-happy" xmlns="http://www.w3.org/2000/svg" style="transition: var(--svg-custom-transition);"><path fill-rule="evenodd" clip-rule="evenodd" d="M51.252 61.062l8.253 8.252-2.37 2.37-5.883-5.881-5.881 5.881-2.37-2.37 8.252-8.252zm25.496 0L85 69.314l-2.37 2.37-5.882-5.881-5.882 5.881-2.37-2.37 8.252-8.252z" fill="var(--svg-custom-color, #4F5660)" style="transition: var(--svg-custom-transition);"/></symbol><symbol fill="none" viewBox="0 0 128 128" id="mohawk" xmlns="http://www.w3.org/2000/svg" style="transition: var(--svg-custom-transition);"><path d="M74.705 34.906v9.93h-21.41v-10.08a31.39 31.39 0 012.4-.31l.148-.025c.333-.057.628-.107.973-.107 4.02-.528 8.568-.66 13.314-.132 1.5.174 3.026.412 4.575.725z" fill="var(--svg-custom-color, #fff)" style="transition: var(--svg-custom-transition);"/><path fill-rule="evenodd" clip-rule="evenodd" d="M77.405 47.537h-26.81v-7.764c-7.823 1.531-14.304 3.827-16.145 4.509-7.708 13.272-9.78 26.26-8.557 39.083a63.922 63.922 0 0019.45 9.764 46.971 46.971 0 004.165-6.717 41.363 41.363 0 01-6.56-3.132 74.83 74.83 0 001.608-1.209 45.688 45.688 0 0038.887 0c.526.43 1.064.84 1.609 1.21a41.527 41.527 0 01-6.572 3.137 46.557 46.557 0 004.165 6.711c7-2.11 13.584-5.412 19.462-9.758 1.409-14.617-1.796-27.513-8.555-39.089-1.837-.68-8.32-2.977-16.147-4.508v7.763z" fill="var(--svg-custom-color, #fff)" style="transition: var(--svg-custom-transition);"/></symbol><symbol fill="none" viewBox="0 0 128 129" id="mono-brow" xmlns="http://www.w3.org/2000/svg" style="transition: var(--svg-custom-transition);"><path d="M44.015 67.388c0 4.297 3.18 7.789 7.028 7.789 3.922 0 6.954-3.492 7.021-7.789.068-4.296-3.087-7.82-7.033-7.82-3.947 0-7.016 3.524-7.016 7.82zm25.932 0c0 4.297 3.167 7.789 7.021 7.789 3.922 0 6.948-3.492 7.016-7.789.067-4.296-3.063-7.82-7.016-7.82-3.952 0-7.021 3.524-7.021 7.82z" fill="var(--svg-custom-color, #4F5660)" style="transition: var(--svg-custom-transition);"/><path fill-rule="evenodd" clip-rule="evenodd" d="M87.864 62.316H40.136V59.57h47.728v2.747z" fill="var(--svg-custom-color, #4F5660)" style="transition: var(--svg-custom-transition);"/></symbol><symbol fill="none" viewBox="0 0 128 128" id="monocle" xmlns="http://www.w3.org/2000/svg" style="transition: var(--svg-custom-transition);"><path d="M44.015 66.888c0 4.297 3.18 7.789 7.028 7.789 3.922 0 6.954-3.492 7.021-7.789.068-4.296-3.087-7.82-7.033-7.82-3.947 0-7.016 3.524-7.016 7.82zm25.932 0c0 4.297 3.167 7.789 7.021 7.789 3.922 0 6.948-3.492 7.016-7.789.067-4.296-3.063-7.82-7.016-7.82-3.952 0-7.021 3.524-7.021 7.82z" fill="var(--svg-custom-color, #4F5660)" style="transition: var(--svg-custom-transition);"/><path fill-rule="evenodd" clip-rule="evenodd" d="M51.04 77.186c5.696 0 10.313-4.617 10.313-10.313 0-5.696-4.617-10.313-10.313-10.313-5.695 0-10.313 4.617-10.313 10.313 0 5.696 4.618 10.313 10.313 10.313zm0 3.838c7.816 0 14.151-6.336 14.151-14.151 0-7.816-6.335-14.151-14.15-14.151-7.816 0-14.152 6.335-14.152 14.15 0 7.816 6.336 14.152 14.151 14.152z" fill="var(--svg-custom-color, #4F5660)" style="transition: var(--svg-custom-transition);"/><circle cx="34.277" cy="66.932" r="1.861" fill="var(--svg-custom-color, #4F5660)" style="transition: var(--svg-custom-transition);"/><circle cx="34.277" cy="72.014" r="1.861" fill="var(--svg-custom-color, #4F5660)" style="transition: var(--svg-custom-transition);"/><circle cx="34.277" cy="77.095" r="1.861" fill="var(--svg-custom-color, #4F5660)" style="transition: var(--svg-custom-transition);"/><circle cx="34.277" cy="82.169" r="1.861" fill="var(--svg-custom-color, #4F5660)" style="transition: var(--svg-custom-transition);"/><circle cx="34.277" cy="87.243" r="1.861" fill="var(--svg-custom-color, #4F5660)" style="transition: var(--svg-custom-transition);"/><circle cx="34.277" cy="92.317" r="1.861" fill="var(--svg-custom-color, #4F5660)" style="transition: var(--svg-custom-transition);"/></symbol><symbol fill="none" viewBox="0 0 128 128" id="mouse" xmlns="http://www.w3.org/2000/svg" style="transition: var(--svg-custom-transition);"><path fill-rule="evenodd" clip-rule="evenodd" d="M55.094 36.924c-2.235.48-4.087 1.063-5.386 1.59a41.521 41.521 0 00-6.572 3.138c.544.368 1.082.78 1.608 1.209a45.69 45.69 0 0138.887 0c.52-.4 1.058-.81 1.609-1.21a41.365 41.365 0 00-6.56-3.131 33.456 33.456 0 00-5.747-1.77c1.136-6.933 7.154-12.222 14.408-12.222 8.064 0 14.6 6.537 14.6 14.6a14.57 14.57 0 01-5.24 11.207c4.571 9.981 6.574 20.917 5.406 33.036a63.633 63.633 0 01-19.462 9.758 46.557 46.557 0 01-4.165-6.71 41.527 41.527 0 006.572-3.139 22.77 22.77 0 01-1.609-1.209 45.688 45.688 0 01-38.887 0c-.52.4-1.058.81-1.608 1.21a41.363 41.363 0 006.56 3.131 46.971 46.971 0 01-4.166 6.717 63.922 63.922 0 01-19.45-9.764c-1.035-10.865.294-21.85 5.414-33.025a14.57 14.57 0 01-5.248-11.212c0-8.063 6.537-14.6 14.6-14.6 7.315 0 13.373 5.378 14.436 12.396z" fill="var(--svg-custom-color, #fff)" style="transition: var(--svg-custom-transition);"/></symbol><symbol fill="none" viewBox="0 0 128 128" id="mustache" xmlns="http://www.w3.org/2000/svg" style="transition: var(--svg-custom-transition);"><path d="M74.822 34.871A63.576 63.576 0 0190.68 39.75c8.7 12.72 13.023 27.067 11.427 43.621-5.879 4.347-11.534-6.825-18.534-4.714-18.445 3.446-32.94 1.436-37.689 0-6.993-2.12-14.114 9.05-19.991 4.708-1.36-14.274 1.36-28.754 11.396-43.603a64.021 64.021 0 0115.87-4.891 43.755 43.755 0 012.032 4.13 59.06 59.06 0 0117.6 0 43.574 43.574 0 012.031-4.13z" fill="var(--svg-custom-color, #fff)" style="transition: var(--svg-custom-transition);"/><path fill-rule="evenodd" clip-rule="evenodd" d="M48.404 99.92c-4.045 0-13.576-6.342-22.507-16.55l14.322-7.39 50.24.88 11.65 6.51c-8.93 10.208-17.696 16.55-22.506 16.55-2.238 0-4.393-.773-6.699-1.602-2.65-.952-5.5-1.975-8.9-1.975-3.276 0-6.435 1.076-9.288 2.049-2.347.8-4.487 1.529-6.312 1.529zm37.776-6.85c-2.083 1.393-5.348 2.1-9.704 2.1-7.308 0-10.63-3.297-12.139-4.795a24.6 24.6 0 00-.334-.328c-.1.096-.21.206-.333.328-1.51 1.498-4.83 4.794-12.139 4.794-4.356 0-7.621-.706-9.704-2.099-2.79-1.866-1.726-5.632-1.617-6.02a.831.831 0 00.009-.03c.064-.286.501-.49.99-.467.49.023.863.268.846.556 0 .017-.004.05-.01.095-.066.502-.343 2.601 2.346 2.638h.03c1.311 0 2.705-1.29 4.051-2.538 2.023-1.873 6.653-4.46 10.442-4.46 3.041 0 3.79 1.3 4.381 2.331.221.385.42.731.709.958.288-.227.487-.573.708-.958.592-1.03 1.34-2.331 4.381-2.331 3.79 0 8.42 2.587 10.442 4.46 1.347 1.248 2.74 2.538 4.052 2.538h.03c2.686-.037 2.412-2.132 2.345-2.642a1.13 1.13 0 01-.01-.098c-.017-.288.355-.529.845-.553.487-.023.926.185.991.47l.009.03c.11.39 1.173 4.155-1.617 6.021z" fill="var(--svg-custom-color, #fff)" style="transition: var(--svg-custom-transition);"/></symbol><symbol fill="none" viewBox="0 0 128 128" id="mustache-top-hat" xmlns="http://www.w3.org/2000/svg" style="transition: var(--svg-custom-transition);"><path fill-rule="evenodd" clip-rule="evenodd" d="M47.17 31.928c-.832.59-.914.98-.914 1.092 0 .112.082.502.914 1.091.796.564 2.038 1.128 3.7 1.626 3.304.99 7.953 1.622 13.147 1.622s9.843-.632 13.147-1.622c1.661-.498 2.904-1.062 3.7-1.626.832-.59.914-.979.914-1.091 0-.113-.082-.502-.915-1.092-.795-.563-2.038-1.128-3.699-1.625-3.304-.99-7.953-1.622-13.147-1.622s-9.843.632-13.147 1.622c-1.662.497-2.904 1.062-3.7 1.625zm2.896-4.308c3.63-1.087 8.563-1.74 13.95-1.74 5.389 0 10.321.653 13.952 1.74 1.806.541 3.37 1.213 4.513 2.023 1.107.784 2.097 1.905 2.097 3.377 0 1.472-.99 2.592-2.097 3.376-1.143.81-2.707 1.482-4.513 2.023-3.631 1.088-8.563 1.74-13.951 1.74s-10.32-.652-13.95-1.74c-1.807-.54-3.371-1.213-4.515-2.023-1.106-.784-2.096-1.904-2.096-3.376s.99-2.593 2.096-3.377c1.144-.81 2.708-1.482 4.514-2.023z" fill="var(--svg-custom-color, #fff)" style="transition: var(--svg-custom-transition);"/><path fill-rule="evenodd" clip-rule="evenodd" d="M42.443 37.67c.464.48.947.871 1.376 1.174 1.516 1.074 3.424 1.861 5.386 2.449 3.98 1.192 9.216 1.866 14.812 1.866s10.831-.674 14.812-1.866c1.962-.588 3.87-1.375 5.386-2.449a9.725 9.725 0 001.368-1.166 63.594 63.594 0 015.097 2.072l.001.001.013.006.002.016c8.69 12.715 13.006 27.054 11.411 43.598l-38.01-3.77-38.204 3.764c-1.36-14.274 1.36-28.754 11.396-43.603a63.727 63.727 0 015.154-2.092z" fill="var(--svg-custom-color, #fff)" style="transition: var(--svg-custom-transition);"/><ellipse cx="64" cy="20.486" rx="14.228" ry="4.763" fill="var(--svg-custom-color, #fff)" style="transition: var(--svg-custom-transition);"/><ellipse cx="64" cy="29.4" rx="15.122" ry="5.062" fill="var(--svg-custom-color, #fff)" style="transition: var(--svg-custom-transition);"/><path fill="var(--svg-custom-color, #fff)" d="M49.772 20.486h28.456v8.16H49.772z" style="transition: var(--svg-custom-transition);"/><path fill-rule="evenodd" clip-rule="evenodd" d="M48.404 99.884c-4.045 0-13.576-6.343-22.507-16.552l14.322-7.39 50.24.88 11.65 6.51c-8.93 10.209-17.696 16.552-22.506 16.552-2.238 0-4.393-.774-6.699-1.603-2.65-.952-5.5-1.975-8.9-1.975-3.276 0-6.435 1.076-9.288 2.049-2.347.8-4.487 1.529-6.312 1.529zm37.776-6.851c-2.083 1.393-5.348 2.1-9.704 2.1-7.308 0-10.63-3.297-12.139-4.795a24.6 24.6 0 00-.334-.328c-.1.096-.21.206-.333.328-1.51 1.498-4.83 4.794-12.139 4.794-4.356 0-7.621-.706-9.704-2.099-2.79-1.866-1.726-5.632-1.617-6.02a.791.791 0 00.009-.03c.064-.286.501-.49.99-.467.49.023.863.268.846.556 0 .017-.004.05-.01.095-.066.502-.343 2.601 2.346 2.638h.03c1.311 0 2.705-1.29 4.051-2.538 2.023-1.873 6.653-4.46 10.442-4.46 3.041 0 3.79 1.3 4.381 2.331.221.384.42.731.709.958.288-.227.487-.574.708-.958.592-1.03 1.34-2.332 4.381-2.332 3.79 0 8.42 2.588 10.442 4.462 1.347 1.247 2.74 2.537 4.052 2.537h.03c2.686-.037 2.412-2.133 2.345-2.642a1.133 1.133 0 01-.01-.098c-.017-.288.355-.529.845-.553.487-.023.926.185.991.47l.009.03c.11.39 1.173 4.155-1.617 6.021z" fill="var(--svg-custom-color, #fff)" style="transition: var(--svg-custom-transition);"/></symbol><symbol fill="none" viewBox="0 0 128 128" id="ninja-band" xmlns="http://www.w3.org/2000/svg" style="transition: var(--svg-custom-transition);"><path d="M96.588 49.89c-8.105-2.913-19.603-4.803-32.522-4.803-12.92 0-24.418 1.89-32.523 4.803-.39.14-.768.282-1.138.425.388-1.438 1.798-5.64 4.33-10.942 8.38-2.176 18.513-3.417 29.33-3.417 10.893 0 21.091 1.258 29.505 3.463 2.534 5.344 3.84 9.496 4.176 10.904-.376-.146-.762-.29-1.158-.432z" fill="var(--svg-custom-color, #fff)" style="transition: var(--svg-custom-transition);"/><path fill-rule="evenodd" clip-rule="evenodd" d="M31.087 52.822l.357-.13c8-2.875 19.532-4.794 32.621-4.794 13.09 0 24.622 1.92 32.621 4.795l.211.076c4.432 9.864 6.362 20.659 5.21 32.602a63.635 63.635 0 01-19.462 9.758 46.557 46.557 0 01-4.165-6.71 41.527 41.527 0 006.572-3.139 22.77 22.77 0 01-1.609-1.209 45.688 45.688 0 01-38.887 0c-.52.4-1.058.81-1.608 1.21a41.363 41.363 0 006.56 3.131 46.971 46.971 0 01-4.166 6.717 63.924 63.924 0 01-19.45-9.764c-1.02-10.709.257-21.533 5.195-32.542zm60.628-16.866c-8.128-1.883-17.619-2.931-27.65-2.931-10.023 0-19.507 1.047-27.631 2.927l-1.926-4.406-.77-1.45 8.353 2.587 3.23-5.26 6.349 4.123 5.568-6.168 6.837 6.168 6.837-6.168 5.57 6.168 6.348-4.123 3.23 5.26 8.353-2.588-.77 1.451-1.928 4.41zM28.238 51.593l-.177.487c-2.416 6.65-4.79 15.112-5.8 24.554l-6.397-5.93 8.951-8.538-10.884 3.44-2.674-10.809 16.98-3.204z" fill="var(--svg-custom-color, #fff)" style="transition: var(--svg-custom-transition);"/></symbol><symbol fill="none" viewBox="0 0 128 128" id="ribbon" xmlns="http://www.w3.org/2000/svg" style="transition: var(--svg-custom-transition);"><path fill-rule="evenodd" clip-rule="evenodd" d="M66.161 38.38c-.698 3.181 2.036 6.166 5.345 5.631l7.676-1.24c1.209 2.266 3.375 4.058 6.015 4.908 2.622.844 5.404.661 7.697-.451l4.322 4.261c4.205 9.669 6.015 20.229 4.891 31.882a63.635 63.635 0 01-19.462 9.758 46.557 46.557 0 01-4.165-6.71 41.527 41.527 0 006.572-3.139 22.8 22.8 0 01-1.609-1.209 45.688 45.688 0 01-38.887 0c-.52.4-1.058.81-1.608 1.21a41.363 41.363 0 006.56 3.131 46.971 46.971 0 01-4.166 6.717 63.924 63.924 0 01-19.45-9.764C24.533 69.09 27.254 54.61 37.29 39.762a64.021 64.021 0 0115.87-4.891 43.755 43.755 0 012.032 4.13 59.062 59.062 0 0110.97-.62z" fill="var(--svg-custom-color, #fff)" style="transition: var(--svg-custom-transition);"/><ellipse cx="87.913" cy="39.244" rx="7.158" ry="6.161" transform="rotate(17.85 87.913 39.244)" fill="var(--svg-custom-color, #fff)" style="transition: var(--svg-custom-transition);"/><path d="M72.487 27.474c.468-1.454 2.328-1.868 3.368-.748l8.267 8.895a2 2 0 01.464 1.89l-.134.49a2 2 0 01-1.61 1.444l-11.766 1.9c-1.475.24-2.68-1.165-2.223-2.587l3.634-11.284zm34.821 11.216c.468-1.455-.803-2.877-2.301-2.573l-12.01 2.431a2 2 0 00-1.516 1.377l-.143.47a2 2 0 00.509 2.008l8.514 8.396c1.061 1.046 2.852.607 3.308-.81l3.639-11.299z" fill="var(--svg-custom-color, #fff)" style="transition: var(--svg-custom-transition);"/></symbol><symbol fill="none" viewBox="0 0 129 129" id="sad" xmlns="http://www.w3.org/2000/svg" style="transition: var(--svg-custom-transition);"><path fill-rule="evenodd" clip-rule="evenodd" d="M44.98 66.748a8.976 8.976 0 00-.023.64c0 4.297 3.18 7.789 7.028 7.789 3.922 0 6.954-3.492 7.021-7.789.034-2.128-.724-4.067-1.976-5.481-.18.102-.361.203-.544.303-3.909 2.144-7.851 3.663-11.506 4.538zm39.892 0c.016.211.023.425.023.64 0 4.297-3.18 7.789-7.027 7.789-3.922 0-6.954-3.492-7.022-7.789-.033-2.128.724-4.067 1.976-5.481.18.102.362.203.544.303 3.91 2.144 7.851 3.663 11.506 4.538z" fill="var(--svg-custom-color, #4F5660)" style="transition: var(--svg-custom-transition);"/></symbol><symbol fill="none" viewBox="0 0 128 128" id="samurai" xmlns="http://www.w3.org/2000/svg" style="transition: var(--svg-custom-transition);"><path fill-rule="evenodd" clip-rule="evenodd" d="M24.192 65.38L14.93 90.545c1.812 1.56 10.518 4.947 16.489 5.05l.133-3.39a66.612 66.612 0 01-7.263-4.67l-.969-.716-.114-1.199c-.637-6.683-.411-13.43.987-20.242zM96.45 92.212l.133 3.382c5.971-.102 14.677-3.49 16.489-5.049l-9.273-25.193c1.314 6.401 1.684 13.15.997 20.277l-.116 1.197-.967.715a66.322 66.322 0 01-7.263 4.671z" fill="var(--svg-custom-color, #fff)" style="transition: var(--svg-custom-transition);"/><path fill-rule="evenodd" clip-rule="evenodd" d="M63.93 48.627a4.36 4.36 0 00.07-.009l.07.009c2.168-.005 5.332-.119 8.257-1.157a200.895 200.895 0 00-8.705-.17l.153 1.327H63.7l-.142-1.326c-2.709.005-5.346.064-7.886.17 2.823 1.001 5.869 1.142 8.028 1.155l.3 2.801h-.098c-2.106-.005-5.404-.105-8.617-1.133-1.663-.531-3.36-1.332-4.874-2.529-5.229.373-9.897.952-13.721 1.68a55.36 55.36 0 00-4.496 1.031c-5.854 11.819-7.395 23.42-6.302 34.889a63.924 63.924 0 0019.45 9.764 46.971 46.971 0 004.165-6.717 41.363 41.363 0 01-6.56-3.132 74.83 74.83 0 001.608-1.209 45.688 45.688 0 0038.887 0 22.8 22.8 0 001.609 1.21 41.527 41.527 0 01-6.572 3.137 46.557 46.557 0 004.165 6.711c7-2.11 13.584-5.412 19.462-9.758 1.241-12.874-1.098-24.414-6.291-34.892a55.3 55.3 0 00-4.507-1.034c-3.824-.728-8.492-1.307-13.721-1.68-1.513 1.197-3.212 1.998-4.874 2.53-3.213 1.027-6.511 1.127-8.617 1.132l-.322-2.8h.156zm16.071-3.382c5.482.465 10.302 1.162 14.117 2.025l-.085-.151a5.68 5.68 0 00.388-2.047c0-3.56-3.468-6.777-9.055-9.08-1.498 2.104-2.956 4.53-4.095 7.048a12.773 12.773 0 01-1.27 2.205zm2.644-10.25c-1.434 2.086-2.816 4.44-3.925 6.891a9.773 9.773 0 01-2.197 3.101 197.49 197.49 0 00-13.211-.386L63 41.893c.32-.004.652-.007 1-.007.446 0 .866.006 1.267.01h.001c2.301.03 3.942.052 5.878-1.016 2.27-1.254 3.518-4.369 4.24-7.62 2.62.436 5.06 1.023 7.26 1.736zm-10.04-2.131c-.04.174-.082.347-.126.519-.338 1.34-.757 2.505-1.258 3.41-.504.912-1.002 1.4-1.428 1.635-1.21.668-2.139.7-4.488.669h-.009c-.397-.005-.832-.01-1.296-.01-.464 0-.9.005-1.297.01h-.024c-2.337.03-3.266-.003-4.472-.669-.426-.235-.924-.723-1.428-1.635-.501-.905-.92-2.07-1.258-3.41-.036-.14-.07-.282-.103-.424a68.737 68.737 0 018.972-.576c2.848 0 5.604.168 8.215.48zm-29.791 3.382c-5.234 2.284-8.455 5.396-8.455 8.826 0 .39.041.775.123 1.156-.202.347-.4.694-.595 1.04 3.814-.862 8.632-1.558 14.112-2.023a12.84 12.84 0 01-1.27-2.205c-1.093-2.416-2.481-4.75-3.915-6.794zm8.663 8.741a197.34 197.34 0 0111.792-.386l-.29-2.707H63l-.321-2.797.3 2.797c-.084 0-.166.002-.247.003-2.301.03-3.942.05-5.878-1.017-2.24-1.237-3.484-4.286-4.21-7.49-2.588.466-4.99 1.08-7.145 1.817 1.383 2.032 2.71 4.31 3.781 6.68a9.775 9.775 0 002.197 3.1zm12.62 6.44H64h.096z" fill="var(--svg-custom-color, #fff)" style="transition: var(--svg-custom-transition);"/><path fill-rule="evenodd" clip-rule="evenodd" d="M64 48.618a4.36 4.36 0 01-.07.009c-4.108-.009-11.785-.41-14.65-6.74-3.313-7.324-9.056-13.779-11.392-14.773 0 0 2.851-1.846 6.638-2.296 3.787-.449 7.038.419 7.038.419l.052.61c.353 4.178 1.074 12.734 5.238 15.032 1.936 1.069 3.577 1.048 5.878 1.018.4-.005.822-.01 1.268-.01v6.731zm0 0l.07.009c4.108-.009 11.786-.41 14.65-6.74 3.313-7.324 9.056-13.779 11.392-14.773 0 0-2.851-1.846-6.638-2.296-3.787-.449-7.038.419-7.038.419l-.052.61c-.353 4.178-1.074 12.734-5.238 15.033-1.936 1.068-3.577 1.047-5.878 1.017-.4-.005-.822-.01-1.268-.01v6.731z" fill="var(--svg-custom-color, #fff)" style="transition: var(--svg-custom-transition);"/></symbol><symbol fill="none" viewBox="0 0 128 129" id="scared" xmlns="http://www.w3.org/2000/svg" style="transition: var(--svg-custom-transition);"><path d="M44.015 67.388c0 4.297 3.18 7.789 7.028 7.789 3.922 0 6.954-3.492 7.021-7.789.068-4.296-3.087-7.82-7.033-7.82-3.947 0-7.016 3.524-7.016 7.82zm25.932 0c0 4.297 3.167 7.789 7.021 7.789 3.922 0 6.948-3.492 7.016-7.789.067-4.296-3.063-7.82-7.016-7.82-3.952 0-7.021 3.524-7.021 7.82z" fill="var(--svg-custom-color, #4F5660)" style="transition: var(--svg-custom-transition);"/><path fill-rule="evenodd" clip-rule="evenodd" d="M45.94 56.373C41.855 58.06 39 62.365 39 67.37c0 5.01 2.925 9.321 7 11.003-2.66-2.786-4.323-6.695-4.323-11.004 0-4.304 1.625-8.211 4.264-10.996zm36.12 0C86.145 58.06 89 62.365 89 67.37c0 5.01-2.925 9.321-7 11.003 2.66-2.786 4.323-6.695 4.323-11.004 0-4.304-1.625-8.211-4.264-10.996z" fill="var(--svg-custom-color, #4F5660)" style="transition: var(--svg-custom-transition);"/></symbol><symbol fill="none" viewBox="0 0 128 128" id="scarred-laugh" xmlns="http://www.w3.org/2000/svg" style="transition: var(--svg-custom-transition);"><path fill-rule="evenodd" clip-rule="evenodd" d="M55.191 39a59.104 59.104 0 0117.618.001 43.755 43.755 0 012.031-4.13 64.021 64.021 0 0115.87 4.891c10.037 14.849 12.758 29.329 11.397 43.603a63.92 63.92 0 01-19.45 9.764 46.971 46.971 0 01-4.165-6.717 41.363 41.363 0 006.56-3.132c.637-.335 1.24-.689 1.808-1.058l3.74 3.165-1.423-4.904a19.417 19.417 0 002.748-2.92l4.112 1.253-2.614-3.548a19.43 19.43 0 001.436-3.265l3.085-.126-2.51-1.972a19.42 19.42 0 00.39-2.694l2.44-.752-2.41-1.208a12.545 12.545 0 00-.122-1.283 24.82 24.82 0 01-.198 1.257l-2.577.793 2.155 1.08a24.09 24.09 0 01-.788 2.428l-3.244.133 2.371 1.863a24.639 24.639 0 01-1.643 2.843l-3.617-1.103 2.21 3.002a25.327 25.327 0 01-2.423 2.58l-3.596-3.043 1.404 4.842a16.271 16.271 0 01-2.342 1.428 45.688 45.688 0 01-38.887 0 16.265 16.265 0 01-2.343-1.428l1.404-4.842-3.596 3.043a25.327 25.327 0 01-2.424-2.58l2.211-3.002-3.617 1.103a24.639 24.639 0 01-1.643-2.843l2.371-1.863-3.244-.133a24.09 24.09 0 01-.788-2.428l2.155-1.08-2.577-.793a24.82 24.82 0 01-.198-1.257c-.058.385-.1.815-.121 1.283l-2.412 1.208 2.441.752c.061.84.185 1.747.39 2.694l-2.51 1.972 3.085.126a19.43 19.43 0 001.436 3.265l-2.614 3.548 4.112-1.254a19.417 19.417 0 002.748 2.921L37.4 85.386l3.74-3.164c.568.37 1.17.723 1.807 1.058a41.363 41.363 0 006.56 3.132 46.971 46.971 0 01-4.166 6.717 63.924 63.924 0 01-19.45-9.764C24.533 69.09 27.254 54.61 37.29 39.762a64.021 64.021 0 0115.87-4.891 43.755 43.755 0 012.032 4.13z" fill="var(--svg-custom-color, #fff)" style="transition: var(--svg-custom-transition);"/></symbol><symbol fill="none" viewBox="0 0 129 129" id="sceptical" xmlns="http://www.w3.org/2000/svg" style="transition: var(--svg-custom-transition);"><path d="M44.986 67.388c0 4.297 3.18 7.79 7.028 7.79 3.922 0 6.954-3.493 7.021-7.79.038-2.403-.932-4.564-2.485-6.002-1.224-1.133-2.906 0-4.646 0-1.739 0-3.21-1.133-4.421 0-1.537 1.438-2.497 3.6-2.497 6.002zm25.932 0c0 4.297 3.167 7.789 7.021 7.789 3.922 0 6.948-3.492 7.016-7.789.067-4.296-3.063-7.82-7.016-7.82-3.952 0-7.021 3.524-7.021 7.82z" fill="var(--svg-custom-color, #4F5660)" style="transition: var(--svg-custom-transition);"/><path fill-rule="evenodd" clip-rule="evenodd" d="M72.437 58.135c-1.365 1.101-2.246 2.423-2.624 3.254l-2.252-.91c.514-1.13 1.61-2.749 3.282-4.098 1.687-1.362 4.007-2.483 6.925-2.483 2.912 0 5.284 1.117 7.038 2.465 1.74 1.339 2.928 2.945 3.507 4.066l-2.203 1.01c-.434-.84-1.406-2.174-2.853-3.287-1.434-1.102-3.277-1.945-5.49-1.945-2.207 0-3.981.839-5.33 1.928zM61.275 61.73c-8.226 3.193-15.691 1.358-18.528-.045l1.117-2.26c2.297 1.137 9.024 2.857 16.5-.045l.911 2.35z" fill="var(--svg-custom-color, #4F5660)" style="transition: var(--svg-custom-transition);"/></symbol><symbol fill="none" viewBox="0 0 128 129" id="single-eye" xmlns="http://www.w3.org/2000/svg" style="transition: var(--svg-custom-transition);"><path fill-rule="evenodd" clip-rule="evenodd" d="M63.5 77.881c5.74 0 10.395-5.28 10.395-11.794S69.24 54.293 63.5 54.293s-10.395 5.28-10.395 11.794S57.759 77.881 63.5 77.881zm-.2-11.993c2.54 0 4.598-2.328 4.598-5.198 0-2.87-2.058-5.197-4.598-5.197-2.539 0-4.597 2.326-4.597 5.197 0 2.87 2.058 5.198 4.597 5.198z" fill="var(--svg-custom-color, #4F5660)" style="transition: var(--svg-custom-transition);"/></symbol><symbol fill="none" viewBox="0 0 128 129" id="spider-eyes" xmlns="http://www.w3.org/2000/svg" style="transition: var(--svg-custom-transition);"><path d="M48.856 67.388c0 4.297 3.18 7.789 7.027 7.789 3.922 0 6.954-3.492 7.022-7.789.067-4.296-3.087-7.82-7.034-7.82-3.946 0-7.015 3.524-7.015 7.82zm-12.544-1.789c0 3.313 2.451 6.005 5.419 6.005 3.024 0 5.362-2.692 5.414-6.005.052-3.314-2.38-6.03-5.424-6.03-3.043 0-5.41 2.716-5.41 6.03zm44.542 0c0 3.313 2.452 6.005 5.42 6.005 3.023 0 5.361-2.692 5.413-6.005.053-3.314-2.38-6.03-5.423-6.03-3.044 0-5.41 2.716-5.41 6.03zm-15.748 1.789c0 4.297 3.167 7.789 7.022 7.789 3.922 0 6.948-3.492 7.015-7.789.068-4.296-3.063-7.82-7.015-7.82-3.953 0-7.022 3.524-7.022 7.82z" fill="var(--svg-custom-color, #4F5660)" style="transition: var(--svg-custom-transition);"/></symbol><symbol fill="none" viewBox="0 0 128 129" id="squinting" xmlns="http://www.w3.org/2000/svg" style="transition: var(--svg-custom-transition);"><path d="M83.854 61.969l.96 3.583-12.257 3.284-1.697-3.383 12.994-3.484z" fill="var(--svg-custom-color, #4F5660)" style="transition: var(--svg-custom-transition);"/><path d="M83.854 72.777l.96-3.583-13.475-3.61-.883 3.602 13.398 3.59z" fill="var(--svg-custom-color, #4F5660)" style="transition: var(--svg-custom-transition);"/><path fill-rule="evenodd" clip-rule="evenodd" d="M78.017 67.373l-7.165-1.92-1.315.352-.42 1.568.42 1.567 1.315.353 7.165-1.92z" fill="var(--svg-custom-color, #4F5660)" style="transition: var(--svg-custom-transition);"/><path fill-rule="evenodd" clip-rule="evenodd" d="M78.017 67.373l-7.165-1.92-1.315.352-.42 1.568.42 1.567 1.315.353 7.165-1.92z" fill="var(--svg-custom-color, #4F5660)" style="transition: var(--svg-custom-transition);"/><path d="M44.152 61.969l-.96 3.583 12.257 3.284 1.697-3.383-12.994-3.484z" fill="var(--svg-custom-color, #4F5660)" style="transition: var(--svg-custom-transition);"/><path d="M44.152 72.777l-.96-3.583 13.475-3.61.883 3.602-13.398 3.59z" fill="var(--svg-custom-color, #4F5660)" style="transition: var(--svg-custom-transition);"/><path fill-rule="evenodd" clip-rule="evenodd" d="M49.989 67.373l7.165-1.92 1.315.352.42 1.568-.42 1.567-1.315.353-7.165-1.92z" fill="var(--svg-custom-color, #4F5660)" style="transition: var(--svg-custom-transition);"/><path fill-rule="evenodd" clip-rule="evenodd" d="M49.989 67.373l7.165-1.92 1.315.352.42 1.568-.42 1.567-1.315.353-7.165-1.92z" fill="var(--svg-custom-color, #4F5660)" style="transition: var(--svg-custom-transition);"/></symbol><symbol fill="none" viewBox="0 0 128 129" id="star-eyes" xmlns="http://www.w3.org/2000/svg" style="transition: var(--svg-custom-transition);"><path d="M50.11 58.26a1 1 0 011.73 0l2.22 3.825a1 1 0 00.654.476l4.324.93a1 1 0 01.534 1.645l-2.951 3.293a1 1 0 00-.25.77l.452 4.399a1 1 0 01-1.4 1.017l-4.044-1.79a1 1 0 00-.81 0l-4.044 1.79a1 1 0 01-1.399-1.017l.452-4.4a1 1 0 00-.25-.769l-2.952-3.293a1 1 0 01.535-1.645l4.324-.93a1 1 0 00.654-.476l2.22-3.824zm26.05 0a1 1 0 011.73 0l2.22 3.825a1 1 0 00.655.476l4.324.93a1 1 0 01.535 1.645l-2.952 3.293a1 1 0 00-.25.77l.452 4.399a1 1 0 01-1.4 1.017l-4.044-1.79a1 1 0 00-.809 0l-4.044 1.79a1 1 0 01-1.4-1.017l.452-4.4a1 1 0 00-.25-.769l-2.951-3.293a1 1 0 01.534-1.645l4.324-.93a1 1 0 00.654-.476l2.22-3.824z" fill="var(--svg-custom-color, #4F5660)" style="transition: var(--svg-custom-transition);"/></symbol><symbol fill="none" viewBox="0 0 128 129" id="sunglasses" xmlns="http://www.w3.org/2000/svg" style="transition: var(--svg-custom-transition);"><path fill-rule="evenodd" clip-rule="evenodd" d="M63.528 65.546c-.691.06-1.263.27-1.528.406l-1.232-2.376c.569-.295 1.48-.605 2.528-.697 1.058-.092 2.341.034 3.564.717l-1.306 2.337c-.635-.355-1.346-.446-2.026-.387z" fill="var(--svg-custom-color, #4F5660)" style="transition: var(--svg-custom-transition);"/><path fill-rule="evenodd" clip-rule="evenodd" d="M47.086 60.453a5 5 0 00-5.215 4.995v3.848a5 5 0 005.849 4.928l11.547-1.99a4 4 0 003.32-3.942v-4.298a3 3 0 00-2.87-2.997l-12.631-.544zm6.618 1.869a1.338 1.338 0 10-.138 2.673l5.733.296a1.339 1.339 0 00.138-2.674l-5.733-.295zm27.21-1.869a5 5 0 015.216 4.995v3.848a5 5 0 01-5.85 4.928l-11.547-1.99a4 4 0 01-3.32-3.942v-4.298a3 3 0 012.87-2.997l12.631-.544zm-4.826 1.736a1.339 1.339 0 00.128 2.673l5.734-.274a1.339 1.339 0 00-.128-2.674l-5.734.275z" fill="var(--svg-custom-color, #4F5660)" style="transition: var(--svg-custom-transition);"/></symbol><symbol fill="none" viewBox="0 0 128 129" id="swirly-eyes" xmlns="http://www.w3.org/2000/svg" style="transition: var(--svg-custom-transition);"><path fill-rule="evenodd" clip-rule="evenodd" d="M86.333 68.579c-.15-4.728-4.721-8.902-9.42-8.754h-.039c-4.1 0-8.606 2.935-8.606 8.358 0 4.438 3.308 6.845 6.708 6.738 3.438-.119 5.983-2.567 5.879-5.872-.065-2.056-1.956-3.83-3.942-3.768-1.059.034-1.839.407-2.345.95-.507.541-.835 1.352-.8 2.434.017.548.616 1.13 1.353 1.13a.917.917 0 00.55-.227.696.696 0 00.245-.587 1.228 1.228 0 112.454-.077c.071 2.239-1.875 3.347-3.249 3.347-1.744 0-3.74-1.337-3.808-3.508-.052-1.636.449-3.108 1.461-4.19 1.013-1.083 2.443-1.675 4.062-1.726 3.371-.107 6.367 2.764 6.474 6.144.153 4.849-3.657 8.247-8.252 8.405h-.004c-4.634.146-9.242-3.221-9.242-9.193 0-7.116 5.964-10.804 11.043-10.813 6.008-.178 11.74 5.016 11.933 11.132a1.228 1.228 0 11-2.455.077zm-45.666 0c.15-4.728 4.722-8.902 9.42-8.754h.039c4.1 0 8.607 2.935 8.607 8.358 0 4.438-3.309 6.845-6.708 6.738-3.439-.119-5.984-2.567-5.88-5.872.065-2.056 1.956-3.83 3.942-3.768 1.06.034 1.839.407 2.346.95.506.541.834 1.352.8 2.434-.017.548-.616 1.13-1.354 1.13a.918.918 0 01-.55-.227.696.696 0 01-.245-.587 1.228 1.228 0 00-2.454-.077c-.07 2.239 1.876 3.347 3.249 3.347 1.744 0 3.74-1.337 3.808-3.508.052-1.636-.448-3.108-1.46-4.19-1.013-1.083-2.444-1.675-4.063-1.726-3.371-.107-6.367 2.764-6.473 6.144-.153 4.849 3.657 8.247 8.251 8.405h.004c4.635.146 9.242-3.221 9.242-9.193 0-7.116-5.964-10.804-11.043-10.813-6.008-.178-11.74 5.016-11.932 11.132a1.228 1.228 0 102.454.077z" fill="var(--svg-custom-color, #4F5660)" style="transition: var(--svg-custom-transition);"/></symbol><symbol fill="none" viewBox="0 0 128 128" id="thick" xmlns="http://www.w3.org/2000/svg" style="transition: var(--svg-custom-transition);"><path d="M64 38.34c2.945 0 5.89.22 8.81.66a43.723 43.723 0 012.03-4.13 64.02 64.02 0 0115.872 4.891c10.036 14.85 12.757 29.33 11.397 43.605a63.932 63.932 0 01-19.45 9.764 46.98 46.98 0 01-4.166-6.717c-.256-.51-.806-1.635-.968-2.045a45.69 45.69 0 01-27.05 0c-.162.41-.712 1.534-.968 2.045a46.98 46.98 0 01-4.165 6.717 63.927 63.927 0 01-19.45-9.764c-1.36-14.275 1.36-28.755 11.396-43.605A64.02 64.02 0 0153.16 34.87 43.723 43.723 0 0155.191 39c2.92-.44 5.864-.66 8.809-.66z" fill="var(--svg-custom-color, #fff)" style="transition: var(--svg-custom-transition);"/></symbol><symbol fill="none" viewBox="0 0 128 128" id="thick-upside-down" xmlns="http://www.w3.org/2000/svg" style="transition: var(--svg-custom-transition);"><path d="M64 89.66c-2.945 0-5.89-.22-8.81-.66a43.723 43.723 0 01-2.03 4.13 64.02 64.02 0 01-15.872-4.891c-10.036-14.85-12.757-29.33-11.397-43.605a63.926 63.926 0 0119.45-9.764 46.98 46.98 0 014.166 6.717c.256.51.806 1.635.968 2.045a45.69 45.69 0 0127.05 0c.161-.41.712-1.534.968-2.045a46.98 46.98 0 014.165-6.717 63.932 63.932 0 0119.451 9.764c1.36 14.275-1.361 28.755-11.397 43.605A64.02 64.02 0 0174.84 93.13 43.723 43.723 0 0172.809 89c-2.92.44-5.864.66-8.809.66z" fill="var(--svg-custom-color, #fff)" style="transition: var(--svg-custom-transition);"/></symbol><symbol fill="none" viewBox="0 0 128 129" id="third-eye" xmlns="http://www.w3.org/2000/svg" style="transition: var(--svg-custom-transition);"><path d="M44.015 69.388c0 4.297 3.18 7.789 7.028 7.789 3.922 0 6.954-3.492 7.021-7.789.068-4.296-3.087-7.82-7.033-7.82-3.947 0-7.016 3.524-7.016 7.82zm12.96-10.677c0 4.297 3.18 7.789 7.027 7.789 3.922 0 6.955-3.492 7.022-7.789.068-4.296-3.087-7.82-7.034-7.82-3.946 0-7.015 3.524-7.015 7.82zm12.972 10.677c0 4.297 3.167 7.789 7.021 7.789 3.922 0 6.948-3.492 7.016-7.789.067-4.296-3.063-7.82-7.016-7.82-3.952 0-7.021 3.524-7.021 7.82z" fill="var(--svg-custom-color, #4F5660)" style="transition: var(--svg-custom-transition);"/></symbol><symbol fill="none" viewBox="0 0 128 128" id="top-hat" xmlns="http://www.w3.org/2000/svg" style="transition: var(--svg-custom-transition);"><path fill-rule="evenodd" clip-rule="evenodd" d="M47.17 33.928c-.832.59-.914.98-.914 1.092 0 .112.082.502.914 1.091.796.564 2.038 1.128 3.7 1.626 3.304.99 7.953 1.622 13.147 1.622s9.843-.633 13.147-1.622c1.661-.498 2.904-1.062 3.7-1.626.832-.59.914-.979.914-1.091 0-.113-.082-.502-.915-1.092-.795-.563-2.038-1.128-3.699-1.625-3.304-.99-7.953-1.622-13.147-1.622s-9.843.632-13.147 1.622c-1.662.497-2.904 1.062-3.7 1.625zm2.896-4.308c3.63-1.087 8.563-1.74 13.95-1.74 5.389 0 10.321.653 13.952 1.74 1.806.541 3.37 1.213 4.513 2.023 1.107.784 2.097 1.905 2.097 3.377 0 1.472-.99 2.592-2.097 3.376-1.143.81-2.707 1.482-4.513 2.023-3.631 1.088-8.563 1.74-13.951 1.74s-10.32-.652-13.95-1.74c-1.807-.541-3.371-1.213-4.515-2.023-1.106-.784-2.096-1.904-2.096-3.376s.99-2.593 2.096-3.377c1.144-.81 2.708-1.482 4.514-2.023z" fill="var(--svg-custom-color, #fff)" style="transition: var(--svg-custom-transition);"/><path fill-rule="evenodd" clip-rule="evenodd" d="M42.443 39.67c.464.48.947.871 1.376 1.174 1.516 1.074 3.424 1.861 5.386 2.449 3.98 1.192 9.216 1.866 14.812 1.866s10.831-.674 14.812-1.866c1.962-.588 3.87-1.375 5.386-2.449a9.725 9.725 0 001.368-1.166 63.594 63.594 0 015.097 2.072l.001.001.013.006.002.016c8.69 12.715 13.006 27.054 11.411 43.598a63.633 63.633 0 01-19.462 9.758 46.557 46.557 0 01-4.165-6.71 41.527 41.527 0 006.572-3.139 22.8 22.8 0 01-1.609-1.209 45.688 45.688 0 01-38.887 0c-.52.4-1.058.81-1.608 1.21a41.363 41.363 0 006.56 3.131 46.971 46.971 0 01-4.166 6.717 63.924 63.924 0 01-19.45-9.764C24.533 71.09 27.254 56.61 37.29 41.762a63.727 63.727 0 015.154-2.092z" fill="var(--svg-custom-color, #fff)" style="transition: var(--svg-custom-transition);"/><ellipse cx="64" cy="22.486" rx="14.228" ry="4.763" fill="var(--svg-custom-color, #fff)" style="transition: var(--svg-custom-transition);"/><ellipse cx="64" cy="31.4" rx="15.122" ry="5.062" fill="var(--svg-custom-color, #fff)" style="transition: var(--svg-custom-transition);"/><path fill="var(--svg-custom-color, #fff)" d="M49.772 22.486h28.456v8.16H49.772z" style="transition: var(--svg-custom-transition);"/></symbol><symbol fill="none" viewBox="0 0 128 128" id="tounge-shape" xmlns="http://www.w3.org/2000/svg" style="transition: var(--svg-custom-transition);"><path fill-rule="evenodd" clip-rule="evenodd" d="M62.471 89.082a25.864 25.864 0 01-4.575-.66l-2.852-.682v4.374a8.956 8.956 0 0017.912 0v-4.458l-2.873.715a25.345 25.345 0 01-4.612.704v4.777a1.5 1.5 0 11-3 0v-4.77z" fill="var(--svg-custom-color, #fff)" style="transition: var(--svg-custom-transition);"/><path fill-rule="evenodd" clip-rule="evenodd" d="M90.68 39.75a63.576 63.576 0 00-15.858-4.879 43.574 43.574 0 00-2.031 4.13 59.06 59.06 0 00-17.6 0 43.755 43.755 0 00-2.031-4.13 64.021 64.021 0 00-15.87 4.891C27.252 54.611 24.531 69.091 25.892 83.365a63.924 63.924 0 0019.45 9.764c1.525.462 4.018.982 7.311 1.362a11.618 11.618 0 01-.21-2.206l.173-4.807a32.527 32.527 0 01-3.109-1.098 41.364 41.364 0 01-6.56-3.132 71.66 71.66 0 001.608-1.21 45.69 45.69 0 0038.888 0c.525.43 1.064.841 1.608 1.21a41.528 41.528 0 01-6.572 3.138 28.45 28.45 0 01-2.924.981v4.918c0 .669-.057 1.323-.165 1.96 2.33-.281 4.752-.648 7.254-1.116 7-2.11 13.584-5.412 19.462-9.758 1.596-16.554-2.727-30.9-11.427-43.621zM55.044 92.285v-4.18a39.04 39.04 0 007.43.879 1.519 1.519 0 00-.003.098v4.77c0 .478.224.904.572 1.179h-.007a91.912 91.912 0 01-7.647-.275 8.96 8.96 0 01-.345-2.47zm9.887 2.72a106.87 106.87 0 007.739-.464 8.97 8.97 0 00.286-2.256v-4.28a46.117 46.117 0 01-7.49.95c.003.041.005.084.005.127v4.77c0 .463-.21.878-.54 1.153z" fill="var(--svg-custom-color, #fff)" style="transition: var(--svg-custom-transition);"/></symbol><symbol fill="none" viewBox="0 0 128 128" id="triangle-hair" xmlns="http://www.w3.org/2000/svg" style="transition: var(--svg-custom-transition);"><path fill-rule="evenodd" clip-rule="evenodd" d="M72.793 38.996c9.79 1.372 18.57 4.475 20.759 5.286 6.759 11.576 9.964 24.472 8.555 39.089a63.633 63.633 0 01-19.462 9.758 46.557 46.557 0 01-4.165-6.71 41.527 41.527 0 006.572-3.139 22.8 22.8 0 01-1.609-1.209 45.688 45.688 0 01-38.887 0c-.52.4-1.058.81-1.608 1.21a41.363 41.363 0 006.56 3.131 46.977 46.977 0 01-4.166 6.717 63.924 63.924 0 01-19.45-9.764c-1.221-12.823.85-25.81 8.558-39.083 2.191-.812 10.96-3.91 20.74-5.284l.001.002.25-.037c2.12-.29 4.285-.499 6.44-.584a59.069 59.069 0 014.422.007c1.99.086 3.99.275 5.953.536l.535.078c0-.001 0-.003.002-.004z" fill="var(--svg-custom-color, #fff)" style="transition: var(--svg-custom-transition);"/><path d="M84.104 31.286l9.61 13.267-59.329-.207 8.869-13.06 5.075 6.323 8.206-8.795 7.486 8.795 7.092-8.795 7.722 8.795 5.27-6.323z" fill="var(--svg-custom-color, #fff)" style="transition: var(--svg-custom-transition);"/></symbol><symbol fill="none" viewBox="0 0 128 128" id="vampire" xmlns="http://www.w3.org/2000/svg" style="transition: var(--svg-custom-transition);"><path fill-rule="evenodd" clip-rule="evenodd" d="M55.191 39a59.104 59.104 0 0117.618.001 43.755 43.755 0 012.031-4.13 64.021 64.021 0 0115.87 4.891c10.037 14.849 12.758 29.329 11.397 43.603a63.92 63.92 0 01-19.45 9.764 46.971 46.971 0 01-4.165-6.717 41.352 41.352 0 004.058-1.768l3.747 4.826 3.419-9.703.008-.009-1.845-.76c-1.403 1.272-3.541 2.579-4.435 3.073a45.688 45.688 0 01-38.887 0c-.895-.494-3.033-1.8-4.436-3.074l-1.845.761.01.011 3.419 9.701 3.746-4.826a41.459 41.459 0 004.057 1.768 46.971 46.971 0 01-4.166 6.717 63.924 63.924 0 01-19.45-9.764C24.533 69.09 27.254 54.61 37.29 39.762a64.021 64.021 0 0115.87-4.891 43.755 43.755 0 012.032 4.13z" fill="var(--svg-custom-color, #fff)" style="transition: var(--svg-custom-transition);"/></symbol><symbol fill="none" viewBox="0 0 128 128" id="vampire-ears" xmlns="http://www.w3.org/2000/svg" style="transition: var(--svg-custom-transition);"><path fill-rule="evenodd" clip-rule="evenodd" d="M55.191 39a59.104 59.104 0 0117.618.001 43.755 43.755 0 012.031-4.13 64.021 64.021 0 0115.87 4.891c10.037 14.849 12.758 29.329 11.397 43.603a63.92 63.92 0 01-19.45 9.764 46.971 46.971 0 01-4.165-6.717 41.352 41.352 0 004.058-1.768l3.747 4.826 3.419-9.703.008-.009-1.845-.76c-1.403 1.272-3.541 2.579-4.435 3.073a45.688 45.688 0 01-38.887 0c-.895-.494-3.033-1.8-4.436-3.074l-1.845.761.01.011 3.419 9.701 3.746-4.826a41.459 41.459 0 004.057 1.768 46.971 46.971 0 01-4.166 6.717 63.924 63.924 0 01-19.45-9.764C24.533 69.09 27.254 54.61 37.29 39.762a64.021 64.021 0 0115.87-4.891 43.755 43.755 0 012.032 4.13zM25.567 57.643c-2.018-5.493-4.84-11.986-7.99-16.394-4.39-6.148-1.963 5.422-.199 13.83.734 3.496 1.352 6.444 1.32 7.347-.304 8.184 1.351 11.06 4.23 10.227.55-5.46 1.522-10.53 2.639-15.01zm-3.979 6.136c-.504.46-.89.161-.84-1.724.019-.699.037-1.347.023-1.787-.033-1.12-.298-2.758-.585-4.535l-.193-1.205c.321-2.022 2.592 2.682 2.73 3.897.138 1.214-.444 4.724-1.135 5.354zm80.741-6.165c2.049-5.482 4.91-11.958 8.084-16.348 4.426-6.122 1.932 5.434.119 13.832-.754 3.49-1.39 6.436-1.361 7.338.255 8.187-1.417 11.053-4.29 10.203-.519-5.463-1.461-10.539-2.552-15.025zm3.943 6.159c.501.462.89.166.85-1.72-.015-.698-.029-1.346-.013-1.786.04-1.121.314-2.757.611-4.532.067-.396.134-.799.2-1.204-.309-2.023-2.607 2.667-2.752 3.88-.145 1.214.416 4.728 1.104 5.362z" fill="var(--svg-custom-color, #fff)" style="transition: var(--svg-custom-transition);"/></symbol><symbol fill="none" viewBox="0 0 129 128" id="wink" xmlns="http://www.w3.org/2000/svg" style="transition: var(--svg-custom-transition);"><path d="M44.044 66.888c0 4.297 3.179 7.79 7.027 7.79 3.922 0 6.954-3.493 7.022-7.79.067-4.296-3.087-7.82-7.034-7.82-3.947 0-7.015 3.524-7.015 7.82zm39.839-5.418l.96 3.582-12.258 3.284-1.696-3.383 12.994-3.484z" fill="var(--svg-custom-color, #4F5660)" style="transition: var(--svg-custom-transition);"/><path d="M83.883 72.277l.96-3.583-13.476-3.61-.883 3.603 13.399 3.59z" fill="var(--svg-custom-color, #4F5660)" style="transition: var(--svg-custom-transition);"/><path fill-rule="evenodd" clip-rule="evenodd" d="M78.046 66.873l-7.165-1.92-1.315.352-.42 1.568.42 1.568 1.315.352 7.165-1.92z" fill="var(--svg-custom-color, #4F5660)" style="transition: var(--svg-custom-transition);"/><path fill-rule="evenodd" clip-rule="evenodd" d="M78.046 66.873l-7.165-1.92-1.315.352-.42 1.568.42 1.568 1.315.352 7.165-1.92z" fill="var(--svg-custom-color, #4F5660)" style="transition: var(--svg-custom-transition);"/></symbol></svg>